<svg width="99" height="116" viewBox="0 0 99 116" fill="none" xmlns="http://www.w3.org/2000/svg">
<path d="M64.1702 14.6H32.0902C28.8302 14.6 26.1802 11.96 26.1802 8.69V6.72C26.1802 3.46 28.8202 0.809998 32.0902 0.809998H64.1702C67.4302 0.809998 70.0802 3.45 70.0802 6.72V8.69C70.0702 11.96 67.4302 14.6 64.1702 14.6Z" fill="#7116A0"/>
<path d="M55.7401 14.06H40.8701V19.14H55.7401V14.06Z" fill="#7116A0"/>
<path d="M49.7602 115.63C76.7062 115.63 98.5502 93.786 98.5502 66.84C98.5502 39.894 76.7062 18.05 49.7602 18.05C22.8142 18.05 0.970215 39.894 0.970215 66.84C0.970215 93.786 22.8142 115.63 49.7602 115.63Z" fill="#7116A0"/>
<path d="M93.8401 64.48C94.5201 89.34 74.1401 110.03 49.5801 109.83C25.2901 109.63 5.38012 89.07 6.05012 64.48" fill="#FF5408"/>
<path d="M30.75 11.05V3.42999H41.64" stroke="black" stroke-width="0.5835" stroke-miterlimit="10"/>
<path d="M42.0303 14.65V18.05" stroke="black" stroke-width="0.5835" stroke-miterlimit="10"/>
<path d="M52.8101 12.43H65.1401V3.35999" stroke="black" stroke-width="0.5835" stroke-miterlimit="10"/>
<path d="M33.8002 26.58C17.9402 32.87 7.13019 47.66 6.23019 64.31C5.24019 82.56 16.3302 99.77 33.8002 106.75" stroke="black" stroke-width="0.5835" stroke-miterlimit="10"/>
</svg>
