<svg width="191" height="225" viewBox="0 0 191 225" fill="none" xmlns="http://www.w3.org/2000/svg">
<path d="M127.65 27.2899H57.13C52.94 27.2899 49.54 23.8899 49.54 19.6999V7.96985C49.54 3.77985 52.94 0.379883 57.13 0.379883H127.65C131.84 0.379883 135.24 3.77985 135.24 7.96985V19.6999C135.24 23.8999 131.84 27.2899 127.65 27.2899Z" fill="#7116A0"/>
<path d="M107.26 26.23H78.22V36.15H107.26V26.23Z" fill="#7116A0"/>
<path d="M95.58 224.54C148.191 224.54 190.84 181.891 190.84 129.28C190.84 76.6694 148.191 34.02 95.58 34.02C42.9694 34.02 0.320068 76.6694 0.320068 129.28C0.320068 181.891 42.9694 224.54 95.58 224.54Z" fill="#7116A0"/>
<path d="M58.47 20.35V5.47998H79.71" stroke="black" stroke-width="0.9789" stroke-miterlimit="10"/>
<path d="M80.49 27.3799V34.0199" stroke="black" stroke-width="0.9789" stroke-miterlimit="10"/>
<path d="M101.52 23.0398H125.6V5.33984" stroke="black" stroke-width="0.9789" stroke-miterlimit="10"/>
<path d="M64.4102 50.6699C33.4402 62.9499 12.3501 91.83 10.5801 124.33C8.65014 159.96 30.3102 193.55 64.4102 207.19" stroke="black" stroke-width="0.9789" stroke-miterlimit="10"/>
</svg>
