<svg width="163" height="280" viewBox="0 0 163 280" fill="none" xmlns="http://www.w3.org/2000/svg">
<path d="M130.08 73.1299H34.6596C33.1296 73.1299 31.8896 71.8901 31.8896 70.3601V51.8501C31.8896 50.3201 33.1296 49.0801 34.6596 49.0801H130.08C131.61 49.0801 132.85 50.3201 132.85 51.8501V70.3601C132.85 71.8901 131.61 73.1299 130.08 73.1299Z" fill="#7116A0"/>
<path d="M136.27 56.6101H27.5499C23.3599 56.6101 19.96 53.21 19.96 49.02V8.20996C19.96 4.01996 23.3599 0.620117 27.5499 0.620117H136.28C140.47 0.620117 143.87 4.01996 143.87 8.20996V49.02C143.86 53.21 140.46 56.6101 136.27 56.6101Z" fill="#FF5408"/>
<path d="M154.86 279.02H7.92981C3.73981 279.02 0.339844 275.62 0.339844 271.43V80.1001C0.339844 75.9101 3.73981 72.51 7.92981 72.51H154.86C159.05 72.51 162.45 75.9101 162.45 80.1001V271.43C162.45 275.62 159.05 279.02 154.86 279.02Z" fill="#FF5408"/>
<path d="M162.45 136.52H0.339844V222.22H162.45V136.52Z" fill="#7116A0"/>
<path d="M27.1797 37.3999V7.44995H53.5097" stroke="black" stroke-width="1.1663" stroke-miterlimit="10"/>
<path d="M105.14 84.3799H146.44V204.15" stroke="black" stroke-width="1.1663" stroke-miterlimit="10"/>
<path d="M146.44 249.59V267.14H118.56" stroke="black" stroke-width="1.1663" stroke-miterlimit="10"/>
<path d="M12.21 249.59V267.14H41.1199" stroke="black" stroke-width="1.1663" stroke-miterlimit="10"/>
</svg>
