<svg width="228" height="268" viewBox="0 0 228 268" fill="none" xmlns="http://www.w3.org/2000/svg">
<path d="M153.6 32.1699H66.6804C62.4904 32.1699 59.0903 28.7701 59.0903 24.5801V7.69995C59.0903 3.50995 62.4904 0.110107 66.6804 0.110107H153.6C157.79 0.110107 161.19 3.50995 161.19 7.69995V24.5801C161.19 28.7701 157.8 32.1699 153.6 32.1699Z" fill="#7116A0"/>
<path d="M127.86 30.8999H93.2705V42.71H127.86V30.8999Z" fill="#7116A0"/>
<path d="M113.94 267.16C176.619 267.16 227.43 216.349 227.43 153.67C227.43 90.9911 176.619 40.1799 113.94 40.1799C51.2614 40.1799 0.450195 90.9911 0.450195 153.67C0.450195 216.349 51.2614 267.16 113.94 267.16Z" fill="#7116A0"/>
<path d="M69.7305 23.8999V6.17993H95.0505" stroke="black" stroke-width="1.1663" stroke-miterlimit="10"/>
<path d="M95.9702 32.27V40.1799" stroke="black" stroke-width="1.1663" stroke-miterlimit="10"/>
<path d="M121.03 27.1001H149.71V6.01001" stroke="black" stroke-width="1.1663" stroke-miterlimit="10"/>
<path d="M76.82 60.01C39.93 74.64 14.79 109.05 12.69 147.76C10.39 190.21 36.19 230.23 76.82 246.48" stroke="black" stroke-width="1.1663" stroke-miterlimit="10"/>
</svg>
