<svg width="315" height="911" viewBox="0 0 315 911" fill="none" xmlns="http://www.w3.org/2000/svg">
<path d="M0.540039 895.86V782.62C0.540039 774.28 7.30002 767.51 15.65 767.51H56.58C64.92 767.51 71.6899 774.27 71.6899 782.62V895.86C71.6899 904.2 64.93 910.97 56.58 910.97H15.65C7.30002 910.96 0.540039 904.2 0.540039 895.86Z" fill="#7116A0"/>
<path d="M91.5103 790.89V657.82C91.5103 649.48 98.2702 642.71 106.62 642.71H147.55C155.89 642.71 162.66 649.47 162.66 657.82V790.89C162.66 799.23 155.9 806 147.55 806H106.62C98.2702 806 91.5103 799.23 91.5103 790.89Z" fill="#7116A0"/>
<path d="M15.6403 734.85H126.55C134.89 734.85 141.66 741.61 141.66 749.96V790.89C141.66 799.23 134.9 806 126.55 806H15.6403C7.30026 806 0.530273 799.24 0.530273 790.89V749.96C0.540273 741.62 7.30026 734.85 15.6403 734.85Z" fill="#7116A0"/>
<path d="M106.61 638.05H299.16C307.5 638.05 314.27 644.81 314.27 653.16V694.09C314.27 702.43 307.51 709.2 299.16 709.2H106.61C98.27 709.2 91.5 702.44 91.5 694.09V653.16C91.51 644.82 98.27 638.05 106.61 638.05Z" fill="#7116A0"/>
<path d="M314.26 113.17V691.75C314.26 700.09 307.5 706.86 299.15 706.86H258.22C249.88 706.86 243.11 700.1 243.11 691.75V113.17C243.11 104.83 249.87 98.0601 258.22 98.0601H299.15C307.5 98.0701 314.26 104.83 314.26 113.17Z" fill="#7116A0"/>
<path d="M140.43 72.41H299.16C307.5 72.41 314.27 79.17 314.27 87.52V128.45C314.27 136.79 307.51 143.56 299.16 143.56H140.43C132.09 143.56 125.32 136.8 125.32 128.45V87.52C125.33 79.17 132.09 72.41 140.43 72.41Z" fill="#7116A0"/>
<path d="M174.31 15.21V128.45C174.31 136.79 167.55 143.56 159.2 143.56H118.27C109.93 143.56 103.16 136.8 103.16 128.45V15.21C103.16 6.86996 109.92 0.0999756 118.27 0.0999756H159.2C167.55 0.0999756 174.31 6.85996 174.31 15.21Z" fill="#7116A0"/>
<path d="M122.431 18.6801C131.151 33.9801 139.24 49.64 146.69 65.6C147.64 67.64 150.66 65.86 149.71 63.83C142.26 47.87 134.17 32.22 125.45 16.91C124.34 14.96 121.321 16.7201 122.431 18.6801Z" fill="#FF5408"/>
<path d="M147.22 18.6801C138.78 34.0301 130.34 49.38 121.9 64.73C120.81 66.7 123.83 68.47 124.92 66.5C133.36 51.15 141.8 35.8 150.24 20.45C151.33 18.47 148.3 16.7001 147.22 18.6801Z" fill="#FF5408"/>
<path d="M132.86 131.69C131.41 125.02 130.37 118.27 129.79 111.47C129.5 108.07 129.31 104.67 129.24 101.26C129.17 98.25 128.9 94.8701 130.17 92.0601C131.19 89.8101 133.32 88.08 135.88 88.74C138.32 89.37 140.25 91.3399 141.5 93.4399C144.18 97.8999 144.53 103.42 144.99 108.47C145.68 116.12 146.38 123.78 147.07 131.43C148.07 131.02 149.06 130.61 150.06 130.19C149.7 129.79 149.34 129.39 148.98 128.98C147.47 127.3 145.01 129.78 146.51 131.45C146.87 131.85 147.23 132.25 147.59 132.66C148.56 133.74 150.71 132.93 150.58 131.42C149.89 123.77 149.19 116.11 148.5 108.46C147.98 102.67 147.53 96.41 144.35 91.36C141.18 86.31 134.26 82.5 129.21 87.41C126.84 89.72 125.99 92.96 125.78 96.17C125.54 99.79 125.78 103.47 125.99 107.09C126.49 115.67 127.68 124.21 129.5 132.62C129.96 134.81 133.34 133.88 132.86 131.69Z" fill="#FF5408"/>
<path d="M130.921 116.88C136.181 115.14 141.781 114.96 147.131 116.43C149.301 117.03 150.231 113.65 148.061 113.06C142.151 111.44 135.811 111.58 129.991 113.51C127.871 114.22 128.781 117.6 130.921 116.88Z" fill="#FF5408"/>
<path d="M166.65 91.73C177.06 104.43 185.63 118.6 192.14 133.67C192.52 134.54 193.78 134.72 194.53 134.3C195.43 133.79 195.53 132.77 195.16 131.91C194.89 131.29 194.62 130.67 194.36 130.05C193.98 129.18 192.72 129 191.97 129.42C191.07 129.93 190.97 130.95 191.34 131.81C191.61 132.43 191.88 133.05 192.14 133.67C193.15 133.08 194.15 132.49 195.16 131.9C188.52 116.53 179.73 102.19 169.12 89.25C167.7 87.52 165.24 90 166.65 91.73Z" fill="#FF5408"/>
<path d="M182.501 90.8C180.061 105.76 175.831 120.42 169.831 134.35C170.901 134.8 171.961 135.25 173.031 135.7C173.251 135.18 173.461 134.66 173.681 134.14C174.051 133.26 173.281 132.23 172.461 131.99C171.461 131.7 170.671 132.34 170.311 133.21C170.091 133.73 169.881 134.25 169.661 134.77C168.911 136.58 172.071 137.94 172.861 136.12C178.981 121.9 183.391 107.02 185.881 91.74C186.031 90.8 185.631 89.87 184.661 89.59C183.821 89.34 182.661 89.87 182.501 90.8Z" fill="#FF5408"/>
<path d="M207.981 130.92C207.601 124.65 207.521 118.36 207.751 112.08C207.871 108.9 208.061 105.72 208.341 102.55C208.561 100.01 208.691 97.3799 209.491 94.9499C210.121 93.0299 211.431 91.2999 213.571 91.1099C215.621 90.9299 217.711 92.03 219.041 93.53C220.741 95.43 221.431 98.07 221.841 100.53C222.301 103.33 222.421 106.2 222.511 109.03C222.741 116.01 222.271 123.01 221.091 129.9C220.721 132.1 224.091 133.05 224.461 130.83C225.641 123.87 226.201 116.81 226.021 109.75C225.871 103.91 225.891 96.84 222.221 91.93C219.121 87.78 212.611 85.81 208.551 89.8C206.661 91.66 205.851 94.32 205.451 96.87C204.931 100.2 204.721 103.59 204.501 106.94C203.991 114.92 203.991 122.93 204.471 130.91C204.611 133.16 208.111 133.17 207.981 130.92Z" fill="#FF5408"/>
<path d="M205.78 109.64C205.25 112.97 208.53 114.22 211.26 114.43C214.62 114.69 218 114.73 221.36 114.57C222.3 114.53 223.11 113.8 223.11 112.82C223.11 111.91 222.31 111.03 221.36 111.07C218.62 111.2 215.88 111.2 213.14 111.05C212.47 111.01 211.79 110.97 211.12 110.92C210.66 110.88 210.63 110.9 210.02 110.72C209.6 110.6 209.52 110.61 209.11 110.27C209.26 110.38 209.26 110.37 209.11 110.24C209.22 110.4 209.23 110.4 209.12 110.24C209.19 110.44 209.2 110.45 209.14 110.26C209.18 110.37 209.18 110.47 209.14 110.58C209.29 109.65 208.901 108.7 207.921 108.43C207.101 108.19 205.93 108.7 205.78 109.64Z" fill="#FF5408"/>
<path d="M247.651 89.6701C249.311 96.5401 250.241 103.56 250.371 110.62C250.441 114.11 250.321 117.6 250.021 121.07C249.871 122.81 249.671 124.55 249.421 126.27C249.291 127.13 249.161 127.99 249.011 128.85C248.931 129.32 248.841 129.79 248.761 130.25C248.731 130.41 248.701 130.56 248.671 130.72C248.361 131.56 248.801 131.56 249.981 130.73C250.331 131 250.681 131.27 251.031 131.53C251.091 131.83 251.151 132.14 251.211 132.44C250.941 132.79 250.671 133.14 250.411 133.49C250.441 133.47 250.471 133.45 250.501 133.43C249.911 133.43 249.321 133.43 248.731 133.43C248.771 133.45 248.801 133.47 248.841 133.5C250.781 134.66 252.541 131.64 250.611 130.48C250.571 130.46 250.541 130.44 250.501 130.41C250.001 130.11 249.231 130.06 248.731 130.41C247.191 131.49 247.501 134.19 249.661 134.22C251.931 134.25 252.111 131.41 252.401 129.78C253.191 125.25 253.681 120.67 253.841 116.08C254.171 106.89 253.201 97.66 251.041 88.73C250.491 86.55 247.121 87.4801 247.651 89.6701Z" fill="#FF5408"/>
<path d="M237.811 123.83C247.191 117.69 257.511 113.19 268.401 110.52C270.591 109.98 269.661 106.61 267.471 107.15C256.321 109.89 245.651 114.52 236.041 120.82C234.171 122.04 235.921 125.07 237.811 123.83Z" fill="#FF5408"/>
<path d="M264.301 141.84C267.481 137.76 271.73 134.6 276.6 132.82C279.07 131.92 281.671 131.33 284.291 131.17C286.831 131.01 289.771 131 292.131 132.07C295.921 133.78 297.261 138.57 296.421 142.38C295.351 147.23 291 150.58 286.59 152.33C280.15 154.89 273.041 154.64 266.251 155.31C266.661 156.31 267.07 157.3 267.49 158.3C267.81 157.92 268.13 157.54 268.44 157.17C269.88 155.46 267.42 152.97 265.97 154.7C265.65 155.08 265.331 155.46 265.021 155.83C264.151 156.86 264.611 158.98 266.261 158.82C273.231 158.13 280.531 158.36 287.181 155.85C292.581 153.81 297.81 149.99 299.57 144.24C301.01 139.52 299.88 133.62 295.96 130.4C291.39 126.64 283.98 127.21 278.59 128.57C272.04 130.22 266 134.04 261.84 139.38C261.26 140.13 261.12 141.12 261.84 141.85C262.43 142.45 263.721 142.58 264.301 141.84Z" fill="#FF5408"/>
<path d="M279.29 130.92C279.56 138.57 279.49 146.22 279.07 153.86C278.95 156.11 282.45 156.1 282.57 153.86C282.99 146.22 283.06 138.57 282.79 130.92C282.71 128.67 279.21 128.66 279.29 130.92Z" fill="#FF5408"/>
<path d="M258.98 176.79C272.25 184.52 284.61 193.7 295.86 204.16C297.51 205.69 299.99 203.22 298.33 201.69C286.88 191.03 274.26 181.65 260.75 173.77C258.79 172.63 257.03 175.66 258.98 176.79Z" fill="#FF5408"/>
<path d="M296.321 173.88C289.901 177.54 284.071 182.25 278.131 186.62C271.981 191.14 265.841 195.65 259.691 200.17C257.891 201.49 259.641 204.53 261.461 203.19C267.611 198.67 273.751 194.16 279.901 189.64C285.851 185.27 291.671 180.57 298.091 176.9C300.041 175.79 298.281 172.76 296.321 173.88Z" fill="#FF5408"/>
<path d="M260.46 230.44C266.31 228.39 272.491 227.56 278.671 228.05C283.961 228.47 290.29 229.66 294.24 233.51C296.11 235.33 297.401 237.85 297.291 240.5C297.181 243.05 295.531 245.17 293.661 246.76C289.531 250.28 283.801 251.75 278.521 252.27C271.351 252.97 264.01 252.4 256.96 251C254.76 250.56 253.821 253.93 256.031 254.37C263.121 255.78 270.461 256.43 277.681 255.84C284.011 255.33 290.491 253.72 295.551 249.71C297.811 247.92 299.76 245.52 300.48 242.68C301.24 239.68 300.55 236.48 298.96 233.86C295.57 228.27 288.85 226.03 282.73 225.05C274.96 223.79 266.961 224.46 259.531 227.07C257.421 227.8 258.33 231.19 260.46 230.44Z" fill="#FF5408"/>
<path d="M273.73 226.59C273.77 235.52 274.22 244.43 275.09 253.32C275.31 255.54 278.81 255.56 278.59 253.32C277.72 244.44 277.27 235.52 277.23 226.59C277.22 224.33 273.72 224.33 273.73 226.59Z" fill="#FF5408"/>
<path d="M256.221 271.99C269.861 280.33 283.501 288.68 297.141 297.02C299.071 298.2 300.831 295.17 298.911 294C285.271 285.66 271.631 277.31 257.991 268.97C256.061 267.79 254.301 270.81 256.221 271.99Z" fill="#FF5408"/>
<path d="M294.771 266.22C282.891 277.3 271.261 288.66 259.911 300.29C258.341 301.9 260.811 304.38 262.381 302.76C273.731 291.13 285.351 279.77 297.241 268.69C298.891 267.16 296.411 264.69 294.771 266.22Z" fill="#FF5408"/>
<path d="M260.641 319.88C266.731 318.61 272.941 318.08 279.161 318.3C284.401 318.49 291.051 318.74 294.651 323.17C298.011 327.31 295.581 332.87 291.921 335.87C287.651 339.38 281.551 340.97 276.231 341.99C269.821 343.22 263.171 343.09 256.991 340.86C254.871 340.09 253.961 343.47 256.061 344.23C262.401 346.52 269.231 346.68 275.831 345.6C281.961 344.59 288.741 342.72 293.731 338.88C298.301 335.35 301.341 329.11 298.871 323.46C296.231 317.42 289.371 315.63 283.401 315.08C275.481 314.34 267.471 314.89 259.701 316.51C257.511 316.96 258.441 320.34 260.641 319.88Z" fill="#FF5408"/>
<path d="M270.551 317.46C270.781 326.1 271.681 334.76 272.301 343.38C272.461 345.61 275.961 345.63 275.801 343.38C275.181 334.76 274.281 326.1 274.051 317.46C273.991 315.21 270.491 315.2 270.551 317.46Z" fill="#FF5408"/>
<path d="M255.94 365.75C262.23 371.37 269.84 375.08 276.62 380.03C280.16 382.62 283.36 385.64 286.78 388.37C290.24 391.13 293.86 393.69 297.63 396.02C299.55 397.21 301.31 394.18 299.4 393C295.76 390.75 292.24 388.3 288.91 385.61C285.5 382.86 282.28 379.88 278.75 377.27C272.14 372.37 264.59 368.79 258.43 363.28C256.74 361.78 254.26 364.24 255.94 365.75Z" fill="#FF5408"/>
<path d="M296.87 364.02C283.55 371.7 270.22 379.38 256.9 387.06C254.95 388.18 256.71 391.21 258.67 390.08C271.99 382.4 285.32 374.72 298.64 367.04C300.58 365.91 298.82 362.89 296.87 364.02Z" fill="#FF5408"/>
<path d="M260.021 411.32C262.761 410.08 265.841 410.01 268.801 410.16C271.921 410.32 275.051 410.66 278.151 411.01C284.221 411.69 290.711 412.68 296.191 415.53C298.261 416.6 300.621 418.23 300.971 420.73C301.351 423.44 299.391 426.15 297.511 427.89C293.481 431.62 287.641 433.07 282.381 433.95C275.141 435.17 267.661 434.88 260.521 433.22C258.331 432.71 257.391 436.09 259.591 436.59C266.921 438.29 274.471 438.61 281.921 437.53C288.171 436.63 294.881 434.89 299.721 430.6C302.071 428.51 303.991 425.63 304.411 422.46C304.811 419.39 303.451 416.57 301.131 414.6C298.631 412.48 295.491 411.24 292.411 410.25C288.961 409.14 285.391 408.45 281.801 407.95C277.791 407.39 273.731 406.97 269.691 406.7C265.771 406.44 261.901 406.64 258.281 408.28C256.201 409.22 257.981 412.24 260.021 411.32Z" fill="#FF5408"/>
<path d="M274.471 409.27C275.321 418.24 275.381 427.27 274.661 436.25C274.481 438.49 277.981 438.48 278.161 436.25C278.891 427.27 278.821 418.24 277.971 409.27C277.761 407.05 274.261 407.03 274.471 409.27Z" fill="#FF5408"/>
<path d="M259.69 460.97C275.25 468.76 289.661 478.72 302.431 490.55C304.081 492.08 306.561 489.61 304.901 488.08C291.921 476.05 277.28 465.87 261.45 457.95C259.45 456.94 257.68 459.96 259.69 460.97Z" fill="#FF5408"/>
<path d="M298.21 457.67C291.12 463.75 283.81 469.55 276.26 475.04C272.52 477.76 268.72 480.41 264.88 482.98C262.96 484.27 261.02 485.53 259.07 486.78C258.1 487.4 257.12 488.02 256.14 488.64C255.62 488.97 255.09 489.29 254.57 489.62C254.31 489.78 254.05 489.94 253.78 490.11C253.25 490.36 253.25 490.43 253.8 490.3C254.15 490.57 254.5 490.84 254.85 491.1C254.83 491.05 254.8 491 254.78 490.95C254.84 491.4 254.9 491.85 254.96 492.3C254.66 492.6 254.36 492.89 254.06 493.19C253.49 493.04 252.93 492.89 252.36 492.74C252.39 492.78 252.42 492.81 252.45 492.85C253.91 494.57 256.37 492.09 254.92 490.38C254.89 490.34 254.86 490.31 254.83 490.27C254.43 489.8 253.69 489.67 253.13 489.82C251.23 490.32 250.98 492.99 252.88 493.68C254.65 494.33 256.7 492.43 258.11 491.55C261.77 489.26 265.38 486.9 268.95 484.47C275.96 479.71 282.79 474.68 289.45 469.43C293.26 466.42 297.01 463.33 300.7 460.17C302.4 458.67 299.91 456.21 298.21 457.67Z" fill="#FF5408"/>
<path d="M259.181 510.68C266.261 509.74 273.521 508.32 280.681 509.26C286.101 509.97 291.67 512.17 295.19 516.52C298.17 520.2 299.24 525.92 297.03 530.24C294.17 535.83 286.54 536.98 280.91 537.43C273.04 538.06 265.16 536.91 257.4 535.71C256.46 535.56 255.53 535.95 255.25 536.93C255.01 537.76 255.54 538.94 256.47 539.08C264.23 540.28 272.1 541.48 279.98 540.99C286.67 540.57 295.01 539.3 299.19 533.42C302.54 528.72 302.27 522.15 299.74 517.16C296.88 511.5 290.88 508.02 284.9 506.52C276.41 504.4 267.681 506.06 259.181 507.18C258.241 507.3 257.441 507.89 257.431 508.93C257.421 509.78 258.241 510.8 259.181 510.68Z" fill="#FF5408"/>
<path d="M273.691 507.5C274.671 517.95 275.111 528.45 275.031 538.95C275.011 541.2 278.511 541.2 278.531 538.95C278.611 528.45 278.161 517.96 277.191 507.5C276.981 505.28 273.481 505.25 273.691 507.5Z" fill="#FF5408"/>
<path d="M257.581 559.51C271.521 572.57 285.921 585.14 300.751 597.18C302.481 598.59 304.971 596.13 303.221 594.71C288.391 582.67 273.991 570.11 260.051 557.04C258.411 555.49 255.931 557.96 257.581 559.51Z" fill="#FF5408"/>
<path d="M299.161 561.27C293.051 567.11 286.431 572.39 279.941 577.8C273.301 583.32 266.671 588.85 260.031 594.37C258.301 595.81 260.781 598.28 262.501 596.84C269.141 591.32 275.771 585.79 282.411 580.27C288.901 574.87 295.521 569.58 301.631 563.74C303.271 562.18 300.791 559.71 299.161 561.27Z" fill="#FF5408"/>
<path d="M259.731 617.46C266.491 618.55 273.251 619.66 280.001 620.82C283.061 621.35 286.201 621.91 288.931 623.47C291.481 624.93 293.541 627.07 295.441 629.27C297.311 631.44 299.161 633.87 299.951 636.67C300.731 639.43 299.941 641.84 297.791 643.7C293.371 647.53 286.981 648.66 281.321 648.82C273.811 649.03 266.371 647.58 258.871 647.5C256.621 647.48 256.621 650.97 258.871 651C272.131 651.14 287.691 655.77 299.311 646.94C301.801 645.05 303.581 642.5 303.771 639.3C303.951 636.14 302.491 633.02 300.771 630.47C297.041 624.91 291.951 620.05 285.341 618.35C281.381 617.33 277.261 616.83 273.231 616.15C269.041 615.45 264.851 614.76 260.651 614.09C259.711 613.94 258.781 614.33 258.501 615.31C258.271 616.14 258.801 617.31 259.731 617.46Z" fill="#FF5408"/>
<path d="M278.05 619.5C278.02 629.27 277.43 639.03 276.26 648.73C276.15 649.68 277.15 650.47 278.01 650.48C279.05 650.49 279.65 649.67 279.76 648.73C280.92 639.03 281.52 629.27 281.55 619.5C281.56 617.25 278.06 617.25 278.05 619.5Z" fill="#FF5408"/>
<path d="M244.42 665.57C258.03 674.29 270.99 683.98 283.17 694.6C284.46 695.72 286.36 698.11 288.3 696.94C290.12 695.85 289.08 693.21 287.14 693.14C286.59 693.12 285.86 693.47 285.63 694.01C285.61 694.05 285.59 694.1 285.57 694.14C285.19 695.01 285.32 696.01 286.2 696.53C286.93 696.97 288.22 696.77 288.59 695.9C288.61 695.86 288.63 695.81 288.65 695.77C288.15 696.06 287.64 696.35 287.14 696.64C286.7 696.35 286.27 696.06 285.83 695.76C285.89 695.31 285.95 694.86 286.01 694.41C285.98 694.45 285.94 694.5 285.91 694.54C286.26 694.27 286.61 694 286.96 693.74C287.67 693.93 287.76 693.85 287.22 693.49C286.99 693.29 286.76 693.08 286.52 692.88C286.17 692.57 285.82 692.27 285.47 691.96C284.65 691.25 283.83 690.54 283.01 689.84C281.36 688.44 279.71 687.05 278.03 685.67C274.63 682.88 271.17 680.16 267.66 677.5C260.7 672.23 253.53 667.24 246.18 662.53C244.29 661.33 242.53 664.36 244.42 665.57Z" fill="#FF5408"/>
<path d="M271.461 661.79C264.071 675.73 255.501 689.05 245.811 701.51C245.231 702.26 245.091 703.25 245.811 703.98C246.411 704.59 247.711 704.72 248.281 703.98C258.161 691.28 266.941 677.77 274.481 663.55C275.531 661.56 272.511 659.79 271.461 661.79Z" fill="#FF5408"/>
<path d="M193.341 658.65C193.241 666.51 193.791 674.36 194.961 682.14C195.931 688.57 197.201 695.92 202.821 700.02C205.151 701.72 208.121 702.71 211.021 702.37C214.071 702.01 216.511 700.19 218.191 697.67C219.931 695.06 220.801 691.88 221.551 688.87C222.441 685.27 223.031 681.58 223.351 677.89C223.701 673.73 223.671 669.53 223.241 665.38C223.041 663.38 222.751 661.38 222.381 659.41C222.051 657.67 221.691 655.77 219.741 655.23C217.571 654.62 216.641 658 218.811 658.6C218.441 658.5 218.711 658.62 218.731 658.97C218.751 659.26 218.861 659.59 218.911 659.88C219.061 660.64 219.191 661.4 219.311 662.16C219.581 663.84 219.761 665.53 219.891 667.22C220.131 670.46 220.141 673.72 219.911 676.96C219.691 680.12 219.231 683.26 218.541 686.36C217.941 689.04 217.291 691.86 216.071 694.34C215.011 696.48 213.391 698.48 210.891 698.89C208.581 699.27 206.141 698.29 204.371 696.84C199.981 693.24 199.181 686.71 198.371 681.47C197.221 673.93 196.741 666.29 196.841 658.67C196.871 656.39 193.371 656.39 193.341 658.65Z" fill="#FF5408"/>
<path d="M197.24 681.6C205.35 682.36 213.49 682.74 221.63 682.74C223.88 682.74 223.89 679.24 221.63 679.24C213.48 679.24 205.35 678.86 197.24 678.1C195 677.89 195.02 681.39 197.24 681.6Z" fill="#FF5408"/>
<path d="M153.67 657.63C163.67 669.78 173.22 682.29 182.3 695.14C183.59 696.96 186.63 695.22 185.32 693.37C176.06 680.28 166.33 667.53 156.14 655.16C154.71 653.41 152.25 655.9 153.67 657.63Z" fill="#FF5408"/>
<path d="M175.091 653.42C165.891 667.78 157.711 682.77 150.611 698.27C149.681 700.3 152.691 702.08 153.631 700.04C160.731 684.54 168.911 669.54 178.111 655.19C179.331 653.29 176.301 651.53 175.091 653.42Z" fill="#FF5408"/>
<path d="M103.691 674.71C107.171 680.57 111.441 685.96 116.371 690.66C118.841 693.01 121.481 695.19 124.251 697.19C126.921 699.11 129.911 701.4 133.151 702.19C136.531 703.01 139.781 701.66 141.521 698.64C143.291 695.56 142.971 691.92 141.891 688.66C139.621 681.79 136.071 675.13 132.351 668.96C130.201 665.39 127.861 661.93 125.351 658.6C124.401 657.34 123.081 654.74 121.111 655.28C119.071 655.85 119.301 658.47 121.081 659.15C123.191 659.95 124.101 656.56 122.011 655.78C121.961 655.76 121.921 655.74 121.871 655.73C122.281 656.14 122.681 656.54 123.091 656.95C123.101 657.15 123.101 657.34 123.111 657.54C122.841 657.89 122.571 658.24 122.311 658.59C122.361 658.56 122.411 658.52 122.461 658.49C122.011 658.55 121.561 658.61 121.111 658.67C120.721 658.61 121.421 659.18 121.521 659.31C121.701 659.55 121.881 659.78 122.061 660.02C122.511 660.61 122.961 661.21 123.391 661.81C124.311 663.07 125.211 664.35 126.081 665.65C127.781 668.18 129.391 670.78 130.901 673.43C133.811 678.55 136.661 683.99 138.511 689.6C139.341 692.11 139.841 695.02 138.211 697.33C136.411 699.87 133.471 698.88 131.201 697.58C126.481 694.89 122.141 691.42 118.261 687.63C113.771 683.26 109.911 678.33 106.711 672.95C105.571 671 102.541 672.76 103.691 674.71Z" fill="#FF5408"/>
<path d="M119.29 688.86C123.54 684.7 127.93 680.69 132.44 676.82C133.05 676.3 133.05 675.35 132.71 674.7C132.28 673.87 131.5 673.28 130.61 673.05C128.43 672.47 127.5 675.85 129.68 676.42C129.96 676.49 129.72 676.48 129.71 676.41C129.71 676.43 129.46 676.01 129.69 676.46C129.78 675.75 129.87 675.05 129.96 674.34C125.45 678.21 121.06 682.23 116.81 686.38C115.2 687.96 117.68 690.44 119.29 688.86Z" fill="#FF5408"/>
<path d="M114.87 718.98C122.73 732.55 137.95 738.92 148.19 750.28C149.7 751.96 152.17 749.48 150.66 747.81C140.65 736.71 125.55 730.45 117.89 717.22C116.76 715.27 113.74 717.03 114.87 718.98Z" fill="#FF5408"/>
<path d="M142.08 721.67C132.54 728.03 122.8 734.1 112.89 739.87C110.95 741 112.7 744.03 114.66 742.89C124.57 737.12 134.3 731.05 143.85 724.69C145.71 723.45 143.96 720.41 142.08 721.67Z" fill="#FF5408"/>
<path d="M114.67 758.57C124.36 756.86 134.84 760.47 141.28 767.94C144.44 771.59 146.54 776.8 144.52 781.52C143.51 783.89 141.49 785.35 139.21 786.41C136.63 787.61 133.84 788.47 131.1 789.24C124.62 791.07 117.94 792 111.21 792.04C108.96 792.05 108.95 795.55 111.21 795.54C118 795.5 124.8 794.59 131.35 792.8C134.49 791.94 137.62 790.92 140.59 789.6C143.29 788.39 145.77 786.61 147.2 783.95C153.18 772.84 142.08 761.49 132.55 757.4C126.61 754.85 120.1 754.08 113.73 755.2C111.52 755.59 112.46 758.96 114.67 758.57Z" fill="#FF5408"/>
<path d="M122.971 758.32C123.851 769.34 123.701 780.41 122.521 791.39C123.671 791.23 124.811 791.08 125.961 790.92C125.741 790.31 125.511 789.7 125.291 789.09C124.521 786.99 121.141 787.9 121.921 790.02C122.141 790.63 122.371 791.24 122.591 791.85C123.291 793.75 125.811 793.36 126.031 791.38C127.211 780.39 127.361 769.32 126.481 758.31C126.291 756.09 122.791 756.07 122.971 758.32Z" fill="#FF5408"/>
<path d="M75.1706 752.68C82.6306 767.17 89.6505 781.88 96.2305 796.78C97.1405 798.84 100.151 797.06 99.2505 795.01C92.6705 780.1 85.6405 765.4 78.1905 750.91C77.1605 748.91 74.1406 750.68 75.1706 752.68Z" fill="#FF5408"/>
<path d="M95.2405 752.5C88.7605 768.27 81.7506 784.32 70.0606 797.01C68.5406 798.66 71.0006 801.14 72.5306 799.48C84.6506 786.32 91.8905 769.78 98.6105 753.42C98.9705 752.54 98.2206 751.51 97.3906 751.27C96.3906 750.99 95.6005 751.63 95.2405 752.5Z" fill="#FF5408"/>
<path d="M16.3703 759.29C17.2003 767.93 19.1103 776.44 22.1503 784.57C23.6403 788.56 25.3803 792.46 27.3703 796.22C29.3003 799.88 31.3804 803.82 34.5604 806.55C37.5504 809.12 41.7403 810.68 45.6303 809.31C49.0903 808.09 51.6303 805.16 53.2403 801.94C57.0903 794.21 56.9603 784.88 57.0003 776.45C57.0203 771.4 56.8103 766.34 56.1703 761.33C55.8403 758.75 55.4203 756.19 54.8503 753.65C54.3703 751.51 54.0503 748.81 51.4103 748.56C49.1703 748.35 49.1803 751.85 51.4103 752.06C50.7403 752 50.7903 751.73 50.9903 752.52C51.1103 752.98 51.2203 753.44 51.3303 753.9C51.5603 754.9 51.7703 755.9 51.9603 756.9C52.3403 758.91 52.6403 760.94 52.8703 762.97C53.3103 766.97 53.4903 771 53.5103 775.03C53.5303 778.98 53.4203 782.94 53.1703 786.89C52.9303 790.59 52.4603 794.29 51.2303 797.8C50.2003 800.72 48.5303 803.82 45.7703 805.43C42.7403 807.21 39.1803 806.03 36.7303 803.8C34.0003 801.31 32.2203 797.88 30.5103 794.66C28.7203 791.3 27.1403 787.83 25.7803 784.27C22.7203 776.25 20.7103 767.83 19.8903 759.29C19.6503 757.07 16.1503 757.05 16.3703 759.29Z" fill="#FF5408"/>
<path d="M24.7104 787.18C34.9904 786.74 45.4005 784.83 54.6505 780.21C55.3005 779.88 55.6904 778.93 55.4504 778.23C55.2704 777.71 55.1005 777.19 54.9205 776.68C54.2005 774.56 50.8205 775.47 51.5505 777.61C51.7305 778.13 51.9004 778.65 52.0804 779.16C52.3504 778.5 52.6204 777.84 52.8804 777.18C44.2004 781.51 34.3404 783.25 24.7004 783.67C22.4704 783.78 22.4604 787.28 24.7104 787.18Z" fill="#FF5408"/>
<path d="M15.4103 817.86C29.1303 825.21 41.1403 835.31 54.8403 842.68C55.8203 843.2 56.8004 843.72 57.7904 844.21C58.6104 844.62 59.6004 845.3 60.5504 845.25C61.4504 845.21 62.2803 844.62 62.4803 843.72C62.7303 842.57 62.0203 841.79 61.0303 841.38C60.4903 841.15 59.7103 841.42 59.3303 841.83C59.3003 841.86 59.2703 841.89 59.2503 841.92C57.7203 843.57 60.1903 846.05 61.7203 844.39C61.7503 844.36 61.7804 844.33 61.8004 844.3C61.2304 844.45 60.6703 844.6 60.1003 844.75C60.1403 844.77 60.1903 844.79 60.2303 844.81C59.8803 844.54 59.5304 844.27 59.1804 844.01C59.2104 844.06 59.2403 844.1 59.2803 844.15C59.2203 843.7 59.1603 843.25 59.1003 842.8C59.0903 842.85 59.0803 842.9 59.0703 842.95C59.3403 842.6 59.6103 842.25 59.8703 841.9C60.6703 841.82 60.7603 841.68 60.1503 841.49C59.8803 841.36 59.6203 841.23 59.3503 841.1C58.8203 840.84 58.3003 840.57 57.7703 840.29C56.8503 839.81 55.9404 839.32 55.0404 838.82C53.2304 837.81 51.4503 836.76 49.6903 835.67C46.0403 833.42 42.4704 831.03 38.9204 828.62C31.8104 823.8 24.7403 818.91 17.1603 814.85C15.1903 813.77 13.4203 816.79 15.4103 817.86Z" fill="#FF5408"/>
<path d="M56.0206 812.69C49.3506 819.84 42.1706 826.52 34.5406 832.64C27.7106 838.11 19.5006 842.76 14.9906 850.52C13.8606 852.47 16.8806 854.23 18.0106 852.29C20.1806 848.55 23.3706 845.63 26.7406 842.97C30.2506 840.21 33.8906 837.63 37.3706 834.83C44.8706 828.79 51.9306 822.21 58.4906 815.17C60.0306 813.52 57.5606 811.04 56.0206 812.69Z" fill="#FF5408"/>
<path d="M17.7005 870.77C24.6605 869.24 31.8205 869 38.8905 869.75C42.4305 870.13 45.9505 870.78 49.4105 871.64C52.6305 872.44 56.0605 873.27 59.0205 874.81C61.4605 876.09 64.0506 878.44 63.7906 881.48C63.5406 884.36 60.5205 886.13 58.2705 887.39C52.5805 890.57 46.0805 892.15 39.6205 892.71C31.2205 893.44 22.7806 892.59 14.4206 891.76C12.1806 891.54 12.2006 895.04 14.4206 895.26C29.7806 896.8 46.4605 898.22 60.4105 890.2C63.1605 888.62 65.9405 886.56 66.9505 883.41C67.9905 880.18 66.5806 876.64 64.2906 874.31C61.7506 871.74 58.2005 870.53 54.8305 869.5C51.0505 868.34 47.1906 867.44 43.2906 866.82C34.4805 865.43 25.5205 865.47 16.7906 867.38C14.5806 867.88 15.5105 871.26 17.7005 870.77Z" fill="#FF5408"/>
<path d="M34.2505 867.86C33.8505 872.1 34.5905 876.41 35.0305 880.62C35.4805 884.92 35.9305 889.22 36.3805 893.53C37.4705 893.24 38.5505 892.94 39.6405 892.65C39.4605 892.28 39.2904 891.91 39.1104 891.54C38.1504 889.51 35.1304 891.28 36.0904 893.31C36.2704 893.68 36.4405 894.05 36.6205 894.42C37.3405 895.95 40.0605 895.25 39.8805 893.54C39.4305 889.24 38.9805 884.94 38.5305 880.63C38.0905 876.42 37.3505 872.11 37.7505 867.87C37.9605 865.62 34.4605 865.64 34.2505 867.86Z" fill="#FF5408"/>
</svg>
