<svg width="838" height="756" viewBox="0 0 838 756" fill="none" xmlns="http://www.w3.org/2000/svg">
<path d="M837.16 303.13V459.84C837.16 469.74 829.14 477.76 819.24 477.76H766.39C756.49 477.76 748.47 469.74 748.47 459.84V303.13C748.47 293.23 756.49 285.21 766.39 285.21H819.24C829.13 285.21 837.16 293.23 837.16 303.13Z" fill="#FF5408"/>
<path d="M819.24 518.6H488.66C478.76 518.6 470.74 510.58 470.74 500.68V444.33C470.74 434.43 478.76 426.41 488.66 426.41H819.24C829.14 426.41 837.16 434.43 837.16 444.33V500.68C837.16 510.58 829.13 518.6 819.24 518.6Z" fill="#FF5408"/>
<path d="M436.89 500.68V18.39C436.89 8.49002 444.91 0.469971 454.81 0.469971H507.66C517.56 0.469971 525.58 8.49002 525.58 18.39V500.68C525.58 510.58 517.56 518.6 507.66 518.6H454.81C444.92 518.6 436.89 510.58 436.89 500.68Z" fill="#FF5408"/>
<path d="M230.35 737.57V18.4C230.35 8.50002 238.37 0.47998 248.27 0.47998H301.12C311.02 0.47998 319.04 8.50002 319.04 18.4V737.57C319.04 747.47 311.02 755.49 301.12 755.49H248.27C238.37 755.49 230.35 747.46 230.35 737.57Z" fill="#FF5408"/>
<path d="M0.459961 734.07V577.36C0.459961 567.46 8.47994 559.44 18.3799 559.44H71.2299C81.1299 559.44 89.15 567.46 89.15 577.36V734.07C89.15 743.97 81.1299 751.99 71.2299 751.99H18.3799C8.47994 751.98 0.459961 743.96 0.459961 734.07Z" fill="#FF5408"/>
<path d="M496 89.16H269.27C259.37 89.16 251.35 81.14 251.35 71.24V18.39C251.35 8.49002 259.37 0.469971 269.27 0.469971H496C505.9 0.469971 513.92 8.49002 513.92 18.39V71.24C513.91 81.14 505.89 89.16 496 89.16Z" fill="#FF5408"/>
<path d="M301.12 755.49H18.3799C8.47994 755.49 0.459961 747.47 0.459961 737.57V684.72C0.459961 674.82 8.47994 666.8 18.3799 666.8H301.12C311.02 666.8 319.04 674.82 319.04 684.72V737.57C319.03 747.46 311.01 755.49 301.12 755.49Z" fill="#FF5408"/>
<path d="M493.96 146.66C481.15 149.27 468.49 152.58 456.04 156.56C453.9 157.24 454.82 160.63 456.97 159.94C469.42 155.96 482.08 152.65 494.89 150.04C497.1 149.58 496.16 146.21 493.96 146.66Z" fill="#7116A0"/>
<path d="M491.71 164.35C485.57 160.67 480.03 156.12 475.23 150.81C470.7 145.8 466.59 140.34 460.79 136.7C458.88 135.5 457.12 138.53 459.02 139.72C464.78 143.33 468.77 148.97 473.31 153.9C478.17 159.16 483.8 163.7 489.94 167.38C491.88 168.54 493.65 165.51 491.71 164.35Z" fill="#7116A0"/>
<path d="M460.2 177.8C470.44 179.23 482.76 177.62 491.21 184.83C492.91 186.28 494.35 188.02 495.26 190.07C495.61 190.86 496.23 192.2 495.91 193.07C495.54 194.06 493.95 194.73 493.06 195.14C488.58 197.22 483.19 196.5 478.51 195.61C471.8 194.34 465.13 192.8 458.44 191.38C456.24 190.91 455.3 194.29 457.51 194.76C464.19 196.18 470.86 197.72 477.58 198.99C483.14 200.04 489.15 200.7 494.48 198.32C496.97 197.21 499.57 195.43 499.47 192.39C499.39 189.85 497.96 187.24 496.45 185.27C493.28 181.12 488.48 178.45 483.52 177.03C476.25 174.94 468.57 175.45 461.15 174.41C460.21 174.28 459.28 174.64 459 175.63C458.74 176.46 459.26 177.67 460.2 177.8Z" fill="#7116A0"/>
<path d="M473.55 179.62C472.37 184.62 473.4 189.83 473.99 194.84C474.1 195.78 474.71 196.59 475.74 196.59C476.6 196.59 477.6 195.78 477.49 194.84C477.2 192.39 476.86 189.94 476.65 187.49C476.45 185.18 476.39 182.83 476.93 180.56C477.44 178.36 474.07 177.42 473.55 179.62Z" fill="#7116A0"/>
<path d="M495.13 216.67C482.32 219.28 469.66 222.59 457.21 226.57C455.07 227.25 455.99 230.64 458.14 229.95C470.59 225.97 483.25 222.66 496.06 220.05C498.26 219.6 497.33 216.22 495.13 216.67Z" fill="#7116A0"/>
<path d="M492.88 234.37C486.74 230.69 481.2 226.14 476.4 220.83C471.87 215.82 467.76 210.36 461.96 206.72C460.05 205.52 458.29 208.55 460.19 209.74C465.95 213.35 469.94 218.99 474.48 223.92C479.34 229.18 484.97 233.72 491.11 237.4C493.05 238.55 494.81 235.53 492.88 234.37Z" fill="#7116A0"/>
<path d="M461.36 247.81C471.6 249.24 483.92 247.63 492.37 254.84C494.07 256.29 495.51 258.03 496.42 260.08C496.77 260.87 497.39 262.21 497.07 263.08C496.7 264.07 495.11 264.74 494.22 265.15C489.74 267.23 484.35 266.51 479.67 265.62C472.96 264.35 466.29 262.81 459.6 261.39C457.4 260.92 456.46 264.3 458.67 264.77C465.35 266.19 472.02 267.73 478.74 269C484.3 270.05 490.31 270.71 495.64 268.33C498.13 267.22 500.73 265.44 500.63 262.4C500.55 259.86 499.12 257.25 497.61 255.28C494.44 251.13 489.64 248.46 484.68 247.04C477.41 244.95 469.73 245.46 462.31 244.42C461.37 244.29 460.44 244.65 460.16 245.64C459.91 246.48 460.43 247.68 461.36 247.81Z" fill="#7116A0"/>
<path d="M474.72 249.63C473.54 254.63 474.57 259.84 475.16 264.85C475.27 265.79 475.88 266.6 476.91 266.6C477.77 266.6 478.77 265.79 478.66 264.85C478.37 262.4 478.03 259.95 477.82 257.5C477.62 255.19 477.56 252.84 478.1 250.57C478.61 248.37 475.23 247.44 474.72 249.63Z" fill="#7116A0"/>
<path d="M496.29 285.52C483.48 288.13 470.82 291.44 458.37 295.42C456.23 296.1 457.15 299.49 459.3 298.8C471.75 294.82 484.41 291.51 497.22 288.9C499.43 288.45 498.5 285.07 496.29 285.52Z" fill="#7116A0"/>
<path d="M494.05 303.22C487.91 299.54 482.37 294.99 477.57 289.68C473.04 284.67 468.93 279.21 463.13 275.57C461.22 274.37 459.46 277.4 461.36 278.59C467.12 282.2 471.11 287.84 475.65 292.77C480.51 298.03 486.14 302.57 492.28 306.25C494.22 307.4 495.98 304.38 494.05 303.22Z" fill="#7116A0"/>
<path d="M462.53 316.66C472.77 318.09 485.09 316.48 493.54 323.69C495.24 325.14 496.68 326.88 497.59 328.93C497.94 329.72 498.56 331.06 498.24 331.93C497.87 332.92 496.28 333.59 495.39 334C490.91 336.08 485.52 335.36 480.84 334.47C474.13 333.2 467.46 331.66 460.77 330.24C458.57 329.77 457.63 333.15 459.84 333.62C466.52 335.04 473.19 336.58 479.91 337.85C485.47 338.9 491.48 339.56 496.81 337.18C499.3 336.07 501.9 334.29 501.8 331.25C501.72 328.71 500.29 326.1 498.78 324.13C495.61 319.98 490.81 317.31 485.85 315.89C478.58 313.8 470.9 314.31 463.48 313.27C462.54 313.14 461.61 313.5 461.33 314.49C461.07 315.33 461.6 316.53 462.53 316.66Z" fill="#7116A0"/>
<path d="M475.88 318.48C474.7 323.48 475.73 328.69 476.32 333.7C476.43 334.64 477.04 335.45 478.07 335.45C478.93 335.45 479.93 334.64 479.82 333.7C479.53 331.25 479.19 328.8 478.98 326.35C478.78 324.04 478.72 321.69 479.26 319.42C479.78 317.22 476.4 316.29 475.88 318.48Z" fill="#7116A0"/>
<path d="M498.63 357.87C485.82 360.48 473.16 363.79 460.71 367.77C458.57 368.45 459.49 371.84 461.64 371.15C474.09 367.17 486.75 363.86 499.56 361.25C501.76 360.8 500.83 357.42 498.63 357.87Z" fill="#7116A0"/>
<path d="M496.38 375.57C490.24 371.89 484.7 367.34 479.9 362.03C475.37 357.02 471.26 351.56 465.46 347.92C463.55 346.72 461.79 349.75 463.69 350.94C469.45 354.55 473.44 360.19 477.98 365.12C482.84 370.38 488.47 374.92 494.61 378.6C496.55 379.75 498.31 376.73 496.38 375.57Z" fill="#7116A0"/>
<path d="M464.87 389.01C475.11 390.44 487.43 388.83 495.88 396.04C497.58 397.49 499.02 399.23 499.93 401.28C500.28 402.07 500.9 403.41 500.58 404.28C500.21 405.27 498.62 405.94 497.73 406.35C493.25 408.43 487.86 407.71 483.18 406.82C476.47 405.55 469.8 404.01 463.11 402.59C460.91 402.12 459.97 405.5 462.18 405.97C468.86 407.39 475.53 408.93 482.25 410.2C487.81 411.25 493.82 411.91 499.15 409.53C501.64 408.42 504.24 406.64 504.14 403.6C504.06 401.06 502.63 398.45 501.12 396.48C497.95 392.33 493.15 389.66 488.19 388.24C480.92 386.15 473.24 386.66 465.82 385.62C464.88 385.49 463.95 385.85 463.67 386.84C463.41 387.68 463.93 388.88 464.87 389.01Z" fill="#7116A0"/>
<path d="M478.22 390.83C477.04 395.83 478.07 401.04 478.66 406.05C478.77 406.99 479.38 407.8 480.41 407.8C481.27 407.8 482.27 406.99 482.16 406.05C481.87 403.6 481.53 401.15 481.32 398.7C481.12 396.39 481.06 394.04 481.6 391.77C482.11 389.57 478.73 388.64 478.22 390.83Z" fill="#7116A0"/>
<path d="M31.1999 576.51C40.1999 587.78 48.7999 599.35 57.0099 611.2C57.9099 612.5 60.4199 612.2 60.2699 610.32C60.2199 609.63 60.1599 608.94 60.1099 608.25C59.9399 606.02 56.4299 606 56.6099 608.25C56.6599 608.94 56.7199 609.63 56.7699 610.32C57.8599 610.03 58.9399 609.73 60.0299 609.44C51.6499 597.34 42.8499 585.54 33.6699 574.04C33.0799 573.3 31.8199 573.43 31.1899 574.04C30.4699 574.76 30.6199 575.77 31.1999 576.51Z" fill="#7116A0"/>
<path d="M54.4398 575.03C51.9498 582.13 47.1498 588.01 41.9398 593.31C39.2698 596.03 36.4698 598.62 33.6998 601.23C32.2898 602.56 30.8797 603.9 29.4997 605.26C28.8597 605.89 28.2197 606.53 27.5997 607.17C27.2397 607.54 26.8897 607.91 26.5397 608.28C26.3597 608.47 26.1898 608.65 26.0198 608.84C25.6498 609.14 25.6698 609.2 26.0698 609.04C26.4798 609.21 26.8997 609.38 27.3097 609.55C27.2597 609.51 27.2197 609.46 27.1697 609.42C27.3397 609.83 27.5097 610.25 27.6797 610.66C27.5697 610.91 27.4498 611.16 27.3398 611.41C26.7698 611.56 26.1998 611.71 25.6398 611.86C25.6898 611.88 25.7397 611.9 25.7897 611.92C27.9097 612.7 28.8197 609.32 26.7197 608.54C24.7497 607.81 23.4398 610.49 24.6898 611.89C26.3398 613.74 28.2797 611.52 29.4097 610.34C31.9497 607.68 34.6297 605.16 37.3097 602.64C42.5797 597.68 47.8797 592.7 52.1197 586.8C54.5197 583.46 56.4598 579.84 57.8198 575.96C58.5598 573.83 55.1798 572.92 54.4398 575.03Z" fill="#7116A0"/>
<path d="M32.6998 661.1C31.5398 655.62 31.2997 649.97 31.9897 644.41C32.3397 641.6 32.9597 638.81 33.7897 636.11C34.3997 634.16 35.1798 632.16 36.4598 630.54C39.6498 626.51 44.9697 627.71 48.3097 630.92C51.6997 634.17 53.2197 638.87 53.4897 643.46C53.8797 650.05 52.3898 656.69 51.3898 663.17C51.2398 664.11 51.6297 665.04 52.6097 665.32C53.4397 665.56 54.6198 665.03 54.7598 664.1C56.5298 652.68 60.2697 638.21 51.1597 628.82C47.3597 624.91 40.8497 622.63 36.0397 626.12C31.5997 629.34 30.0498 635.42 29.0698 640.52C27.7098 647.64 27.7997 654.93 29.2997 662.01C29.7897 664.23 33.1598 663.3 32.6998 661.1Z" fill="#7116A0"/>
<path d="M30.5999 646.13C28.0799 646.3 27.55 649.5 29.71 650.67C30.78 651.25 32.21 651.15 33.39 651.25C34.84 651.37 36.2899 651.49 37.7399 651.6C43.3699 652.06 49.01 652.52 54.64 652.98C56.89 653.16 56.87 649.66 54.64 649.48C50.7 649.16 46.7499 648.84 42.8099 648.52C40.8799 648.36 38.95 648.21 37.02 648.05C36.05 647.97 35.0899 647.89 34.1199 647.81C33.6399 647.77 33.1499 647.73 32.6699 647.69C32.4299 647.67 32.19 647.65 31.95 647.63C30.95 647.39 30.5099 648.06 30.6099 649.63C32.8299 649.48 32.8499 645.98 30.5999 646.13Z" fill="#7116A0"/>
<path d="M39.2896 684.33C41.3796 699.5 42.2996 714.83 42.0996 730.14C42.0696 732.09 45.0696 732.54 45.5396 730.61C45.6896 729.98 45.8497 729.35 45.9997 728.72C46.5297 726.53 43.1597 725.6 42.6197 727.79C42.4697 728.42 42.3096 729.05 42.1596 729.68C43.3096 729.84 44.4496 729.99 45.5996 730.15C45.7996 714.51 44.7996 698.9 42.6596 683.41C42.5296 682.47 41.3297 681.97 40.5097 682.19C39.4997 682.44 39.1596 683.39 39.2896 684.33Z" fill="#7116A0"/>
<path d="M57.0099 689.46C44.8799 699.57 32.4399 709.31 19.6999 718.65C17.8999 719.97 19.6498 723.01 21.4698 721.67C34.4498 712.16 47.1299 702.24 59.4899 691.94C61.2199 690.49 58.7299 688.03 57.0099 689.46Z" fill="#7116A0"/>
<path d="M79.4999 731.66C79.3599 725.75 79.6499 719.81 80.4699 713.95C81.1199 709.32 81.9699 704.34 84.7999 700.48C85.9099 698.97 87.7799 696.92 89.8699 697.23C91.7899 697.52 93.1599 699.47 93.9899 701.05C96.3699 705.59 96.5399 711.26 96.4199 716.26C96.2799 722.37 95.4999 728.46 95.8099 734.58C96.9599 734.42 98.0999 734.27 99.2499 734.11C99.1099 733.71 98.98 733.31 98.84 732.91C98.12 730.79 94.74 731.7 95.46 733.84C95.6 734.24 95.7299 734.64 95.8699 735.04C96.4699 736.82 99.4099 736.65 99.3099 734.57C98.9999 728.38 99.7999 722.21 99.9299 716.03C100.05 710.41 99.6699 704.16 96.9299 699.11C95.7499 696.94 93.96 694.92 91.59 694.07C89 693.14 86.42 694.1 84.4 695.8C80.35 699.21 78.59 704.57 77.65 709.6C76.3 716.84 75.8299 724.28 76.0099 731.63C76.0499 733.91 79.5499 733.92 79.4999 731.66Z" fill="#7116A0"/>
<path d="M79.3401 719.03C85.2601 720.76 91.3901 721.73 97.5601 721.96C99.8101 722.04 99.8101 718.54 97.5601 718.46C91.6901 718.25 85.9101 717.3 80.2701 715.66C78.1001 715.03 77.1801 718.4 79.3401 719.03Z" fill="#7116A0"/>
<path d="M117.52 697.37C126.63 707.44 129.27 721.43 136.16 732.87C136.78 733.9 138.62 734.11 139.18 732.87C139.75 731.62 139.62 730.5 138.73 729.44C137.28 727.71 134.81 730.2 136.25 731.92C136.22 731.65 136.19 731.38 136.15 731.1C137.16 731.1 138.17 731.1 139.17 731.1C132.1 719.36 129.35 705.25 119.98 694.9C118.48 693.22 116.01 695.7 117.52 697.37Z" fill="#7116A0"/>
<path d="M135.37 695.16C129.65 708.05 123.93 720.95 118.22 733.84C117.31 735.88 120.33 737.66 121.24 735.61C126.96 722.72 132.68 709.82 138.39 696.93C139.3 694.88 136.28 693.1 135.37 695.16Z" fill="#7116A0"/>
<path d="M158.99 731.67C158.56 726.33 158.49 720.96 158.82 715.6C158.99 712.84 159.25 710.08 159.63 707.34C159.93 705.16 160.28 702.85 161.29 700.88C162.2 699.1 163.72 697.56 165.76 697.2C167.87 696.83 169.4 698.37 170.51 699.97C173.19 703.83 174.61 708.46 175.13 713.11C175.8 719.16 175.15 725.25 174.52 731.28C175.69 731.28 176.85 731.28 178.02 731.28C177.95 730.72 177.89 730.17 177.82 729.61C177.71 728.66 177.09 727.87 176.07 727.86C175.21 727.85 174.21 728.67 174.32 729.61C174.39 730.17 174.45 730.72 174.52 731.28C174.78 733.52 177.78 733.54 178.02 731.28C179.2 720.08 180.28 707.34 173.18 697.71C171.7 695.7 169.82 694 167.24 693.71C164.86 693.43 162.56 694.41 160.76 695.92C156.6 699.42 156.24 705.76 155.72 710.76C154.99 717.71 154.93 724.72 155.49 731.68C155.67 733.9 159.17 733.92 158.99 731.67Z" fill="#7116A0"/>
<path d="M157.62 719.09C163.77 719.36 169.91 719.63 176.06 719.9C175.48 719.32 174.89 718.73 174.31 718.15C174.36 718.6 174.51 718.07 174.24 718.44C173.68 719.2 174.11 720.39 174.87 720.83C175.76 721.35 176.7 720.96 177.26 720.2C177.69 719.62 177.89 718.87 177.81 718.15C177.69 717.18 177.1 716.45 176.06 716.4C169.91 716.13 163.77 715.86 157.62 715.59C155.37 715.49 155.37 718.99 157.62 719.09Z" fill="#7116A0"/>
<path d="M191.81 694.91C194.43 701.28 199.28 706.48 203.11 712.14C207.06 717.99 210.63 724.09 213.81 730.39C214.83 732.4 217.85 730.63 216.83 728.62C213.72 722.46 210.24 716.49 206.39 710.76C204.52 707.98 202.55 705.28 200.54 702.6C198.52 699.9 196.47 697.13 195.18 693.99C194.82 693.11 194.02 692.51 193.03 692.77C192.2 692.98 191.45 694.04 191.81 694.91Z" fill="#7116A0"/>
<path d="M211.2 695.68C209.01 701.92 205.8 707.71 202.65 713.49C201.09 716.36 199.53 719.23 198.1 722.17C197.41 723.6 196.75 725.05 196.13 726.52C195.49 728.05 195.07 729.82 194.29 731.27C194.64 731 194.99 730.73 195.34 730.47C195.26 730.5 195.17 730.53 195.09 730.56C195.75 730.83 196.41 731.1 197.07 731.36C197.05 731.32 197.04 731.28 197.02 731.25C196.93 731.96 196.84 732.66 196.75 733.37C196.78 733.33 196.82 733.29 196.85 733.25C196.02 733.25 195.2 733.25 194.37 733.25C194.39 733.27 194.41 733.29 194.43 733.31C196.04 734.89 198.52 732.41 196.91 730.83C196.89 730.81 196.87 730.79 196.85 730.77C196.2 730.14 195.01 730.05 194.37 730.77C194.34 730.81 194.3 730.85 194.27 730.89C193.7 731.53 193.65 732.26 194 733.01C194.02 733.05 194.03 733.09 194.05 733.12C194.34 733.77 195.36 734.17 196.03 733.92C197.74 733.28 197.95 731.41 198.54 729.87C199.16 728.25 199.85 726.67 200.59 725.1C202.1 721.88 203.79 718.75 205.49 715.62C208.86 709.44 212.27 703.25 214.6 696.59C215.32 694.48 211.94 693.56 211.2 695.68Z" fill="#7116A0"/>
<path d="M232.77 729.96C232.24 725.02 231.9 720.07 231.76 715.11C231.63 710.44 231.71 705.66 233.38 701.23C233.99 699.61 234.89 697.63 236.84 697.44C238.65 697.26 240.33 698.4 241.37 699.78C242.66 701.48 243.32 703.58 243.95 705.58C244.68 707.91 245.31 710.26 245.83 712.65C247.03 718.12 247.61 723.68 247.65 729.28C247.66 731.53 251.17 731.54 251.15 729.28C251.11 723.62 250.52 717.96 249.35 712.41C248.77 709.64 248.04 706.9 247.17 704.2C246.41 701.83 245.53 699.45 243.98 697.47C241.25 694 235.65 692.34 232.34 696.05C228.96 699.84 228.36 705.99 228.23 710.84C228.06 717.21 228.59 723.64 229.26 729.96C229.36 730.91 229.99 731.7 231.01 731.71C231.88 731.71 232.87 730.89 232.77 729.96Z" fill="#7116A0"/>
<path d="M231.39 723.35C234.62 722.93 237.84 722.46 241.05 721.9C242.6 721.63 244.15 721.34 245.7 721.04C247.19 720.75 248.63 720.44 249.16 718.82C249.86 716.67 246.48 715.75 245.78 717.89C245.97 717.31 246.48 717.31 245.94 717.43C245.65 717.49 245.36 717.55 245.07 717.61C244.4 717.74 243.73 717.87 243.06 718C241.77 718.24 240.48 718.48 239.18 718.69C236.59 719.13 233.99 719.52 231.38 719.86C230.44 719.98 229.63 720.58 229.63 721.61C229.64 722.45 230.45 723.47 231.39 723.35Z" fill="#7116A0"/>
<path d="M255.59 697.18C257.4 697.12 258.88 698.14 260.28 699.17C261.78 700.28 263.22 701.47 264.66 702.66C267.61 705.11 270.47 707.67 273.39 710.15C276.25 712.58 279.16 714.96 282.23 717.12C283.75 718.19 285.31 719.28 286.95 720.16C288.56 721.03 290.87 720.27 290.26 718.08C290.1 717.5 289.63 717.01 289.04 716.86C289 716.85 288.95 716.84 288.91 716.83C286.72 716.28 285.79 719.65 287.98 720.21C288.02 720.22 288.07 720.23 288.11 720.24C287.7 719.83 287.29 719.43 286.89 719.02C286.91 719.07 286.92 719.13 286.93 719.18C286.99 718.73 287.05 718.28 287.11 717.83C287.08 717.88 287.05 717.93 287.03 717.98C287.53 717.69 288.04 717.4 288.54 717.11C289.03 717.33 289.03 717.3 288.54 717.04C288.42 716.97 288.29 716.89 288.17 716.82C287.8 716.6 287.43 716.37 287.06 716.14C286.33 715.68 285.61 715.21 284.89 714.72C283.47 713.75 282.08 712.73 280.73 711.67C277.94 709.49 275.27 707.17 272.59 704.85C269.97 702.58 267.35 700.3 264.63 698.14C262 696.05 259.17 693.57 255.6 693.68C253.35 693.76 253.34 697.26 255.59 697.18Z" fill="#7116A0"/>
<path d="M269.57 687.64C269.83 694.08 269.26 700.49 268.49 706.88C267.72 713.21 266.86 719.53 266.04 725.86C265.92 726.81 266.93 727.6 267.79 727.61C268.84 727.62 269.42 726.79 269.54 725.86C270.36 719.54 271.22 713.22 271.99 706.88C272.76 700.5 273.33 694.08 273.07 687.64C272.98 685.39 269.48 685.38 269.57 687.64Z" fill="#7116A0"/>
<path d="M295.42 679.19C286.73 675.39 276.88 674.11 268.86 668.81C266.2 667.05 260.84 663.02 262.45 659.19C263.31 657.15 266.43 657.11 268.28 657.27C270.7 657.48 273.06 658.37 275.32 659.23C280.55 661.23 285.62 663.65 290.51 666.38C292.48 667.48 294.25 664.46 292.28 663.36C287.26 660.55 282.05 658.1 276.69 656.02C272.06 654.23 265.47 652.01 261.04 655.48C259.07 657.03 258.4 659.65 258.87 662.04C259.34 664.44 260.92 666.49 262.6 668.19C266.19 671.81 270.78 674.18 275.48 676C281.46 678.31 287.78 679.65 293.65 682.22C295.7 683.1 297.48 680.09 295.42 679.19Z" fill="#7116A0"/>
<path d="M277.88 675.14C279.08 669.47 279.85 663.71 280.17 657.92C280.29 655.67 276.79 655.68 276.67 657.92C276.37 663.4 275.64 668.84 274.5 674.21C274.3 675.13 274.77 676.1 275.72 676.36C276.59 676.61 277.68 676.07 277.88 675.14Z" fill="#7116A0"/>
<path d="M259.45 636.71C271.76 633.05 284.82 634.57 297.4 632.62C298.34 632.47 298.84 631.3 298.62 630.47C298.36 629.47 297.4 629.1 296.47 629.25C283.87 631.2 270.87 629.67 258.52 633.34C256.37 633.97 257.28 637.35 259.45 636.71Z" fill="#7116A0"/>
<path d="M257.69 619.33C263.72 624.19 269.79 629.08 275.02 634.82C279.91 640.19 283.59 646.64 289.45 651.08C290.21 651.66 291.4 651.19 291.84 650.45C292.37 649.56 291.96 648.62 291.21 648.06C285.54 643.75 281.97 637.2 277.19 632.01C272.03 626.41 266.08 621.62 260.16 616.85C259.42 616.25 258.41 616.14 257.68 616.85C257.07 617.46 256.96 618.74 257.69 619.33Z" fill="#7116A0"/>
<path d="M292.97 611.01C287.72 609.48 282.47 607.95 277.23 606.42C272.61 605.08 267.3 604.05 263.63 600.72C260.94 598.28 259.04 593.76 261.86 590.63C263.27 589.07 265.54 588.73 267.54 588.67C270.06 588.59 272.61 588.83 275.1 589.25C281.03 590.26 286.73 592.26 292.39 594.26C294.52 595.01 295.44 591.63 293.32 590.88C287.66 588.89 281.96 586.89 276.03 585.87C271.09 585.03 264.44 584.03 260.2 587.42C256.35 590.49 256.22 596.27 258.69 600.23C261.61 604.91 266.88 607.01 271.94 608.51C278.63 610.5 285.35 612.42 292.06 614.37C294.21 615.02 295.13 611.64 292.97 611.01Z" fill="#7116A0"/>
<path d="M278.48 607.88C279.65 601.42 280.24 594.86 280.22 588.29C280.21 586.04 276.71 586.03 276.72 588.29C276.74 594.55 276.22 600.79 275.11 606.95C274.94 607.88 275.36 608.84 276.33 609.1C277.18 609.34 278.32 608.82 278.48 607.88Z" fill="#7116A0"/>
<path d="M259.54 572.51C272.35 569.9 285.01 566.59 297.46 562.61C299.6 561.93 298.68 558.54 296.53 559.23C284.08 563.21 271.42 566.52 258.61 569.13C256.4 569.58 257.33 572.96 259.54 572.51Z" fill="#7116A0"/>
<path d="M261.78 554.81C267.92 558.49 273.46 563.04 278.26 568.35C282.79 573.36 286.9 578.82 292.7 582.46C294.61 583.66 296.37 580.63 294.47 579.44C288.71 575.83 284.72 570.19 280.18 565.26C275.32 560 269.69 555.46 263.55 551.78C261.61 550.63 259.85 553.66 261.78 554.81Z" fill="#7116A0"/>
<path d="M293.3 541.37C283.06 539.94 270.74 541.55 262.29 534.34C260.59 532.89 259.15 531.15 258.24 529.1C257.89 528.31 257.27 526.97 257.59 526.1C257.96 525.11 259.55 524.44 260.44 524.03C264.92 521.95 270.31 522.67 274.99 523.56C281.7 524.83 288.37 526.37 295.06 527.79C297.26 528.26 298.2 524.88 295.99 524.41C289.31 522.99 282.64 521.45 275.92 520.18C270.36 519.13 264.35 518.47 259.02 520.85C256.53 521.96 253.93 523.74 254.03 526.78C254.11 529.32 255.54 531.93 257.05 533.9C260.22 538.05 265.02 540.72 269.98 542.14C277.25 544.23 284.93 543.72 292.35 544.76C293.29 544.89 294.22 544.53 294.5 543.54C294.76 542.71 294.23 541.5 293.3 541.37Z" fill="#7116A0"/>
<path d="M279.95 539.55C281.13 534.55 280.1 529.34 279.51 524.33C279.4 523.39 278.79 522.58 277.76 522.58C276.9 522.58 275.9 523.39 276.01 524.33C276.3 526.78 276.64 529.23 276.85 531.68C277.05 533.99 277.11 536.34 276.57 538.61C276.05 540.81 279.43 541.75 279.95 539.55Z" fill="#7116A0"/>
<path d="M258.29 497.84C270.6 494.18 283.66 495.7 296.24 493.75C297.18 493.6 297.68 492.43 297.46 491.6C297.2 490.6 296.24 490.23 295.31 490.38C282.71 492.33 269.71 490.8 257.36 494.47C255.2 495.11 256.12 498.49 258.29 497.84Z" fill="#7116A0"/>
<path d="M256.53 480.47C262.56 485.33 268.63 490.22 273.86 495.96C278.75 501.33 282.43 507.78 288.29 512.22C289.05 512.8 290.24 512.33 290.68 511.59C291.21 510.7 290.8 509.76 290.05 509.2C284.38 504.89 280.81 498.34 276.03 493.15C270.87 487.55 264.92 482.76 259 477.99C258.26 477.39 257.25 477.28 256.52 477.99C255.91 478.6 255.79 479.87 256.53 480.47Z" fill="#7116A0"/>
<path d="M291.81 472.15C286.56 470.62 281.31 469.09 276.07 467.56C271.45 466.22 266.14 465.19 262.47 461.86C259.78 459.42 257.88 454.9 260.7 451.77C262.11 450.21 264.38 449.87 266.38 449.81C268.9 449.73 271.45 449.97 273.94 450.39C279.87 451.4 285.57 453.4 291.23 455.4C293.36 456.15 294.28 452.77 292.16 452.02C286.5 450.03 280.8 448.03 274.87 447.01C269.93 446.17 263.28 445.17 259.04 448.56C255.19 451.63 255.06 457.41 257.53 461.37C260.45 466.05 265.72 468.15 270.78 469.65C277.47 471.64 284.19 473.56 290.9 475.51C293.04 476.15 293.97 472.78 291.81 472.15Z" fill="#7116A0"/>
<path d="M277.32 469.02C278.49 462.56 279.08 456 279.06 449.43C279.05 447.18 275.55 447.17 275.56 449.43C275.58 455.69 275.06 461.93 273.95 468.09C273.78 469.02 274.2 469.98 275.17 470.24C276.01 470.47 277.15 469.95 277.32 469.02Z" fill="#7116A0"/>
<path d="M258.37 433.64C271.18 431.03 283.84 427.72 296.29 423.74C298.43 423.06 297.51 419.67 295.36 420.36C282.91 424.34 270.25 427.65 257.44 430.26C255.23 430.72 256.17 434.09 258.37 433.64Z" fill="#7116A0"/>
<path d="M260.62 415.95C266.76 419.63 272.3 424.18 277.1 429.49C281.63 434.5 285.74 439.96 291.54 443.6C293.45 444.8 295.21 441.77 293.31 440.58C287.55 436.97 283.56 431.33 279.02 426.4C274.16 421.14 268.53 416.6 262.39 412.92C260.45 411.76 258.68 414.79 260.62 415.95Z" fill="#7116A0"/>
<path d="M292.13 402.5C281.89 401.07 269.57 402.68 261.12 395.47C259.42 394.02 257.98 392.28 257.07 390.23C256.72 389.44 256.1 388.1 256.42 387.23C256.79 386.24 258.38 385.57 259.27 385.16C263.75 383.08 269.14 383.8 273.82 384.69C280.53 385.96 287.2 387.5 293.89 388.92C296.09 389.39 297.03 386.01 294.82 385.54C288.14 384.12 281.47 382.58 274.75 381.31C269.19 380.26 263.18 379.6 257.85 381.98C255.36 383.09 252.76 384.87 252.86 387.91C252.94 390.45 254.37 393.06 255.88 395.03C259.05 399.18 263.85 401.85 268.81 403.27C276.08 405.36 283.76 404.85 291.18 405.89C292.12 406.02 293.05 405.66 293.33 404.67C293.59 403.84 293.07 402.64 292.13 402.5Z" fill="#7116A0"/>
<path d="M278.78 400.68C279.96 395.68 278.93 390.47 278.34 385.46C278.23 384.52 277.62 383.71 276.59 383.71C275.73 383.71 274.73 384.52 274.84 385.46C275.13 387.91 275.47 390.36 275.68 392.81C275.88 395.12 275.94 397.47 275.4 399.74C274.89 401.95 278.26 402.88 278.78 400.68Z" fill="#7116A0"/>
<path d="M261.79 362.48C274.1 358.82 287.16 360.34 299.74 358.39C300.68 358.24 301.18 357.07 300.96 356.24C300.7 355.24 299.74 354.87 298.81 355.02C286.21 356.97 273.21 355.44 260.86 359.11C258.7 359.74 259.62 363.12 261.79 362.48Z" fill="#7116A0"/>
<path d="M260.03 345.1C266.06 349.96 272.13 354.85 277.36 360.59C282.25 365.96 285.93 372.41 291.79 376.85C292.55 377.43 293.74 376.96 294.18 376.22C294.71 375.33 294.3 374.39 293.55 373.83C287.88 369.52 284.31 362.97 279.53 357.78C274.37 352.18 268.42 347.39 262.5 342.62C261.76 342.02 260.75 341.91 260.02 342.62C259.41 343.23 259.29 344.51 260.03 345.1Z" fill="#7116A0"/>
<path d="M295.31 336.78C290.06 335.25 284.81 333.72 279.57 332.19C274.95 330.85 269.64 329.82 265.97 326.49C263.28 324.05 261.38 319.53 264.2 316.4C265.61 314.84 267.88 314.5 269.88 314.44C272.4 314.36 274.95 314.6 277.44 315.02C283.37 316.03 289.07 318.03 294.73 320.03C296.86 320.78 297.78 317.4 295.66 316.65C290 314.66 284.3 312.66 278.37 311.64C273.43 310.8 266.78 309.8 262.54 313.19C258.69 316.26 258.56 322.04 261.03 326C263.95 330.68 269.22 332.78 274.28 334.28C280.97 336.27 287.69 338.19 294.4 340.14C296.54 340.79 297.47 337.41 295.31 336.78Z" fill="#7116A0"/>
<path d="M280.82 333.65C281.99 327.19 282.58 320.63 282.56 314.06C282.55 311.81 279.05 311.8 279.06 314.06C279.08 320.32 278.56 326.56 277.45 332.72C277.28 333.65 277.7 334.61 278.67 334.87C279.51 335.11 280.65 334.59 280.82 333.65Z" fill="#7116A0"/>
<path d="M261.87 298.28C274.68 295.67 287.34 292.36 299.79 288.38C301.93 287.7 301.01 284.31 298.86 285C286.41 288.98 273.75 292.29 260.94 294.9C258.73 295.35 259.67 298.73 261.87 298.28Z" fill="#7116A0"/>
<path d="M264.12 280.58C270.26 284.26 275.8 288.81 280.6 294.12C285.13 299.13 289.24 304.59 295.04 308.23C296.95 309.43 298.71 306.4 296.81 305.21C291.05 301.6 287.06 295.96 282.52 291.03C277.66 285.77 272.03 281.23 265.89 277.55C263.95 276.4 262.19 279.43 264.12 280.58Z" fill="#7116A0"/>
<path d="M295.63 267.14C285.39 265.71 273.07 267.32 264.62 260.11C262.92 258.66 261.48 256.92 260.57 254.87C260.22 254.08 259.6 252.74 259.92 251.87C260.29 250.88 261.88 250.21 262.77 249.8C267.25 247.72 272.64 248.44 277.32 249.33C284.03 250.6 290.7 252.14 297.39 253.56C299.59 254.03 300.53 250.65 298.32 250.18C291.64 248.76 284.97 247.22 278.25 245.95C272.69 244.9 266.68 244.24 261.35 246.62C258.86 247.73 256.26 249.51 256.36 252.55C256.44 255.09 257.87 257.7 259.38 259.67C262.55 263.82 267.35 266.49 272.31 267.91C279.58 270 287.26 269.49 294.68 270.53C295.62 270.66 296.55 270.3 296.83 269.31C297.09 268.48 296.57 267.27 295.63 267.14Z" fill="#7116A0"/>
<path d="M282.28 265.32C283.46 260.32 282.43 255.11 281.84 250.1C281.73 249.16 281.12 248.35 280.09 248.35C279.23 248.35 278.23 249.16 278.34 250.1C278.63 252.55 278.97 255 279.18 257.45C279.38 259.76 279.44 262.11 278.9 264.38C278.39 266.58 281.76 267.52 282.28 265.32Z" fill="#7116A0"/>
<path d="M262.95 227.11C275.26 223.45 288.32 224.97 300.9 223.02C301.84 222.87 302.34 221.7 302.12 220.87C301.86 219.87 300.9 219.5 299.97 219.65C287.37 221.6 274.37 220.07 262.02 223.74C259.87 224.38 260.79 227.76 262.95 227.11Z" fill="#7116A0"/>
<path d="M261.19 209.74C267.22 214.6 273.29 219.49 278.52 225.23C283.41 230.6 287.09 237.05 292.95 241.49C293.71 242.07 294.9 241.6 295.34 240.86C295.87 239.97 295.46 239.03 294.71 238.47C289.04 234.16 285.47 227.61 280.69 222.42C275.53 216.82 269.58 212.03 263.66 207.26C262.92 206.66 261.91 206.55 261.18 207.26C260.57 207.87 260.46 209.15 261.19 209.74Z" fill="#7116A0"/>
<path d="M296.47 201.42C291.22 199.89 285.97 198.36 280.73 196.83C276.11 195.49 270.8 194.46 267.13 191.13C264.44 188.69 262.54 184.17 265.36 181.04C266.77 179.48 269.04 179.14 271.04 179.08C273.56 179 276.11 179.24 278.6 179.66C284.53 180.67 290.23 182.67 295.89 184.67C298.02 185.42 298.94 182.04 296.82 181.29C291.16 179.3 285.46 177.3 279.53 176.28C274.59 175.44 267.94 174.44 263.7 177.83C259.85 180.9 259.72 186.68 262.19 190.64C265.11 195.32 270.38 197.42 275.44 198.92C282.13 200.91 288.85 202.83 295.56 204.78C297.71 205.42 298.64 202.05 296.47 201.42Z" fill="#7116A0"/>
<path d="M281.99 198.29C283.16 191.83 283.75 185.27 283.73 178.7C283.72 176.45 280.22 176.44 280.23 178.7C280.25 184.96 279.73 191.2 278.62 197.36C278.45 198.29 278.87 199.25 279.84 199.51C280.68 199.74 281.82 199.22 281.99 198.29Z" fill="#7116A0"/>
<path d="M263.04 162.91C275.85 160.3 288.51 156.99 300.96 153.01C303.1 152.33 302.18 148.94 300.03 149.63C287.58 153.61 274.92 156.92 262.11 159.53C259.9 159.99 260.83 163.36 263.04 162.91Z" fill="#7116A0"/>
<path d="M265.28 145.22C271.42 148.9 276.96 153.45 281.76 158.76C286.29 163.77 290.4 169.23 296.2 172.87C298.11 174.07 299.87 171.04 297.97 169.85C292.21 166.24 288.22 160.6 283.68 155.67C278.82 150.41 273.19 145.87 267.05 142.19C265.11 141.03 263.35 144.06 265.28 145.22Z" fill="#7116A0"/>
<path d="M296.8 131.77C286.56 130.34 274.24 131.95 265.79 124.74C264.09 123.29 262.65 121.55 261.74 119.5C261.39 118.71 260.77 117.37 261.09 116.5C261.46 115.51 263.05 114.84 263.94 114.43C268.42 112.35 273.81 113.07 278.49 113.96C285.2 115.23 291.87 116.77 298.56 118.19C300.76 118.66 301.7 115.28 299.49 114.81C292.81 113.39 286.14 111.85 279.42 110.58C273.86 109.53 267.85 108.87 262.52 111.25C260.03 112.36 257.43 114.14 257.53 117.18C257.61 119.72 259.04 122.33 260.55 124.3C263.72 128.45 268.52 131.12 273.48 132.54C280.75 134.63 288.43 134.12 295.85 135.16C296.79 135.29 297.72 134.93 298 133.94C298.26 133.11 297.73 131.91 296.8 131.77Z" fill="#7116A0"/>
<path d="M283.45 129.96C284.63 124.96 283.6 119.75 283.01 114.74C282.9 113.8 282.29 112.99 281.26 112.99C280.4 112.99 279.4 113.8 279.51 114.74C279.8 117.19 280.14 119.64 280.35 122.09C280.55 124.4 280.61 126.75 280.07 129.02C279.56 131.22 282.93 132.15 283.45 129.96Z" fill="#7116A0"/>
<path d="M250.92 85.66C268.91 85.95 286.88 86.78 304.82 88.13C307.07 88.3 307.06 84.8 304.82 84.63C286.88 83.28 268.91 82.46 250.92 82.16C248.67 82.12 248.67 85.62 250.92 85.66Z" fill="#7116A0"/>
<path d="M263.23 63.8901C273.1 78.7301 283.46 93.2401 294.3 107.39C294.88 108.15 295.8 108.53 296.69 108.02C297.43 107.6 297.89 106.37 297.32 105.63C286.48 91.4801 276.12 76.9701 266.25 62.1301C265.01 60.2501 261.98 62.0001 263.23 63.8901Z" fill="#7116A0"/>
<path d="M305.51 76.8199C299.71 71.5599 294.31 65.8699 289.28 59.8799C286.76 56.8799 284.33 53.81 281.98 50.67C279.72 47.65 277.33 44.61 275.52 41.3C274.01 38.53 273.04 35.0999 274.49 32.0899C276.01 28.9299 279.48 28.6899 282.5 29.6199C289.04 31.6399 294.25 37.5499 298.06 42.9699C300.54 46.4999 302.68 50.2499 304.83 53.9899C305.95 55.9299 307.07 57.86 308.24 59.77C308.81 60.69 309.38 61.5999 309.98 62.4999C310.32 63.0099 310.67 63.52 311.02 64.03C311.15 64.22 311.29 64.4099 311.42 64.5999C311.5 64.7099 311.58 64.8299 311.66 64.9499C311.96 65.5099 312.17 65.13 312.29 63.8C312.74 63.74 313.19 63.6799 313.64 63.6199C313.9 64.1599 314.16 64.7099 314.43 65.2499C314.02 65.6599 313.61 66.0699 313.21 66.4699C313.26 66.4599 313.31 66.44 313.35 66.43C315.51 65.79 314.59 62.41 312.42 63.05C310.32 63.67 310.69 66.5799 312.71 66.9899C313.7 67.1899 314.56 66.69 314.97 65.79C315.53 64.55 314.9 63.4599 314.18 62.4499C311.43 58.5399 309.09 54.3499 306.7 50.2199C302.33 42.6699 297.55 35.11 290.39 29.9C287.13 27.53 283.05 25.3699 278.89 25.6299C274.82 25.8799 271.63 28.59 270.65 32.54C269.58 36.81 271.15 41.0099 273.4 44.5999C275.86 48.5199 278.74 52.2199 281.57 55.8699C288.07 64.2599 295.18 72.1799 303.05 79.3199C304.7 80.8099 307.19 78.3399 305.51 76.8199Z" fill="#7116A0"/>
<path d="M290.75 59.8701C292.72 54.1901 296.65 49.2601 301.71 46.0301C303.6 44.8201 301.85 41.7901 299.94 43.0101C294.08 46.7501 289.65 52.38 287.37 58.95C287.06 59.84 287.72 60.86 288.59 61.1C289.56 61.36 290.43 60.7601 290.75 59.8701Z" fill="#7116A0"/>
<path d="M316.44 23.13C328.98 34.94 340.23 48.06 349.96 62.27C351.22 64.12 354.26 62.37 352.98 60.5C343.09 46.04 331.67 32.66 318.92 20.65C317.27 19.11 314.79 21.58 316.44 23.13Z" fill="#7116A0"/>
<path d="M338.53 22.4301C335.78 36.7801 333.15 51.1501 330.62 65.5401C330.23 67.7401 333.61 68.69 334 66.47C336.52 52.08 339.16 37.71 341.91 23.36C342.33 21.16 338.96 20.2201 338.53 22.4301Z" fill="#7116A0"/>
<path d="M368.2 62.5C366.72 56.36 365.56 50.14 364.78 43.86C364.41 40.84 364.1 37.8 363.91 34.77C363.73 31.93 363.62 28.82 364.89 26.18C365.77 24.35 367.53 22.7 369.6 22.41C372.06 22.06 373.74 24.15 374.84 26.05C377.57 30.77 378.97 36.23 379.77 41.59C380.71 47.9 380.72 54.3199 380.75 60.6899C380.76 62.9399 384.26 62.9499 384.25 60.6899C384.23 54.2899 384.15 47.87 383.27 41.52C382.43 35.43 380.84 29.06 377.56 23.79C376.05 21.37 373.89 19.2699 370.94 18.9399C368.27 18.6399 365.62 19.89 363.77 21.76C359.16 26.44 360.22 33.85 360.81 39.77C361.6 47.74 362.94 55.6499 364.81 63.4399C365.35 65.6199 368.73 64.69 368.2 62.5Z" fill="#7116A0"/>
<path d="M365.17 49.35C370.38 47.07 376.15 46.3401 381.77 47.0301C382.71 47.1501 383.52 46.1401 383.52 45.2801C383.52 44.2401 382.71 43.6501 381.77 43.5301C375.5 42.7501 369.17 43.79 363.4 46.33C362.53 46.71 362.33 47.98 362.77 48.72C363.3 49.62 364.3 49.73 365.17 49.35Z" fill="#7116A0"/>
<path d="M396.31 23.8C405.39 35.36 412.47 48.47 417.21 62.38C417.93 64.5 421.31 63.5899 420.59 61.4499C415.65 46.9299 408.27 33.3799 398.79 21.3299C398.2 20.5799 396.93 20.7199 396.31 21.3299C395.57 22.0499 395.73 23.06 396.31 23.8Z" fill="#7116A0"/>
<path d="M399.05 61.61C406.1 47.79 413.7 34.2601 421.84 21.0501C423.02 19.1301 420 17.3701 418.82 19.2801C410.68 32.4901 403.08 46.02 396.03 59.84C395 61.85 398.02 63.62 399.05 61.61Z" fill="#7116A0"/>
<path d="M434.42 62.63C435.98 57.09 437.7 51.5901 439.59 46.1501C440.49 43.5601 441.35 40.9101 442.46 38.4001C443.44 36.1801 444.74 33.94 446.85 32.63C448.74 31.46 450.96 31.19 452.86 32.47C454.76 33.75 455.76 35.99 456.06 38.21C456.74 43.19 455.02 48.5701 452.92 53.0201C450.4 58.3501 446.96 63.18 443.53 67.95C442.21 69.78 445.25 71.53 446.55 69.72C449.98 64.95 453.42 60.1201 455.94 54.7901C458.43 49.5201 460.33 43.39 459.46 37.5C458.67 32.15 454.34 27.24 448.54 28.25C442.49 29.3 439.78 35.35 437.89 40.48C435.32 47.46 433.04 54.55 431.03 61.71C430.44 63.87 433.82 64.79 434.42 62.63Z" fill="#7116A0"/>
<path d="M439.56 44.96C443.43 48.84 446.87 53.0901 449.86 57.6801C450.37 58.4701 451.41 58.8001 452.25 58.3101C453.04 57.8501 453.39 56.7101 452.88 55.9201C449.74 51.0801 446.11 46.57 442.04 42.49C440.44 40.89 437.97 43.36 439.56 44.96Z" fill="#7116A0"/>
<path d="M480.88 50.05C474.45 63.44 465.82 75.66 455.33 86.18C453.74 87.78 456.21 90.25 457.81 88.66C468.5 77.95 477.36 65.4599 483.91 51.8199C484.88 49.7899 481.86 48.02 480.88 50.05Z" fill="#7116A0"/>
<path d="M453.85 74.02C460.8 74 467.71 74.79 474.46 76.45C477.82 77.28 481.08 78.35 484.34 79.51C487.49 80.64 490.73 81.66 494.12 81.4399C496.36 81.29 496.37 77.7899 494.12 77.9399C490.72 78.1599 487.56 76.96 484.41 75.83C481.16 74.66 477.85 73.65 474.48 72.86C467.73 71.28 460.79 70.5 453.86 70.52C451.6 70.53 451.6 74.03 453.85 74.02Z" fill="#7116A0"/>
<path d="M457.93 104.26C466.86 102.92 478.66 101.22 485.85 108.18C487.38 109.66 488.66 111.57 488.92 113.73C489.18 115.91 488.26 118.06 486.83 119.66C483.36 123.54 477.92 124.34 473.04 125.11C466.46 126.15 459.83 127.13 453.15 126.61C450.9 126.44 450.91 129.94 453.15 130.11C459.98 130.64 466.76 129.62 473.49 128.56C479.09 127.68 485.14 126.64 489.18 122.27C493.01 118.12 493.47 112.34 490.11 107.76C486.88 103.35 481.57 100.94 476.29 100.09C469.87 99.06 463.38 99.9201 457 100.88C456.06 101.02 455.56 102.2 455.78 103.03C456.04 104.04 456.99 104.4 457.93 104.26Z" fill="#7116A0"/>
<path d="M467.09 101.32C466.81 110.08 466.11 118.83 464.97 127.52C464.85 128.47 465.86 129.26 466.72 129.27C467.77 129.28 468.35 128.45 468.47 127.52C469.6 118.82 470.31 110.08 470.59 101.32C470.66 99.06 467.16 99.06 467.09 101.32Z" fill="#7116A0"/>
<path d="M462.43 434.22C466.73 434.94 470.87 436.47 474.94 438C478.8 439.45 482.6 441.06 486.33 442.82C493.86 446.37 501.09 450.53 507.97 455.22C509.84 456.49 511.59 453.46 509.74 452.2C502.74 447.42 495.37 443.2 487.7 439.6C483.9 437.82 480.02 436.18 476.1 434.7C471.97 433.14 467.75 431.58 463.38 430.84C461.16 430.48 460.21 433.85 462.43 434.22Z" fill="#7116A0"/>
<path d="M494.41 426.12C487.3 438.8 479.81 451.25 471.93 463.47C470.71 465.37 473.73 467.13 474.95 465.24C482.82 453.03 490.32 440.57 497.43 427.89C498.53 425.92 495.51 424.15 494.41 426.12Z" fill="#7116A0"/>
<path d="M484.51 499.09C486.68 489.35 491.47 480.25 498.44 473.1C499.96 471.54 502.18 469.44 504.56 469.64C506.66 469.82 507.79 471.92 508.39 473.71C510.07 478.79 509.55 484.36 507.89 489.37C506.02 495.04 502.64 500.09 499.05 504.8C498.47 505.56 498.94 506.75 499.68 507.19C500.57 507.73 501.5 507.31 502.07 506.56C509.23 497.19 515.78 484.86 511.76 472.77C510.99 470.45 509.68 468.05 507.42 466.89C504.86 465.58 502.01 466.15 499.64 467.6C497.17 469.1 495.18 471.34 493.34 473.53C491.56 475.65 489.92 477.88 488.46 480.23C485.03 485.73 482.55 491.83 481.14 498.16C480.65 500.36 484.02 501.3 484.51 499.09Z" fill="#7116A0"/>
<path d="M489.6 485.61C490.09 485.32 491.18 486.06 491.62 486.29C492.48 486.72 493.33 487.18 494.17 487.66C495.86 488.62 497.51 489.63 499.18 490.61C502.51 492.57 505.97 494.38 509.74 495.32C511.93 495.87 512.86 492.49 510.67 491.94C506.58 490.92 502.97 488.79 499.39 486.65C497.62 485.59 495.86 484.53 494.03 483.58C492.12 482.58 489.93 481.36 487.83 482.58C485.89 483.71 487.65 486.74 489.6 485.61Z" fill="#7116A0"/>
<path d="M532.47 460.22C537.9 466.51 543.19 472.91 548.33 479.43C550.91 482.7 553.45 486 555.95 489.32C556.94 490.63 558.16 493.11 560.2 492.5C561.94 491.99 562 489.61 560.51 488.78C559.78 488.37 559 488.54 558.39 489.05C558.35 489.08 558.32 489.11 558.28 489.14C556.55 490.58 559.04 493.05 560.76 491.62C560.8 491.59 560.83 491.56 560.87 491.53C560.16 491.62 559.46 491.71 558.75 491.8C558.54 491.43 558.32 491.06 558.11 490.69C558.28 490.28 558.45 489.86 558.62 489.45C558.58 489.49 558.54 489.53 558.51 489.57C558.92 489.4 559.34 489.23 559.75 489.06C560.42 489.06 559.86 488.71 559.56 488.32C559.32 488 559.08 487.68 558.84 487.36C558.31 486.66 557.78 485.96 557.25 485.26C556.28 483.99 555.31 482.72 554.34 481.46C552.25 478.75 550.13 476.06 547.99 473.39C543.74 468.1 539.4 462.88 534.97 457.74C533.47 456.03 531.01 458.52 532.47 460.22Z" fill="#7116A0"/>
<path d="M551.7 455.52C545.78 470.87 539.05 485.9 531.56 500.55C530.54 502.55 533.56 504.33 534.58 502.32C542.21 487.4 549.05 472.09 555.07 456.46C555.89 454.35 552.5 453.44 551.7 455.52Z" fill="#7116A0"/>
<path d="M573.9 493.73C574.39 483.22 571.56 470.94 578.46 461.87C579.73 460.2 581.33 458.79 583.2 457.82C584.19 457.3 585.45 456.64 586.42 457.48C587.28 458.22 587.91 459.33 588.42 460.32C590.6 464.57 590.34 469.75 589.9 474.37C589.26 481.2 588.33 488.02 587.54 494.84C587.43 495.79 588.42 496.58 589.29 496.59C590.33 496.6 590.93 495.77 591.04 494.84C591.84 488.02 592.76 481.2 593.4 474.37C593.9 469.01 593.93 463.27 591.35 458.39C590.09 456.01 588.12 453.4 585.15 453.56C582.46 453.7 579.72 455.61 577.81 457.38C574.1 460.84 571.91 465.84 570.98 470.76C569.56 478.34 570.75 486.07 570.39 493.72C570.29 495.98 573.8 495.97 573.9 493.73Z" fill="#7116A0"/>
<path d="M574.29 480.54C579.55 481.27 584.76 479.77 589.86 478.67C590.78 478.47 591.32 477.39 591.08 476.52C590.82 475.56 589.85 475.1 588.93 475.3C586.58 475.8 584.24 476.35 581.88 476.79C579.71 477.19 577.42 477.48 575.22 477.18C574.28 477.05 573.34 477.41 573.07 478.4C572.84 479.2 573.34 480.4 574.29 480.54Z" fill="#7116A0"/>
<path d="M603.65 456.72C609.08 463.01 614.37 469.41 619.51 475.93C622.09 479.2 624.63 482.5 627.13 485.82C628.12 487.13 629.34 489.61 631.38 489C633.12 488.49 633.18 486.11 631.69 485.28C630.96 484.87 630.18 485.04 629.57 485.55C629.53 485.58 629.5 485.61 629.46 485.64C627.73 487.08 630.22 489.55 631.94 488.12C631.98 488.09 632.01 488.06 632.05 488.03C631.34 488.12 630.64 488.21 629.93 488.3C629.72 487.93 629.5 487.56 629.29 487.19C629.46 486.78 629.63 486.36 629.8 485.95C629.76 485.99 629.72 486.03 629.69 486.07C630.1 485.9 630.52 485.73 630.93 485.56C631.6 485.56 631.04 485.21 630.74 484.82C630.5 484.5 630.26 484.18 630.02 483.86C629.49 483.16 628.96 482.46 628.43 481.76C627.46 480.49 626.49 479.22 625.52 477.96C623.43 475.25 621.31 472.56 619.17 469.89C614.92 464.6 610.58 459.38 606.15 454.24C604.66 452.53 602.19 455.02 603.65 456.72Z" fill="#7116A0"/>
<path d="M622.88 452.02C616.96 467.37 610.23 482.4 602.74 497.05C601.72 499.05 604.74 500.83 605.76 498.82C613.39 483.9 620.23 468.59 626.25 452.96C627.07 450.85 623.69 449.94 622.88 452.02Z" fill="#7116A0"/>
<path d="M645.08 490.23C645.57 479.72 642.74 467.44 649.64 458.37C650.91 456.7 652.51 455.29 654.38 454.32C655.37 453.8 656.63 453.14 657.6 453.98C658.46 454.72 659.09 455.83 659.6 456.82C661.78 461.07 661.52 466.25 661.08 470.87C660.44 477.7 659.51 484.52 658.72 491.34C658.61 492.29 659.6 493.08 660.47 493.09C661.51 493.1 662.11 492.27 662.22 491.34C663.02 484.52 663.94 477.7 664.58 470.87C665.08 465.51 665.11 459.77 662.53 454.89C661.27 452.51 659.3 449.9 656.33 450.06C653.64 450.2 650.9 452.11 648.99 453.88C645.28 457.34 643.09 462.34 642.16 467.26C640.74 474.84 641.93 482.57 641.57 490.22C641.48 492.48 644.98 492.47 645.08 490.23Z" fill="#7116A0"/>
<path d="M645.47 477.03C650.73 477.76 655.94 476.26 661.04 475.16C661.96 474.96 662.5 473.88 662.26 473.01C662 472.05 661.03 471.59 660.11 471.79C657.76 472.29 655.42 472.84 653.06 473.28C650.89 473.68 648.6 473.97 646.4 473.67C645.46 473.54 644.52 473.9 644.25 474.89C644.02 475.7 644.53 476.9 645.47 477.03Z" fill="#7116A0"/>
<path d="M671.34 453.22C676.77 459.51 682.06 465.91 687.2 472.43C689.78 475.7 692.32 479 694.82 482.32C695.81 483.63 697.03 486.11 699.07 485.5C700.81 484.99 700.87 482.61 699.38 481.78C698.65 481.37 697.87 481.54 697.26 482.05C697.22 482.08 697.19 482.11 697.15 482.14C695.42 483.58 697.91 486.05 699.63 484.62C699.67 484.59 699.7 484.56 699.74 484.53C699.03 484.62 698.33 484.71 697.62 484.8C697.41 484.43 697.19 484.06 696.98 483.69C697.15 483.28 697.32 482.86 697.49 482.45C697.45 482.49 697.41 482.53 697.38 482.57C697.79 482.4 698.21 482.23 698.62 482.06C699.29 482.06 698.73 481.71 698.43 481.32C698.19 481 697.95 480.68 697.71 480.36C697.18 479.66 696.65 478.96 696.12 478.26C695.15 476.99 694.18 475.72 693.21 474.46C691.12 471.75 689 469.06 686.86 466.39C682.61 461.1 678.27 455.88 673.84 450.74C672.34 449.03 669.87 451.52 671.34 453.22Z" fill="#7116A0"/>
<path d="M690.57 448.52C684.65 463.87 677.92 478.9 670.43 493.55C669.41 495.55 672.43 497.33 673.45 495.32C681.08 480.4 687.92 465.09 693.94 449.46C694.75 447.35 691.37 446.44 690.57 448.52Z" fill="#7116A0"/>
<path d="M712.77 486.73C713.26 476.22 710.43 463.94 717.33 454.87C718.6 453.2 720.2 451.79 722.07 450.82C723.06 450.3 724.32 449.64 725.29 450.48C726.15 451.22 726.78 452.33 727.29 453.32C729.47 457.57 729.21 462.75 728.77 467.37C728.13 474.2 727.2 481.02 726.41 487.84C726.3 488.79 727.29 489.58 728.16 489.59C729.2 489.6 729.8 488.77 729.91 487.84C730.71 481.02 731.63 474.2 732.27 467.37C732.77 462.01 732.8 456.27 730.22 451.39C728.96 449.01 726.99 446.4 724.02 446.56C721.33 446.7 718.59 448.61 716.68 450.38C712.97 453.84 710.78 458.84 709.85 463.76C708.43 471.34 709.62 479.07 709.26 486.72C709.16 488.98 712.66 488.97 712.77 486.73Z" fill="#7116A0"/>
<path d="M713.15 473.53C718.41 474.26 723.62 472.76 728.72 471.66C729.64 471.46 730.18 470.38 729.94 469.51C729.68 468.55 728.71 468.09 727.79 468.29C725.44 468.79 723.1 469.34 720.74 469.78C718.57 470.18 716.28 470.47 714.08 470.17C713.14 470.04 712.2 470.4 711.93 471.39C711.71 472.2 712.21 473.4 713.15 473.53Z" fill="#7116A0"/>
<path d="M744 459.82C755.81 471.46 767.24 483.47 778.29 495.83C779.79 497.51 782.26 495.03 780.77 493.35C769.72 480.99 758.28 468.98 746.48 457.34C744.87 455.76 742.4 458.24 744 459.82Z" fill="#7116A0"/>
<path d="M755.48 457.14C756.12 473.51 756.39 489.9 756.3 506.28C756.29 508.53 759.79 508.54 759.8 506.28C759.89 489.9 759.62 473.51 758.98 457.14C758.89 454.89 755.39 454.88 755.48 457.14Z" fill="#7116A0"/>
<path d="M799.32 477.56C794.72 474.73 790.32 471.59 786.19 468.11C782.26 464.8 778.09 461.23 775.18 456.94C773.86 454.99 772.75 452.8 772.54 450.42C772.47 449.64 772.29 448.07 772.92 447.45C773.68 446.7 775.56 446.62 776.55 446.56C781.87 446.27 787.13 448.77 791.75 451.14C797.11 453.88 802.12 457.26 806.67 461.19C808.37 462.66 810.85 460.19 809.15 458.71C804.49 454.67 799.39 451.15 793.91 448.31C788.7 445.61 782.77 442.81 776.76 443.04C774.09 443.14 770.53 443.7 769.45 446.53C768.48 449.06 769.07 452.26 770.04 454.7C772.18 460.09 776.65 464.27 780.87 468.09C786.03 472.76 791.63 476.93 797.55 480.57C799.48 481.76 801.24 478.73 799.32 477.56Z" fill="#7116A0"/>
<path d="M789.03 468.14C789.73 462.04 791.76 456.14 794.86 450.85C796 448.9 792.98 447.14 791.84 449.08C788.41 454.93 786.31 461.41 785.54 468.14C785.43 469.08 786.42 469.89 787.29 469.89C788.32 469.89 788.92 469.08 789.03 468.14Z" fill="#7116A0"/>
<path d="M771.24 427.39C786.86 425.65 802.43 423.51 817.95 420.99C818.89 420.84 819.39 419.68 819.17 418.84C818.91 417.85 817.95 417.47 817.02 417.62C801.82 420.09 786.55 422.19 771.25 423.9C770.3 424.01 769.51 424.63 769.5 425.65C769.48 426.5 770.3 427.49 771.24 427.39Z" fill="#7116A0"/>
<path d="M775.72 409.49C785.06 420.17 794.85 430.44 805.06 440.29C806.68 441.85 809.16 439.38 807.54 437.81C797.33 427.97 787.54 417.69 778.2 407.01C776.71 405.31 774.24 407.8 775.72 409.49Z" fill="#7116A0"/>
<path d="M812.02 401.76C799.8 399.84 787.09 397.87 776.25 391.53C773.97 390.2 771.58 388.65 770.25 386.29C768.94 383.96 769.83 381.5 772.04 380.13C774.67 378.5 777.97 378.82 780.9 379.2C784.3 379.63 787.69 380.2 791.06 380.84C798.76 382.31 806.36 384.28 813.82 386.7C815.97 387.4 816.89 384.02 814.75 383.32C807.45 380.94 800 379.01 792.46 377.55C788.7 376.82 784.92 376.21 781.12 375.72C777.68 375.28 774.07 375.12 770.89 376.75C768.23 378.11 766.2 380.72 766.09 383.77C765.98 386.87 767.93 389.62 770.18 391.56C775.19 395.9 781.98 398.5 788.24 400.41C795.69 402.68 803.4 403.92 811.08 405.12C812.02 405.27 812.95 404.88 813.23 403.9C813.48 403.08 812.95 401.9 812.02 401.76Z" fill="#7116A0"/>
<path d="M795.56 398.67C795.1 392.18 794.63 385.68 794.17 379.19C794.01 376.96 790.51 376.94 790.67 379.19C791.13 385.68 791.6 392.18 792.06 398.67C792.22 400.9 795.72 400.92 795.56 398.67Z" fill="#7116A0"/>
<path d="M773.04 357.7C787.55 352.25 802.81 348.97 818.29 348.05C820.53 347.92 820.54 344.42 818.29 344.55C802.51 345.48 786.91 348.76 772.11 354.32C770.02 355.11 770.93 358.49 773.04 357.7Z" fill="#7116A0"/>
<path d="M778.62 340.48C787.17 349.71 795.93 358.75 804.89 367.59C806.5 369.17 808.97 366.7 807.37 365.11C798.41 356.27 789.66 347.23 781.1 338C779.56 336.35 777.09 338.83 778.62 340.48Z" fill="#7116A0"/>
<path d="M817.01 331.99C805.02 331.78 793.04 329.21 782.07 324.34C780.82 323.79 779.58 323.21 778.36 322.59C777.36 322.09 776.07 321.53 775.58 320.43C774.59 318.19 777.02 315.63 778.55 314.32C783.24 310.3 789.19 310.77 794.84 311.98C802.03 313.52 809.2 315.14 816.37 316.72C818.57 317.2 819.5 313.83 817.3 313.34C810.04 311.74 802.8 310.09 795.53 308.55C792.06 307.81 788.52 307.23 784.98 307.74C782.09 308.15 779.34 309.31 777.02 311.08C774.74 312.82 772.6 315.19 772.03 318.09C771.41 321.25 773.08 323.71 775.77 325.19C781.57 328.39 788.07 330.67 794.46 332.37C801.81 334.31 809.4 335.35 817 335.49C819.27 335.53 819.27 332.03 817.01 331.99Z" fill="#7116A0"/>
<path d="M800.95 330.47C800.78 324.26 800.62 318.04 800.45 311.83C800.39 309.58 796.89 309.57 796.95 311.83C797.12 318.04 797.28 324.26 797.45 330.47C797.51 332.72 801.01 332.73 800.95 330.47Z" fill="#7116A0"/>
</svg>
