<svg width="81" height="95" viewBox="0 0 81 95" fill="none" xmlns="http://www.w3.org/2000/svg">
<path d="M28.7602 83.13H54.9102C57.5702 83.13 59.7202 85.2899 59.7202 87.9399V89.55C59.7202 92.21 57.5602 94.36 54.9102 94.36H28.7602C26.1002 94.36 23.9502 92.2 23.9502 89.55V87.9399C23.9502 85.2799 26.1002 83.13 28.7602 83.13Z" fill="#7116A0"/>
<path d="M35.632 83.5697H47.752V79.4298H35.632V83.5697Z" fill="#7116A0"/>
<path d="M40.5103 80.3199C62.4746 80.3199 80.2802 62.5144 80.2802 40.55C80.2802 18.5857 62.4746 0.780029 40.5103 0.780029C18.5459 0.780029 0.740234 18.5857 0.740234 40.55C0.740234 62.5144 18.5459 80.3199 40.5103 80.3199Z" fill="#7116A0"/>
<path d="M56.0004 86.02V92.23H47.1304" stroke="black" stroke-width="0.4756" stroke-miterlimit="10"/>
<path d="M46.8101 83.09V80.3199" stroke="black" stroke-width="0.4756" stroke-miterlimit="10"/>
<path d="M38.0302 84.9H27.9702V92.29" stroke="black" stroke-width="0.4756" stroke-miterlimit="10"/>
</svg>
