<svg width="81" height="95" viewBox="0 0 81 95" fill="none" xmlns="http://www.w3.org/2000/svg">
<path d="M28.5005 83.27H54.6505C57.3105 83.27 59.4605 85.43 59.4605 88.08V89.6899C59.4605 92.3499 57.3005 94.5 54.6505 94.5H28.5005C25.8405 94.5 23.6905 92.3399 23.6905 89.6899V88.08C23.6805 85.43 25.8405 83.27 28.5005 83.27Z" fill="#7116A0"/>
<path d="M35.3683 83.712H47.4883V79.572H35.3683V83.712Z" fill="#7116A0"/>
<path d="M40.2402 80.46C62.2046 80.46 80.0102 62.6543 80.0102 40.6899C80.0102 18.7256 62.2046 0.920044 40.2402 0.920044C18.2759 0.920044 0.470215 18.7256 0.470215 40.6899C0.470215 62.6543 18.2759 80.46 40.2402 80.46Z" fill="#7116A0"/>
<path d="M55.7304 86.17V92.38H46.8604" stroke="black" stroke-width="0.4756" stroke-miterlimit="10"/>
<path d="M46.54 83.24V80.46" stroke="black" stroke-width="0.4756" stroke-miterlimit="10"/>
<path d="M37.7604 85.05H27.7104V92.4399" stroke="black" stroke-width="0.4756" stroke-miterlimit="10"/>
</svg>
