<svg width="130" height="153" viewBox="0 0 130 153" fill="none" xmlns="http://www.w3.org/2000/svg">
<path d="M86.2097 19.15H39.9597C36.6997 19.15 34.0498 16.51 34.0498 13.24V6.82001C34.0498 3.56001 36.6897 0.909973 39.9597 0.909973H86.2097C89.4697 0.909973 92.1198 3.55001 92.1198 6.82001V13.24C92.1098 16.51 89.4697 19.15 86.2097 19.15Z" fill="#7116A0"/>
<path d="M73.16 18.43H53.48V25.15H73.16V18.43Z" fill="#7116A0"/>
<path d="M65.24 152.8C100.89 152.8 129.79 123.9 129.79 88.25C129.79 52.6 100.89 23.7 65.24 23.7C29.59 23.7 0.689941 52.6 0.689941 88.25C0.689941 123.9 29.59 152.8 65.24 152.8Z" fill="#7116A0"/>
<path d="M40.1001 14.45V4.37H54.4901" stroke="black" stroke-width="0.7719" stroke-miterlimit="10"/>
<path d="M55.0098 19.21V23.71" stroke="black" stroke-width="0.7719" stroke-miterlimit="10"/>
<path d="M69.27 16.27H85.58V4.27002" stroke="black" stroke-width="0.7719" stroke-miterlimit="10"/>
</svg>
