<svg width="139" height="137" viewBox="0 0 139 137" fill="none" xmlns="http://www.w3.org/2000/svg">
<path d="M33.8999 39.63V6.76001H102.75V38.5" stroke="#7116A0" stroke-width="11.6694" stroke-miterlimit="10"/>
<path d="M129.2 136.4H9.42999C4.21999 136.4 0 132.18 0 126.97V46.69C0 41.48 4.21999 37.26 9.42999 37.26H129.2C134.41 37.26 138.63 41.48 138.63 46.69V126.97C138.63 132.18 134.41 136.4 129.2 136.4Z" fill="#FF5408"/>
<path d="M67.8301 108.15L68.0801 63.35" stroke="#7116A0" stroke-width="11.6694" stroke-miterlimit="10" stroke-linecap="round" stroke-linejoin="round"/>
<path d="M47.7402 85.61L88.1703 85.89" stroke="#7116A0" stroke-width="11.6694" stroke-miterlimit="10" stroke-linecap="round" stroke-linejoin="round"/>
<path d="M70.3701 61.07V82.8H90.2701" stroke="black" stroke-width="1.1669" stroke-miterlimit="10"/>
<path d="M10.3398 60.76V45.43H36.9898" stroke="black" stroke-width="1.1669" stroke-miterlimit="10"/>
<path d="M36.9902 19.44V8.78003H50.3203" stroke="black" stroke-width="1.1669" stroke-miterlimit="10"/>
<path d="M94.6401 3.10999H105.3V15.78" stroke="black" stroke-width="1.1669" stroke-miterlimit="10"/>
<path d="M91.6401 130.74H129.63V110.08" stroke="black" stroke-width="1.1669" stroke-miterlimit="10"/>
</svg>
