<svg width="98" height="98" viewBox="0 0 98 98" fill="none" xmlns="http://www.w3.org/2000/svg">
<path d="M49.39 97.26C76.1372 97.26 97.8199 75.5771 97.8199 48.83C97.8199 22.0828 76.1372 0.400024 49.39 0.400024C22.6429 0.400024 0.959961 22.0828 0.959961 48.83C0.959961 75.5771 22.6429 97.26 49.39 97.26Z" fill="#7116A0"/>
<path d="M49.2197 73.29L49.5298 25.33" stroke="#FF5408" stroke-width="11.6694" stroke-miterlimit="10" stroke-linecap="round" stroke-linejoin="round"/>
<path d="M24.2197 49.16L74.5398 49.46" stroke="#FF5408" stroke-width="11.6694" stroke-miterlimit="10" stroke-linecap="round" stroke-linejoin="round"/>
<path d="M46.47 3.91003C42.24 4.41003 31.81 6.23003 21.96 14.41C13.22 21.68 9.43996 30.23 7.95996 34.25" stroke="black" stroke-width="1.1669" stroke-miterlimit="10"/>
<path d="M54.0698 91.37C57.5098 91.04 69.2199 89.5 79.1399 79.76C87.8799 71.17 90.1599 61.2 90.8099 57.59" stroke="black" stroke-width="1.1669" stroke-miterlimit="10"/>
<path d="M51.1401 22.58V48.25H74.4801" stroke="black" stroke-width="1.1669" stroke-miterlimit="10"/>
</svg>
