<svg width="500" height="447" viewBox="0 0 500 447" fill="none" xmlns="http://www.w3.org/2000/svg">
<path d="M252.25 446.34C356.29 446.34 440.63 361.999 440.63 257.96C440.63 153.921 356.29 69.58 252.25 69.58C148.211 69.58 63.8701 153.921 63.8701 257.96C63.8701 361.999 148.211 446.34 252.25 446.34Z" fill="#FF5408"/>
<path d="M90.7498 157.88C45.2998 153.91 5.23984 187.52 1.25984 232.97C-2.72016 278.42 30.8998 318.48 76.3498 322.46" fill="#FF5408"/>
<path d="M412.98 157.44C458.56 155.43 497.13 190.74 499.15 236.32C501.16 281.9 465.85 320.47 420.27 322.49" fill="#FF5408"/>
<path d="M181.35 274.35C198.62 274.35 212.62 255.501 212.62 232.25C212.62 208.999 198.62 190.15 181.35 190.15C164.08 190.15 150.08 208.999 150.08 232.25C150.08 255.501 164.08 274.35 181.35 274.35Z" fill="white"/>
<path d="M328.02 274.35C345.29 274.35 359.29 255.501 359.29 232.25C359.29 208.999 345.29 190.15 328.02 190.15C310.75 190.15 296.75 208.999 296.75 232.25C296.75 255.501 310.75 274.35 328.02 274.35Z" fill="white"/>
<path d="M178.62 296.44C214.154 296.44 242.96 267.634 242.96 232.1C242.96 196.566 214.154 167.76 178.62 167.76C143.086 167.76 114.28 196.566 114.28 232.1C114.28 267.634 143.086 296.44 178.62 296.44Z" stroke="black" stroke-width="12.8363" stroke-miterlimit="10"/>
<path d="M333.83 296.44C369.364 296.44 398.17 267.634 398.17 232.1C398.17 196.566 369.364 167.76 333.83 167.76C298.296 167.76 269.49 196.566 269.49 232.1C269.49 267.634 298.296 296.44 333.83 296.44Z" stroke="black" stroke-width="12.8363" stroke-miterlimit="10"/>
<path d="M68.27 151.11L81.9399 137.75L122.51 191.03" stroke="black" stroke-width="12.8363" stroke-miterlimit="10"/>
<path d="M385.82 194.19L413.43 133.92L422.72 152.5" stroke="black" stroke-width="12.8363" stroke-miterlimit="10"/>
<path d="M243.62 232.1H268.83" stroke="black" stroke-width="12.8363" stroke-miterlimit="10"/>
<path d="M74.0099 184.42C47.6999 191.37 30.5499 215.45 32.6599 239.97C34.3699 259.82 48.4699 277.36 68.4899 284.58" fill="#7116A0"/>
<path d="M438.52 284.23C463.69 273.9 477.55 247.79 472.25 223.75C467.96 204.29 451.69 188.74 430.89 184.2" fill="#7116A0"/>
<path d="M180.74 274.28C194.359 274.28 205.4 264.063 205.4 251.46C205.4 238.857 194.359 228.64 180.74 228.64C167.121 228.64 156.08 238.857 156.08 251.46C156.08 264.063 167.121 274.28 180.74 274.28Z" fill="black"/>
<path d="M328.62 274.28C342.239 274.28 353.28 264.063 353.28 251.46C353.28 238.857 342.239 228.64 328.62 228.64C315.001 228.64 303.96 238.857 303.96 251.46C303.96 264.063 315.001 274.28 328.62 274.28Z" fill="black"/>
<path d="M156.73 326.95H354.4C355.4 336.14 357.6 367.1 337.15 390.63C316.14 414.8 284.94 415.34 256.23 415.84C235.87 416.19 203.75 416.75 180.61 394.61C169.18 383.68 163.63 370.74 162.04 366.75C155.16 349.59 155.88 334.4 156.73 326.95Z" fill="black"/>
<path d="M193.21 328.94H160.04V356.8H193.21V328.94Z" fill="white" stroke="black" stroke-width="0.5835" stroke-miterlimit="10"/>
<path d="M233.01 328.94H199.84V356.8H233.01V328.94Z" fill="white" stroke="black" stroke-width="0.5835" stroke-miterlimit="10"/>
<path d="M272.81 328.94H239.64V356.8H272.81V328.94Z" fill="white" stroke="black" stroke-width="0.5835" stroke-miterlimit="10"/>
<path d="M351.08 328.94H317.91V356.8H351.08V328.94Z" fill="white" stroke="black" stroke-width="0.5835" stroke-miterlimit="10"/>
<path d="M312.61 328.94H279.44V356.8H312.61V328.94Z" fill="white" stroke="black" stroke-width="0.5835" stroke-miterlimit="10"/>
<path d="M256.22 255.31L232.35 311.03H278.78L256.22 255.31Z" fill="#7116A0"/>
<path d="M116.93 123.93L385.82 121.14L404.81 5.91003L99.6797 0.599976L116.93 123.93Z" fill="#7116A0"/>
<path d="M251.98 94.45L252.39 31.11" stroke="#FF5408" stroke-width="11.6694" stroke-miterlimit="10" stroke-linecap="round" stroke-linejoin="round"/>
<path d="M218.96 62.59L285.41 62.98" stroke="#FF5408" stroke-width="11.6694" stroke-miterlimit="10" stroke-linecap="round" stroke-linejoin="round"/>
<path d="M125.24 30.79L149.12 140.9L114.62 168.76" stroke="black" stroke-width="1.1669" stroke-miterlimit="10"/>
<path d="M27.73 206.57C30.3 201.74 35.86 192.82 46.3 185.34C56.35 178.14 66.16 175.68 71.51 174.73" stroke="black" stroke-width="1.1669" stroke-miterlimit="10"/>
<path d="M255.65 255.01L228.48 306.28L265.62 305.03L258.99 293.76" stroke="black" stroke-width="1.1669" stroke-miterlimit="10"/>
<path d="M234.68 426.79C239.6 428.13 246.41 429.44 254.58 429.44C259.68 429.44 266.6 428.93 274.48 426.79" stroke="black" stroke-width="1.1669" stroke-miterlimit="10"/>
<path d="M212.81 261.86C211.56 264.11 205.28 274.89 191.58 279.11C177.46 283.45 165.89 277.61 163.72 276.46" stroke="black" stroke-width="1.1669" stroke-miterlimit="10"/>
<path d="M298.58 264.51C300.22 267.05 305.94 275.2 317.15 279.1C328.52 283.06 338.2 280.08 341.03 279.1" stroke="black" stroke-width="1.1669" stroke-miterlimit="10"/>
<path d="M393.88 26.14L373.98 126.97" stroke="black" stroke-width="1.1669" stroke-miterlimit="10"/>
<path d="M374.25 12.88H403.85" stroke="black" stroke-width="1.1669" stroke-miterlimit="10"/>
<path d="M383.27 26.14L377.96 52.6801" stroke="black" stroke-width="1.1669" stroke-miterlimit="10"/>
<path d="M490.72 249.02C489.61 256.48 486.61 269.34 477.45 282.19C461.39 304.72 437.86 311.11 431.02 312.7" stroke="black" stroke-width="1.1669" stroke-miterlimit="10"/>
<path d="M254.58 26.14V58.65L286.42 59.3101" stroke="black" stroke-width="1.1669" stroke-miterlimit="10"/>
<path d="M124.57 333.92C135.56 333.92 144.47 325.01 144.47 314.02C144.47 303.03 135.56 294.12 124.57 294.12C113.579 294.12 104.67 303.03 104.67 314.02C104.67 325.01 113.579 333.92 124.57 333.92Z" stroke="black" stroke-width="1.1669" stroke-miterlimit="10"/>
<path d="M385.92 333.92C396.911 333.92 405.82 325.01 405.82 314.02C405.82 303.03 396.911 294.12 385.92 294.12C374.93 294.12 366.02 303.03 366.02 314.02C366.02 325.01 374.93 333.92 385.92 333.92Z" stroke="black" stroke-width="1.1669" stroke-miterlimit="10"/>
</svg>
