<svg width="168" height="338" viewBox="0 0 168 338" fill="none" xmlns="http://www.w3.org/2000/svg">
<path d="M130.62 313.79H31.7603V337.3H130.62V313.79Z" fill="#FF5408"/>
<path d="M166.9 231.01C167.08 179.82 167.25 128.62 167.43 77.4301C165.05 69.8501 157.93 64.77 150.12 65C142.65 65.22 136.06 70.2701 133.84 77.5201C133.79 59.9201 133.74 42.33 133.69 24.73C131.3 16.61 123.74 11.1 115.42 11.34C107.44 11.57 100.42 17.04 98.1802 24.83C98.1702 21.63 98.1601 18.43 98.1501 15.23C96.3401 6.48003 88.4301 0.400051 79.8701 0.880051C71.9701 1.33005 65.1801 7.26999 63.5901 15.32C63.6101 21.08 63.6201 26.84 63.6401 32.6C61.9401 23.12 53.3901 16.5601 44.4001 17.3001C36.3701 17.9501 29.5301 24.29 28.1301 32.7C28.3301 48.22 28.5401 63.73 28.7401 79.25C27.9401 71.48 21.1401 65.82 13.8301 66.33C7.17008 66.8 1.56016 72.28 0.910156 79.32L0.580078 231.23C9.76008 270.42 45.1902 298.08 85.0502 297.46C124.02 296.86 158.03 269.35 166.9 231.01Z" fill="#7116A0"/>
<path d="M28.4004 76.22V139.57" stroke="black" stroke-width="2.3326" stroke-miterlimit="10"/>
<path d="M63.9199 29.1899V120.38" stroke="black" stroke-width="2.3326" stroke-miterlimit="10"/>
<path d="M97.5103 27.27V120.38" stroke="black" stroke-width="2.3326" stroke-miterlimit="10"/>
<path d="M133.99 29.1899V120.38" stroke="black" stroke-width="2.3326" stroke-miterlimit="10"/>
<path d="M64.4003 76.22H43.2803" stroke="black" stroke-width="2.3326" stroke-miterlimit="10"/>
<path d="M64.4003 90.62H43.2803" stroke="black" stroke-width="2.3326" stroke-miterlimit="10"/>
<path d="M97.9899 75.26H76.8799" stroke="black" stroke-width="2.3326" stroke-miterlimit="10"/>
<path d="M97.9899 89.66H76.8799" stroke="black" stroke-width="2.3326" stroke-miterlimit="10"/>
<path d="M167.1 123.26H145.99" stroke="black" stroke-width="2.3326" stroke-miterlimit="10"/>
<path d="M167.1 137.65H145.99" stroke="black" stroke-width="2.3326" stroke-miterlimit="10"/>
<path d="M27.92 123.26H6.81006" stroke="black" stroke-width="2.3326" stroke-miterlimit="10"/>
<path d="M27.92 137.65H6.81006" stroke="black" stroke-width="2.3326" stroke-miterlimit="10"/>
<path d="M31.7703 276.83L31.7603 337.3C36.8703 332.94 52.9102 320.37 76.9802 319.04C106.25 317.42 126.25 333.58 130.62 337.3C130.62 317.14 130.62 296.99 130.62 276.83" fill="#7116A0"/>
<path d="M42.9702 288.35V306.59" stroke="black" stroke-width="2.3326" stroke-miterlimit="10"/>
<path d="M37.04 307.07V329.15" stroke="black" stroke-width="2.3326" stroke-miterlimit="10"/>
<path d="M45.5898 318.47C50.3698 315.54 59.7999 310.63 72.7399 309.38C85.3899 308.16 95.3899 311.01 100.64 312.92" stroke="black" stroke-width="2.3326" stroke-miterlimit="10"/>
<path d="M11.1504 184.54H158.33C157.75 190.62 153.03 234.27 123.7 252.65C109.32 261.66 93.7004 261.66 84.7404 261.66C75.7804 261.66 60.1704 261.66 45.7804 252.65C16.4404 234.27 11.7204 190.62 11.1504 184.54Z" fill="#7116A0"/>
<path d="M24.9302 193.2C62.4502 193.46 99.9601 193.72 137.48 193.99C137.48 195.04 137.48 196.09 137.48 197.14C137.48 197.15 137.48 198.71 137.48 198.71C137.48 200.46 136.86 210.75 135.91 215.24C134.57 221.52 128.5 235.43 114.61 243.94C103.55 250.72 92.9101 250.66 83.5701 250.66C74.7101 250.66 63.8502 250.6 52.5302 243.94C35.2702 233.79 28.8801 215.28 28.0901 209.73C27.9901 209.04 27.5201 205.35 26.5201 200.29C25.9101 197.27 25.3302 194.81 24.9302 193.2Z" fill="black" stroke="#7116A0" stroke-width="2.3326" stroke-miterlimit="10"/>
<path d="M45.01 196.28H29.02V209.71H45.01V196.28Z" fill="white" stroke="black" stroke-width="0.5831" stroke-miterlimit="10"/>
<path d="M63.1101 196.28H47.1201V209.71H63.1101V196.28Z" fill="white" stroke="black" stroke-width="0.5831" stroke-miterlimit="10"/>
<path d="M81.2102 196.28H65.2202V209.71H81.2102V196.28Z" fill="white" stroke="black" stroke-width="0.5831" stroke-miterlimit="10"/>
<path d="M99.3104 196.28H83.3203V209.71H99.3104V196.28Z" fill="white" stroke="black" stroke-width="0.5831" stroke-miterlimit="10"/>
<path d="M117.41 196.28H101.42V209.71H117.41V196.28Z" fill="white" stroke="black" stroke-width="0.5831" stroke-miterlimit="10"/>
<path d="M135.51 196.28H119.52V209.71H135.51V196.28Z" fill="white" stroke="black" stroke-width="0.5831" stroke-miterlimit="10"/>
<path d="M143.77 193.98H136.69V210.51H143.77V193.98Z" fill="#7116A0"/>
<path d="M28.08 193.2H21V209.73H28.08V193.2Z" fill="#7116A0"/>
<path d="M22.1602 201.46V189.26H44.6001" stroke="black" stroke-width="1.1663" stroke-miterlimit="10"/>
<path d="M74.5 255.76H91.8199" stroke="black" stroke-width="1.1663" stroke-miterlimit="10"/>
</svg>
