<svg width="544" height="422" viewBox="0 0 544 422" fill="none" xmlns="http://www.w3.org/2000/svg">
<path d="M256.07 334.65H518.97C526.61 334.65 532.81 340.84 532.81 348.49V373.33C532.81 380.97 526.62 387.17 518.97 387.17H256.07C248.43 387.17 242.23 380.98 242.23 373.33V348.49C242.24 340.84 248.43 334.65 256.07 334.65Z" fill="#FF5408"/>
<path d="M543.31 130.27V373.33C543.31 380.97 537.12 387.17 529.47 387.17H504.63C496.99 387.17 490.79 380.98 490.79 373.33V130.27C490.79 122.63 496.98 116.43 504.63 116.43H529.47C537.11 116.43 543.31 122.63 543.31 130.27Z" fill="#FF5408"/>
<path d="M520.14 168.94H258.41C250.77 168.94 244.57 162.75 244.57 155.1V130.26C244.57 122.62 250.76 116.42 258.41 116.42H520.14C527.78 116.42 533.98 122.61 533.98 130.26V155.1C533.97 162.75 527.78 168.94 520.14 168.94Z" fill="#FF5408"/>
<path d="M244.57 155.11V69.59C244.57 61.95 250.76 55.75 258.41 55.75H283.25C290.89 55.75 297.09 61.94 297.09 69.59V155.11C297.09 162.75 290.9 168.95 283.25 168.95H258.41C250.77 168.94 244.57 162.75 244.57 155.11Z" fill="#FF5408"/>
<path d="M196.56 55.75H283.25C290.89 55.75 297.09 61.94 297.09 69.59V94.43C297.09 102.07 290.9 108.27 283.25 108.27H196.56C188.92 108.27 182.72 102.08 182.72 94.43V69.59C182.72 61.95 188.92 55.75 196.56 55.75Z" fill="#FF5408"/>
<path d="M235.24 14.74V94.43C235.24 102.07 229.05 108.27 221.4 108.27H196.56C188.92 108.27 182.72 102.08 182.72 94.43V14.74C182.72 7.09999 188.91 0.899994 196.56 0.899994H221.4C229.04 0.899994 235.24 7.09999 235.24 14.74Z" fill="#FF5408"/>
<path d="M256.29 322.98H238.39V398.22H256.29V322.98Z" fill="#FF5408"/>
<path d="M196.7 11.14C200.2 14.31 204.46 16.82 208.48 19.28C212.61 21.8 216.85 24.14 221.19 26.3C223.2 27.3 224.98 24.28 222.96 23.28C218.76 21.19 214.65 18.93 210.64 16.5C206.75 14.14 202.57 11.74 199.18 8.68C197.5 7.15 195.02 9.62002 196.7 11.14Z" fill="#7116A0"/>
<path d="M221.071 9.23998C211.971 13.94 202.871 18.64 193.771 23.35C194.481 24.27 195.181 25.18 195.891 26.1C196.121 25.87 196.311 25.64 196.451 25.35C197.421 23.33 194.401 21.55 193.431 23.58C193.431 23.59 193.421 23.61 193.421 23.62C191.961 25.05 193.811 27.26 195.541 26.37C204.641 21.67 213.741 16.97 222.841 12.26C224.841 11.23 223.071 8.20998 221.071 9.23998Z" fill="#7116A0"/>
<path d="M200.43 37.09C203.53 34.75 207.25 33.65 211.12 33.71C214.49 33.76 219.3 34.55 221.46 37.45C223.47 40.16 222.48 44.29 220.33 46.6C217.67 49.47 213.64 50.64 209.86 51.06C204.67 51.63 199.45 51.07 194.48 49.51C194.91 50.07 195.34 50.64 195.77 51.2C195.4 51.57 195.03 51.94 194.66 52.31C196.91 52.41 196.91 48.91 194.66 48.81C193.3 48.75 192.21 49.84 192.27 51.2C192.3 52 192.79 52.65 193.56 52.89C198.8 54.54 204.4 55.16 209.88 54.57C214.57 54.06 219.51 52.66 222.82 49.09C225.72 45.96 226.98 41.11 225.25 37.09C223.33 32.64 218.09 30.96 213.65 30.4C208.43 29.74 202.91 30.88 198.67 34.08C197.91 34.65 197.54 35.58 198.04 36.47C198.46 37.21 199.67 37.65 200.43 37.09Z" fill="#7116A0"/>
<path d="M209.99 31.93C208.19 38.95 207.18 46.1 206.74 53.33C206.6 55.58 210.1 55.57 210.24 53.33C210.67 46.4 211.64 39.59 213.37 32.86C213.93 30.68 210.55 29.75 209.99 31.93Z" fill="#7116A0"/>
<path d="M212.33 65.18C212.47 75.43 212.6 85.68 212.74 95.94C212.76 97.68 215.1 98.31 216 96.82C216.08 96.69 216.15 96.57 216.23 96.44C217.4 94.51 214.37 92.75 213.21 94.67C213.13 94.8 213.06 94.92 212.98 95.05C214.07 95.34 215.15 95.64 216.24 95.93C216.1 85.68 215.97 75.43 215.83 65.17C215.8 62.93 212.3 62.93 212.33 65.18Z" fill="#7116A0"/>
<path d="M224.97 68.48C215.74 74.75 206.26 80.65 196.57 86.16C194.61 87.27 196.37 90.3 198.34 89.18C208.04 83.66 217.51 77.76 226.74 71.5C228.59 70.24 226.84 67.21 224.97 68.48Z" fill="#7116A0"/>
<path d="M233.46 95.58C233.15 91.32 232.91 87.05 233.03 82.78C233.13 79.3 233.18 75.11 235.42 72.23C236.9 70.32 240.48 68.93 242.27 71.23C243.33 72.6 243.55 74.6 243.81 76.26C244.13 78.26 244.31 80.29 244.38 82.31C244.55 87.08 244.07 91.82 242.96 96.46C242.44 98.65 245.81 99.58 246.34 97.39C247.5 92.54 248.05 87.53 247.89 82.54C247.81 80.05 247.55 77.56 247.15 75.09C246.82 73.08 246.4 70.99 245.18 69.31C242.83 66.08 238.44 65.88 235.18 67.84C231.46 70.08 230.23 74.48 229.79 78.53C229.18 84.18 229.55 89.92 229.96 95.57C230.12 97.81 233.63 97.83 233.46 95.58Z" fill="#7116A0"/>
<path d="M232.331 84.7C234.421 84.62 236.511 84.54 238.601 84.46C239.631 84.42 240.651 84.38 241.681 84.34C242.751 84.3 243.831 84.25 244.851 83.9C245.741 83.6 246.331 82.7 246.071 81.75C245.831 80.88 244.821 80.22 243.921 80.53C243.061 80.82 242.281 80.82 241.321 80.86C240.331 80.9 239.351 80.94 238.361 80.97C236.351 81.05 234.341 81.12 232.331 81.2C231.391 81.24 230.581 81.98 230.581 82.95C230.581 83.87 231.391 84.74 232.331 84.7Z" fill="#7116A0"/>
<path d="M260.93 76.93C265.37 82.86 269.81 88.78 274.25 94.71C276.44 97.64 278.64 100.57 280.83 103.5C281.7 104.66 282.57 106.37 284.28 106.1C285.99 105.84 286.25 103.87 285.26 102.72C284.89 102.29 284.09 102.06 283.56 102.27C283.52 102.29 283.48 102.3 283.44 102.32C281.36 103.12 282.26 106.51 284.37 105.7C284.41 105.68 284.45 105.67 284.49 105.65C283.92 105.5 283.35 105.35 282.79 105.2C282.68 105.04 282.58 104.88 282.47 104.73C282.62 104.16 282.77 103.59 282.92 103.03C282.88 103.07 282.85 103.12 282.81 103.16C283.22 102.99 283.64 102.82 284.05 102.65C284.66 102.67 284.58 102.89 284.3 102.35C284.12 102.01 283.79 101.66 283.55 101.35C283.15 100.82 282.75 100.28 282.35 99.75C281.45 98.55 280.55 97.35 279.66 96.15C277.91 93.82 276.17 91.49 274.42 89.16C270.93 84.5 267.44 79.84 263.94 75.18C263.37 74.42 262.43 74.05 261.55 74.55C260.81 74.97 260.36 76.18 260.93 76.93Z" fill="#7116A0"/>
<path d="M281.45 77.13C274.43 84.59 267.11 91.76 259.51 98.62C257.98 100.01 259.93 102.24 261.63 101.37C261.91 101.23 262.19 101.09 262.46 100.94C264.47 99.91 262.7 96.89 260.69 97.92C260.41 98.06 260.13 98.2 259.86 98.35C260.57 99.27 261.27 100.18 261.98 101.1C269.58 94.23 276.9 87.06 283.92 79.61C285.47 77.96 283 75.48 281.45 77.13Z" fill="#7116A0"/>
<path d="M257 129.15C260.63 126.96 264.74 125.58 268.98 125.29C272.26 125.07 276.39 125.22 278.86 127.72C281.54 130.43 280.35 134.93 278.68 137.85C276.86 141.04 273.96 143.48 270.66 145.03C266.31 147.07 261.37 147.44 256.64 147.06C254.39 146.88 254.41 150.38 256.64 150.56C266.06 151.32 276.39 148.49 281.52 139.94C283.79 136.16 285.08 130.77 282.56 126.79C280.24 123.13 275.72 121.87 271.62 121.75C265.88 121.57 260.13 123.18 255.23 126.14C253.31 127.29 255.06 130.32 257 129.15Z" fill="#7116A0"/>
<path d="M264.69 126.01C264.69 133.6 264.69 141.18 264.69 148.77C264.69 151.02 268.19 151.03 268.19 148.77C268.19 148.53 268.19 148.28 268.19 148.04C268.19 145.79 264.69 145.78 264.69 148.04C264.69 148.28 264.69 148.53 264.69 148.77C264.69 151.02 268.19 151.03 268.19 148.77C268.19 141.18 268.19 133.6 268.19 126.01C268.19 123.75 264.69 123.75 264.69 126.01Z" fill="#7116A0"/>
<path d="M295.48 130.98C301.62 138.84 307.55 146.85 313.28 155.01C314.56 156.84 317.6 155.09 316.3 153.24C310.4 144.84 304.28 136.59 297.95 128.5C297.36 127.75 296.09 127.9 295.47 128.5C294.73 129.23 294.9 130.24 295.48 130.98Z" fill="#7116A0"/>
<path d="M309.47 130.7C304.38 138.59 299.29 146.48 294.2 154.37C293.21 155.91 295.12 157.54 296.59 156.76C297.39 156.34 298.01 155.72 298.38 154.89C298.77 154.02 298.62 153.02 297.75 152.5C297.01 152.05 295.74 152.27 295.36 153.13C295.18 153.53 295.22 153.54 294.82 153.74C295.62 154.54 296.42 155.34 297.21 156.13C302.3 148.24 307.39 140.35 312.48 132.46C313.72 130.57 310.69 128.82 309.47 130.7Z" fill="#7116A0"/>
<path d="M327.021 154.12C326.391 149.85 325.631 145.57 325.151 141.28C324.771 137.83 324.721 133.77 327.151 130.98C329.131 128.71 333.001 128.03 334.741 130.94C335.661 132.48 336.051 134.37 336.481 136.1C336.971 138.07 337.371 140.07 337.681 142.07C338.401 146.7 338.551 151.42 338.261 156.1C338.121 158.35 341.621 158.34 341.761 156.1C342.061 151.17 341.831 146.25 341.091 141.37C340.731 138.97 340.241 136.6 339.621 134.26C339.061 132.13 338.451 129.92 337.061 128.17C334.561 125.04 329.841 124.72 326.591 126.86C322.911 129.28 321.481 133.77 321.461 137.98C321.441 140.75 321.941 143.51 322.351 146.24C322.781 149.17 323.221 152.1 323.651 155.03C323.791 155.97 324.971 156.47 325.801 156.25C326.811 156.01 327.161 155.06 327.021 154.12Z" fill="#7116A0"/>
<path d="M324.63 146.8C328.58 147.14 332.51 147.63 336.41 148.29C337.34 148.45 338.29 148.04 338.56 147.07C338.79 146.23 338.27 145.07 337.34 144.92C333.13 144.21 328.88 143.67 324.63 143.31C323.69 143.23 322.88 144.17 322.88 145.06C322.88 146.06 323.68 146.72 324.63 146.8Z" fill="#7116A0"/>
<path d="M349.43 129.1C355.24 138.78 361.34 148.29 367.71 157.61C368.97 159.46 372.01 157.71 370.73 155.84C364.36 146.52 358.26 137.01 352.45 127.33C351.3 125.4 348.27 127.16 349.43 129.1Z" fill="#7116A0"/>
<path d="M366.14 128.26C361.06 136.82 355.62 145.16 349.85 153.27C348.54 155.11 351.58 156.86 352.87 155.04C358.64 146.93 364.08 138.59 369.16 130.03C370.32 128.09 367.29 126.33 366.14 128.26Z" fill="#7116A0"/>
<path d="M382.94 156.8C381.73 152.38 380.98 147.86 380.8 143.28C380.65 139.44 380.87 135.12 383.53 132.07C384.63 130.81 386.1 129.8 387.8 129.59C389.8 129.34 391.09 130.59 392.16 132.12C394.42 135.33 395.58 139.2 395.94 143.08C396.43 148.31 395.66 153.55 394.88 158.72C394.74 159.66 395.12 160.59 396.1 160.87C396.92 161.11 398.11 160.58 398.25 159.65C399.74 149.76 401.22 138.45 394.81 129.85C393.44 128.01 391.81 126.5 389.45 126.16C387.25 125.85 384.97 126.5 383.15 127.76C379.23 130.47 377.61 135.09 377.32 139.68C376.93 145.69 377.99 151.96 379.57 157.74C380.15 159.9 383.53 158.98 382.94 156.8Z" fill="#7116A0"/>
<path d="M379.391 148.45C382.101 149.38 384.98 149.31 387.8 149.08C390.51 148.86 393.3 148.48 395.99 149.06C396.91 149.26 397.881 148.79 398.141 147.84C398.381 146.97 397.851 145.89 396.921 145.69C394.081 145.08 391.24 145.3 388.37 145.54C385.66 145.77 382.931 145.98 380.321 145.08C378.191 144.34 377.271 147.72 379.391 148.45Z" fill="#7116A0"/>
<path d="M411.57 130.01C418.41 139.49 425.24 148.96 432.08 158.44C433.39 160.25 436.42 158.51 435.1 156.67C434.84 156.31 434.58 155.95 434.32 155.59C433.01 153.78 429.98 155.52 431.3 157.36C431.56 157.72 431.82 158.08 432.08 158.44C433.09 157.85 434.1 157.26 435.1 156.67C428.26 147.19 421.43 137.72 414.59 128.24C413.29 126.44 410.25 128.18 411.57 130.01Z" fill="#7116A0"/>
<path d="M426.96 128.38C421.33 137.96 416.14 147.79 411.4 157.84C410.44 159.87 413.46 161.65 414.42 159.61C419.16 149.56 424.35 139.73 429.98 130.15C431.13 128.2 428.11 126.43 426.96 128.38Z" fill="#7116A0"/>
<path d="M444.07 157.46C443.48 153.22 442.89 148.99 442.3 144.75C441.82 141.29 441.09 137.47 442.31 134.09C442.82 132.67 443.83 131.17 445.32 130.66C446.68 130.2 448.15 130.82 449.2 131.7C452.04 134.07 452.38 138.52 452.94 141.92C453.71 146.58 454.12 151.29 454.24 156.02C454.3 158.27 457.8 158.28 457.74 156.02C457.61 151.06 457.14 146.12 456.35 141.23C455.66 137 455.03 132.03 451.52 129.11C448.34 126.46 443.87 126.24 441.01 129.51C438.12 132.81 437.91 137.34 438.36 141.5C438.97 147.14 439.9 152.77 440.68 158.39C440.81 159.33 442.01 159.83 442.83 159.61C443.86 159.35 444.2 158.39 444.07 157.46Z" fill="#7116A0"/>
<path d="M440.761 149.06C444.011 148.75 447.361 148.17 450.631 148.42C451.371 148.48 452.091 148.59 452.821 148.72C453.641 148.87 454.551 149.16 455.381 149.08C456.401 148.97 457.211 148.18 457.221 147.13C457.231 146.12 456.251 145.19 455.241 145.26C454.671 145.3 453.981 145.55 453.731 146.13C453.721 146.15 453.711 146.18 453.701 146.2C453.331 147.07 453.441 148.08 454.331 148.59C455.071 149.02 456.351 148.84 456.721 147.96C456.731 147.94 456.741 147.91 456.751 147.89C456.251 148.18 455.741 148.47 455.241 148.76C455.271 148.76 455.291 148.76 455.321 148.75C455.031 148.67 454.731 148.59 454.441 148.51C454.371 148.46 454.301 148.41 454.241 148.36C454.071 147.95 453.901 147.53 453.731 147.12C453.731 147.15 453.731 147.18 453.721 147.21C453.891 146.8 454.061 146.38 454.231 145.97C454.191 146.01 454.141 146.04 454.101 146.08C454.361 145.93 454.611 145.78 454.871 145.63C455.541 145.52 454.641 145.5 454.451 145.46C454.171 145.41 453.891 145.36 453.621 145.31C452.961 145.19 452.291 145.09 451.621 145.01C450.441 144.86 449.261 144.83 448.071 144.89C445.631 145.01 443.201 145.31 440.771 145.55C439.831 145.64 439.021 146.29 439.021 147.3C439.011 148.18 439.821 149.15 440.761 149.06Z" fill="#7116A0"/>
<path d="M466.52 130.91C471.48 140.5 476.07 150.28 480.25 160.24C480.59 161.05 481.23 161.62 482.17 161.49C482.98 161.38 483.74 160.64 483.69 159.77C483.66 159.3 483.63 158.83 483.61 158.36C483.48 156.12 479.98 156.11 480.11 158.36C480.14 158.83 480.17 159.3 480.19 159.77C481.34 159.61 482.48 159.46 483.63 159.3C479.33 149.06 474.65 139 469.55 129.14C468.5 127.14 465.48 128.91 466.52 130.91Z" fill="#7116A0"/>
<path d="M477.741 133.72C476.411 137.64 474.011 141.06 471.641 144.4C469.201 147.85 466.811 151.28 465.161 155.2C464.791 156.07 465.551 157.13 466.381 157.35C467.391 157.63 468.171 157 468.531 156.13C471.781 148.41 478.381 142.67 481.101 134.65C481.841 132.51 478.461 131.59 477.741 133.72Z" fill="#7116A0"/>
<path d="M493.611 158.43C495.551 150.89 500.321 144.07 506.951 139.92C508.431 139 510.861 137.64 512.491 138.97C514.151 140.32 513.721 142.86 513.191 144.63C512.111 148.2 510.13 151.55 507.66 154.32C504.77 157.55 501.171 160.12 497.121 161.68C497.571 162.75 498.02 163.81 498.47 164.88C498.74 164.72 499.001 164.55 499.271 164.39C501.191 163.21 499.431 160.18 497.501 161.37C497.231 161.53 496.971 161.7 496.701 161.86C495.081 162.85 496.131 165.8 498.051 165.06C506.771 161.72 514.211 154.28 516.691 145.14C517.351 142.72 517.431 140.01 516.051 137.82C514.651 135.57 512.16 134.65 509.601 135.08C507.131 135.49 504.921 136.97 502.961 138.45C501.091 139.86 499.361 141.43 497.821 143.2C494.221 147.31 491.601 152.21 490.231 157.51C489.671 159.68 493.041 160.61 493.611 158.43Z" fill="#7116A0"/>
<path d="M496.371 146.8C499.271 150.78 501.641 155.14 503.321 159.76C503.641 160.65 504.511 161.25 505.471 160.98C506.331 160.74 507.021 159.72 506.691 158.83C504.901 153.91 502.471 149.26 499.381 145.03C498.821 144.27 497.861 143.89 496.991 144.4C496.241 144.85 495.811 146.04 496.371 146.8Z" fill="#7116A0"/>
<path d="M501.32 174.17C503.28 173.1 505.57 173.52 507.64 174.03C510.11 174.65 512.55 175.4 514.97 176.17C519.93 177.74 524.81 179.52 529.61 181.5C530.49 181.86 531.53 181.11 531.76 180.28C532.05 179.28 531.41 178.49 530.54 178.13C525.3 175.97 519.96 174.04 514.54 172.38C509.9 170.95 504.2 168.6 499.55 171.15C497.58 172.23 499.34 175.26 501.32 174.17Z" fill="#7116A0"/>
<path d="M525.24 163.94C523.2 168.21 519.03 171.08 515.5 174.04C511.33 177.54 507.15 181.04 502.98 184.54C501.25 185.99 503.74 188.45 505.46 187.02C509.75 183.42 514.04 179.83 518.32 176.23C521.99 173.15 526.15 170.15 528.27 165.71C529.23 163.68 526.21 161.91 525.24 163.94Z" fill="#7116A0"/>
<path d="M500.9 204.53C504.83 203.57 508.86 203.21 512.9 203.49C515.98 203.7 520.4 203.98 522.71 206.34C523.84 207.5 524.15 209.16 524.45 210.69C524.77 212.32 524.92 213.99 523.77 215.33C521.59 217.85 517.37 218.52 514.29 219.02C509.76 219.76 505.13 219.7 500.56 219.68C500.72 220.83 500.87 221.97 501.03 223.12C501.39 223.03 501.76 222.94 502.12 222.84C504.3 222.29 503.38 218.91 501.19 219.46C500.83 219.55 500.46 219.64 500.1 219.74C498.17 220.23 498.6 223.17 500.57 223.18C505.39 223.2 510.22 223.18 515 222.43C518.89 221.82 523.65 220.8 526.37 217.67C527.76 216.07 528.36 214.06 528.17 211.96C527.98 209.87 527.55 207.61 526.57 205.73C524.61 201.94 520.02 200.89 516.15 200.33C510.75 199.56 505.28 199.85 499.98 201.15C497.78 201.69 498.71 205.06 500.9 204.53Z" fill="#7116A0"/>
<path d="M507.521 203.22C507.721 209.14 507.911 215.06 508.111 220.99C509.281 220.99 510.441 220.99 511.611 220.99C511.521 220.09 511.441 219.18 511.351 218.28C511.261 217.34 510.611 216.53 509.601 216.53C508.721 216.53 507.761 217.33 507.851 218.28C507.941 219.18 508.021 220.09 508.111 220.99C508.201 221.93 508.851 222.74 509.861 222.74C510.781 222.74 511.641 221.94 511.611 220.99C511.411 215.07 511.221 209.15 511.021 203.22C510.951 200.97 507.451 200.96 507.521 203.22Z" fill="#7116A0"/>
<path d="M501.17 234.25C505.19 235.57 508.14 239.04 511.06 241.93C514.59 245.42 518.11 248.91 521.64 252.4C522.62 253.37 524.14 252.85 524.57 251.63C524.69 251.28 524.82 250.92 524.94 250.57C525.68 248.44 522.3 247.52 521.56 249.64C521.44 249.99 521.31 250.35 521.19 250.7C522.17 250.44 523.14 250.19 524.12 249.93C520.39 246.24 516.66 242.55 512.94 238.87C509.73 235.69 506.52 232.34 502.11 230.89C499.95 230.17 499.03 233.55 501.17 234.25Z" fill="#7116A0"/>
<path d="M524.23 232.7C517.13 238.79 509.22 243.87 500.77 247.87C499.31 248.56 499.88 250.63 501.19 251.07C501.58 251.2 501.96 251.33 502.35 251.46C504.49 252.18 505.41 248.8 503.28 248.08C502.89 247.95 502.51 247.82 502.12 247.69C502.26 248.76 502.4 249.82 502.54 250.89C511.27 246.76 519.38 241.45 526.71 235.17C528.42 233.71 525.93 231.24 524.23 232.7Z" fill="#7116A0"/>
<path d="M502.86 263.8C506.43 262.86 510.15 262.58 513.82 263.07C516.5 263.43 519.45 264.2 521.5 266.08C523.51 267.93 523.92 270.59 522.6 272.98C521.12 275.65 518.4 276.99 515.5 277.56C513.69 277.92 511.81 277.94 509.97 277.88C508.98 277.84 507.99 277.78 507 277.67C506.45 277.61 505.9 277.55 505.36 277.46C505.15 277.43 504.94 277.39 504.73 277.36C504.57 277.33 504.03 277.14 504.21 277.31C504.36 277.57 504.51 277.82 504.66 278.08C504.64 278.02 504.61 277.95 504.59 277.89C504.53 278.34 504.47 278.79 504.41 279.24C504.44 279.18 504.47 279.11 504.49 279.05C504.87 278.18 504.74 277.18 503.86 276.66C503.12 276.22 501.84 276.42 501.47 277.29C501.05 278.26 501.07 279.21 501.91 279.97C502.8 280.78 504.14 280.81 505.28 280.97C507.59 281.29 509.94 281.47 512.27 281.4C516.41 281.27 520.8 280.28 523.79 277.22C526.54 274.4 527.79 270.23 526.13 266.53C524.61 263.15 521.01 261.2 517.59 260.27C512.53 258.89 506.99 259.1 501.95 260.43C499.76 260.99 500.68 264.37 502.86 263.8Z" fill="#7116A0"/>
<path d="M508.36 261.1C508.66 267.35 508.96 273.6 509.26 279.85C509.37 282.09 512.87 282.11 512.76 279.85C512.46 273.6 512.16 267.35 511.86 261.1C511.75 258.86 508.25 258.85 508.36 261.1Z" fill="#7116A0"/>
<path d="M501.4 294.44C510.87 301.52 520.83 307.91 531.22 313.55C533.2 314.63 534.97 311.6 532.99 310.53C522.6 304.88 512.64 298.5 503.17 291.42C502.41 290.85 501.22 291.3 500.78 292.05C500.24 292.93 500.64 293.88 501.4 294.44Z" fill="#7116A0"/>
<path d="M526.681 293.16C519.551 300.06 512.101 306.61 504.341 312.78C503.601 313.37 503.721 314.64 504.341 315.26C505.071 315.99 506.071 315.85 506.821 315.26C514.581 309.09 522.041 302.54 529.161 295.64C530.781 294.07 528.301 291.59 526.681 293.16Z" fill="#7116A0"/>
<path d="M503.59 328.71C511.48 326.89 521.26 324.81 527.75 331.14C530.13 333.45 532.18 337.61 530.3 340.82C529.36 342.42 527.48 343.47 525.84 344.21C523.94 345.06 521.84 345.54 519.79 345.79C514.45 346.44 509.05 345.72 503.69 346.05C501.45 346.19 501.44 349.69 503.69 349.55C509.19 349.21 514.73 349.93 520.21 349.23C524.81 348.64 530.19 347.05 533.01 343.06C535.69 339.27 534.41 333.89 531.79 330.45C529.24 327.09 525.36 324.76 521.24 323.89C515.03 322.58 508.72 323.93 502.65 325.33C500.46 325.84 501.39 329.21 503.59 328.71Z" fill="#7116A0"/>
<path d="M511.711 328.3C512.051 331.42 512.161 334.55 512.031 337.68C511.971 339.21 511.851 340.75 511.671 342.27C511.501 343.72 511.381 345.31 510.951 346.7C511.101 346.44 511.251 346.19 511.401 345.93C511.361 345.97 511.321 346 511.281 346.04C511.851 345.89 512.421 345.74 512.981 345.59C512.951 345.58 512.911 345.57 512.881 345.56C513.231 345.83 513.581 346.1 513.931 346.36C513.911 346.33 513.901 346.3 513.881 346.27C513.881 346.86 513.881 347.45 513.881 348.04C513.901 348.02 513.911 347.99 513.931 347.97C515.191 346.09 512.161 344.34 510.911 346.2C510.891 346.22 510.881 346.25 510.861 346.27C510.511 346.79 510.571 347.51 510.861 348.04C511.341 348.92 512.521 349.3 513.401 348.79C514.291 348.27 514.411 347.3 514.571 346.38C514.931 344.35 515.191 342.3 515.361 340.25C515.691 336.27 515.621 332.27 515.191 328.29C515.091 327.35 514.461 326.54 513.441 326.54C512.591 326.55 511.611 327.36 511.711 328.3Z" fill="#7116A0"/>
<path d="M455.59 376.53C455.49 372.11 455.31 367.69 455.29 363.27C455.28 359.67 455.51 355.46 458.31 352.84C460.49 350.79 463.92 350.14 465.91 352.77C466.93 354.12 467.42 355.82 467.87 357.43C468.47 359.55 468.94 361.71 469.31 363.89C469.73 366.38 469.97 368.89 470.06 371.42C470.1 372.6 470.11 373.78 470.09 374.97C470.07 376.06 470.11 377.12 469.44 378.03C468.1 379.85 471.14 381.59 472.46 379.8C473.87 377.88 473.63 375.1 473.6 372.85C473.56 370.25 473.35 367.66 473 365.08C472.64 362.42 472.12 359.79 471.43 357.2C470.89 355.18 470.28 353.08 469.13 351.31C466.73 347.65 462.53 346.62 458.61 348.46C454.46 350.4 452.54 354.66 452.01 359C451.67 361.78 451.8 364.58 451.87 367.37C451.94 370.43 452.02 373.49 452.09 376.55C452.14 378.78 455.65 378.79 455.59 376.53Z" fill="#7116A0"/>
<path d="M452.311 370.71C458.641 370.75 464.961 370.78 471.291 370.82C473.541 370.83 473.551 367.33 471.291 367.32C464.961 367.28 458.641 367.25 452.311 367.21C450.061 367.2 450.061 370.7 452.311 370.71Z" fill="#7116A0"/>
<path d="M424.121 353.49C427.511 359.07 430.911 364.65 434.301 370.23C435.971 372.98 437.651 375.74 439.321 378.49C440.011 379.63 440.911 381.05 442.491 380.62C443.761 380.27 444.311 378.64 443.551 377.58C443.101 376.95 442.361 376.54 441.571 376.78C441.521 376.79 441.481 376.81 441.431 376.82C439.281 377.47 440.201 380.85 442.361 380.2C442.411 380.19 442.451 380.17 442.501 380.16C441.841 379.89 441.181 379.62 440.521 379.36C440.481 379.18 440.441 379 440.401 378.82C440.571 378.41 440.741 377.99 440.911 377.58C440.871 377.62 440.821 377.67 440.781 377.71C441.191 377.54 441.611 377.37 442.021 377.2C441.931 377.19 441.841 377.18 441.751 377.17C442.161 377.34 442.581 377.51 442.991 377.68C442.171 377.01 441.601 375.54 441.051 374.63C440.361 373.5 439.681 372.37 438.991 371.24C437.701 369.12 436.411 367 435.121 364.88C432.461 360.5 429.791 356.12 427.131 351.74C425.971 349.8 422.941 351.56 424.121 353.49Z" fill="#7116A0"/>
<path d="M435.831 352.01C434.021 356.98 431.591 361.71 428.621 366.1C427.181 368.23 425.611 370.24 423.941 372.18C423.101 373.15 422.241 374.13 421.571 375.23C421.251 375.75 420.981 376.3 420.771 376.87C420.681 377.12 420.591 377.36 420.521 377.62C420.181 378.88 420.611 377.34 421.781 378.1C419.891 376.87 418.131 379.89 420.011 381.12C421.311 381.97 422.731 381.21 423.411 379.97C423.731 379.4 423.791 378.77 424.001 378.17C424.231 377.51 424.621 376.9 425.031 376.33C426.781 373.89 428.911 371.72 430.661 369.27C434.251 364.25 437.091 358.73 439.201 352.93C439.981 350.82 436.601 349.91 435.831 352.01Z" fill="#7116A0"/>
<path d="M387.78 377.97C386.18 373.3 385.95 368.4 386.36 363.51C386.71 359.32 387.34 354.56 390.1 351.2C392.19 348.66 396.43 346.85 399.43 348.95C402.75 351.27 402.63 356.62 402.86 360.2C403.24 366.23 403.29 372.27 403.05 378.31C402.96 380.56 406.46 380.56 406.55 378.31C406.8 372.11 406.74 365.9 406.33 359.71C406.03 355.1 405.78 349.52 401.84 346.41C398.22 343.55 393.03 344.32 389.52 346.97C385.4 350.08 383.89 355.34 383.23 360.23C382.38 366.45 382.35 372.91 384.41 378.91C385.13 381.02 388.51 380.11 387.78 377.97Z" fill="#7116A0"/>
<path d="M384.521 366.76C387.811 366.7 391.091 366.63 394.381 366.57C395.961 366.54 397.531 366.51 399.111 366.48C399.901 366.46 400.691 366.45 401.481 366.43C401.941 366.42 402.401 366.41 402.861 366.4C403.061 366.4 403.251 366.39 403.451 366.39C403.361 366.34 403.281 366.34 403.211 366.38C403.061 366.12 402.911 365.87 402.761 365.61C402.781 365.66 402.801 365.71 402.821 365.76C402.821 365.45 402.821 365.14 402.821 364.83C402.811 364.88 402.801 364.93 402.791 364.98C402.941 364.72 403.091 364.47 403.241 364.21C403.201 364.25 403.151 364.29 403.111 364.33C401.461 365.87 403.941 368.34 405.591 366.81C407.251 365.26 405.521 363.09 403.681 362.92C401.611 362.74 399.421 362.97 397.341 363.01C393.071 363.09 388.801 363.17 384.531 363.26C382.271 363.3 382.261 366.8 384.521 366.76Z" fill="#7116A0"/>
<path d="M354.611 350.19C360.961 360.19 367.311 370.18 373.661 380.18C374.381 381.31 376.631 381.36 376.861 379.76C377.111 378.01 376.751 376.62 375.641 375.24C375.051 374.49 373.791 374.63 373.161 375.24C372.421 375.96 372.571 376.98 373.161 377.72C373.391 378.01 373.531 378.46 373.481 378.84C374.551 378.7 375.611 378.56 376.681 378.42C370.331 368.42 363.981 358.43 357.631 348.43C356.431 346.53 353.401 348.28 354.611 350.19Z" fill="#7116A0"/>
<path d="M367.82 349.19C361.35 359.24 353.95 368.66 345.72 377.33C344.17 378.96 346.64 381.44 348.2 379.81C356.63 370.93 364.21 361.26 370.84 350.96C372.07 349.06 369.04 347.3 367.82 349.19Z" fill="#7116A0"/>
<path d="M320.421 376.9C319.101 372.71 318.461 368.38 318.561 363.98C318.651 360.26 319.001 355.86 320.871 352.55C321.611 351.25 322.721 350.08 324.281 349.87C325.821 349.67 327.451 350.43 328.541 351.46C331.381 354.15 331.511 358.68 331.411 362.31C331.271 367.46 330.351 372.57 330.961 377.72C332.111 377.56 333.251 377.41 334.401 377.25C334.221 376.81 334.031 376.37 333.851 375.93C333.481 375.05 332.701 374.44 331.701 374.71C330.881 374.93 330.111 375.99 330.481 376.86C330.661 377.3 330.851 377.74 331.031 378.18C331.371 378.99 332.011 379.56 332.951 379.43C333.731 379.32 334.571 378.58 334.471 377.71C333.841 372.4 334.841 367.13 334.931 361.82C335.001 357.38 334.441 352.2 331.021 348.97C327.881 346 323.011 345.33 319.691 348.38C316.471 351.34 315.731 356.41 315.291 360.51C314.661 366.31 315.301 372.24 317.051 377.8C317.721 379.97 321.101 379.06 320.421 376.9Z" fill="#7116A0"/>
<path d="M316.131 365.89C321.401 367.73 327.061 368.42 332.621 367.87C333.561 367.78 334.371 367.13 334.371 366.12C334.371 365.25 333.571 364.28 332.621 364.37C327.341 364.89 322.081 364.27 317.061 362.51C316.171 362.2 315.151 362.86 314.911 363.73C314.641 364.7 315.231 365.58 316.131 365.89Z" fill="#7116A0"/>
<path d="M288.781 352.44C294.041 361.63 299.991 370.4 306.541 378.71C307.131 379.46 308.401 379.32 309.021 378.71C309.761 377.98 309.601 376.97 309.021 376.23C302.651 368.16 296.911 359.6 291.811 350.67C290.681 348.72 287.661 350.48 288.781 352.44Z" fill="#7116A0"/>
<path d="M300.521 348.6C294.751 358.71 288.001 368.24 280.361 377.03C278.891 378.72 281.351 381.21 282.841 379.51C290.681 370.5 297.631 360.75 303.551 350.38C304.661 348.41 301.641 346.64 300.521 348.6Z" fill="#7116A0"/>
<path d="M256.101 378.41C253.831 371.05 254.131 363.06 257.041 355.91C258.041 353.45 260.011 348.66 263.431 350.56C266.671 352.36 266.891 357.46 267.541 360.67C268.551 365.71 269.551 370.75 270.561 375.79C271.001 378 274.381 377.06 273.941 374.86C272.901 369.66 271.861 364.46 270.821 359.26C269.981 355.06 269.381 350.08 265.361 347.64C263.581 346.56 261.401 346.28 259.471 347.12C257.661 347.91 256.371 349.52 255.431 351.2C253.211 355.15 251.921 359.63 251.371 364.11C250.741 369.22 251.221 374.44 252.731 379.35C253.391 381.49 256.771 380.57 256.101 378.41Z" fill="#7116A0"/>
<path d="M252.2 368.65C257.32 368.65 262.43 368.65 267.55 368.65C269.8 368.65 269.81 365.15 267.55 365.15C262.43 365.15 257.32 365.15 252.2 365.15C249.95 365.15 249.95 368.65 252.2 368.65Z" fill="#7116A0"/>
<path d="M487.211 355.43C490.491 359.49 493.701 363.62 496.821 367.81C498.351 369.87 499.861 371.95 501.351 374.04C502.051 375.02 502.761 375.99 503.411 377C503.721 377.48 504.021 377.96 504.291 378.46C504.431 378.71 504.561 378.96 504.681 379.22C504.891 379.68 504.761 380 504.931 379.33C505.201 378.98 505.471 378.63 505.731 378.28C505.681 378.3 505.641 378.32 505.591 378.34C506.041 378.28 506.491 378.22 506.941 378.16C506.891 378.14 506.841 378.13 506.791 378.11C507.201 378.52 507.611 378.93 508.011 379.33C508.001 379.29 507.991 379.25 507.981 379.2C507.411 377.02 504.031 377.95 504.601 380.13C504.971 381.56 506.791 382.06 507.851 381.01C508.941 379.93 508.161 378.36 507.611 377.24C506.181 374.34 504.011 371.73 502.121 369.13C498.121 363.63 493.961 358.23 489.691 352.94C488.271 351.2 485.811 353.69 487.211 355.43Z" fill="#7116A0"/>
<path d="M502.58 354.23C495.81 362.74 489.04 371.25 482.27 379.76C481.68 380.51 481.56 381.51 482.27 382.24C482.87 382.86 484.16 382.98 484.75 382.24C491.52 373.73 498.29 365.22 505.06 356.71C505.65 355.96 505.77 354.96 505.06 354.23C504.45 353.61 503.17 353.49 502.58 354.23Z" fill="#7116A0"/>
<path d="M175.39 295.38C136.43 295.25 97.4702 295.11 58.5002 294.98C52.7302 296.79 48.8602 302.21 49.0402 308.16C49.2102 313.84 53.0502 318.86 58.5702 320.55C45.1802 320.59 31.7802 320.62 18.3902 320.66C12.2102 322.48 8.02016 328.24 8.20016 334.57C8.37016 340.64 12.5302 345.99 18.4602 347.69C16.0202 347.7 13.5902 347.7 11.1502 347.71C4.49016 349.08 -0.139839 355.11 0.230161 361.62C0.570161 367.63 5.09016 372.8 11.2202 374.01C15.6002 374 19.9902 373.99 24.3702 373.97C17.1502 375.26 12.1702 381.77 12.7202 388.61C13.2202 394.72 18.0402 399.93 24.4402 401C36.2502 400.85 48.0602 400.69 59.8702 400.54C53.9602 401.15 49.6502 406.33 50.0402 411.89C50.4002 416.96 54.5702 421.23 59.9302 421.72L175.54 421.97C205.37 414.98 226.42 388.02 225.95 357.68C225.51 328.01 204.57 302.12 175.39 295.38Z" fill="#7116A0"/>
<path d="M57.5801 400.78H105.8" stroke="black" stroke-width="1.1669" stroke-miterlimit="10"/>
<path d="M21.7803 373.75H91.1903" stroke="black" stroke-width="1.1669" stroke-miterlimit="10"/>
<path d="M20.3203 348.18H91.1903" stroke="black" stroke-width="1.1669" stroke-miterlimit="10"/>
<path d="M21.7803 320.42H91.1903" stroke="black" stroke-width="1.1669" stroke-miterlimit="10"/>
<path d="M57.5801 373.39V389.46" stroke="black" stroke-width="1.1669" stroke-miterlimit="10"/>
<path d="M68.54 373.39V389.46" stroke="black" stroke-width="1.1669" stroke-miterlimit="10"/>
<path d="M56.8501 347.82V363.89" stroke="black" stroke-width="1.1669" stroke-miterlimit="10"/>
<path d="M67.8101 347.82V363.89" stroke="black" stroke-width="1.1669" stroke-miterlimit="10"/>
<path d="M93.3804 295.22V311.29" stroke="black" stroke-width="1.1669" stroke-miterlimit="10"/>
<path d="M104.33 295.22V311.29" stroke="black" stroke-width="1.1669" stroke-miterlimit="10"/>
<path d="M93.3804 401.15V417.22" stroke="black" stroke-width="1.1669" stroke-miterlimit="10"/>
<path d="M104.33 401.15V417.22" stroke="black" stroke-width="1.1669" stroke-miterlimit="10"/>
<path d="M151.09 401.15C151.26 398.02 152.59 379.29 168.62 366.08C181.93 355.12 196.8 355.02 200.76 355.12" stroke="black" stroke-width="1.1669" stroke-miterlimit="10"/>
<path d="M143.05 314.94C143.12 316.82 143.75 328.17 153.28 336.13C160.37 342.05 168.24 342.63 170.81 342.7" stroke="black" stroke-width="1.1669" stroke-miterlimit="10"/>
<path d="M210.26 398.22H256.28C252.96 394.33 243.4 382.12 242.39 363.8C241.16 341.52 253.46 326.3 256.28 322.97C240.94 322.97 225.6 322.97 210.26 322.97" fill="#7116A0"/>
</svg>
