<svg width="474" height="441" viewBox="0 0 474 441" fill="none" xmlns="http://www.w3.org/2000/svg">
<path d="M63.99 178.05V429.93C63.99 435.13 59.77 439.35 54.57 439.35H10.4C5.20002 439.35 0.97998 435.13 0.97998 429.93V178.05C0.97998 172.85 5.20002 168.63 10.4 168.63H54.57C59.77 168.63 63.99 172.84 63.99 178.05Z" fill="#7116A0"/>
<path d="M282.21 112.7V429.93C282.21 435.13 277.99 439.35 272.79 439.35H228.62C223.42 439.35 219.2 435.13 219.2 429.93V112.7C219.2 107.5 223.42 103.28 228.62 103.28H272.79C277.99 103.28 282.21 107.5 282.21 112.7Z" fill="#7116A0"/>
<path d="M377.9 19.35V142.87C377.9 148.07 373.68 152.29 368.48 152.29H324.31C319.11 152.29 314.89 148.07 314.89 142.87V19.35C314.89 14.15 319.11 9.92998 324.31 9.92998H368.48C373.68 9.91998 377.9 14.14 377.9 19.35Z" fill="#7116A0"/>
<path d="M272.79 440.52H10.4C5.20002 440.52 0.97998 436.3 0.97998 431.1V386.93C0.97998 381.73 5.20002 377.51 10.4 377.51H272.79C277.99 377.51 282.21 381.73 282.21 386.93V431.1C282.21 436.3 277.99 440.52 272.79 440.52Z" fill="#7116A0"/>
<path d="M368.48 152.29H228.62C223.42 152.29 219.2 148.07 219.2 142.87V98.7C219.2 93.5 223.42 89.28 228.62 89.28H368.48C373.68 89.28 377.9 93.5 377.9 98.7V142.87C377.9 148.07 373.68 152.29 368.48 152.29Z" fill="#7116A0"/>
<path d="M464.17 63.6H324.31C319.11 63.6 314.89 59.38 314.89 54.18V10.01C314.89 4.81001 319.11 0.589996 324.31 0.589996H464.17C469.37 0.589996 473.59 4.81001 473.59 10.01V54.18C473.59 59.38 469.37 63.6 464.17 63.6Z" fill="#7116A0"/>
<path d="M16.7099 183.17C20.3699 190.06 24.0099 196.97 27.6899 203.85C29.4699 207.18 31.2999 210.49 33.3799 213.63C34.1899 214.85 35.4099 216.45 37.0599 215.46C38.5899 214.54 38.2599 212.26 36.5699 211.78C34.3999 211.16 33.4699 214.54 35.6399 215.16C35.6899 215.17 35.7399 215.19 35.7999 215.2C35.3899 214.79 34.9799 214.38 34.5799 213.98C34.5799 213.8 34.5799 213.61 34.5699 213.43C34.8399 213.08 35.1099 212.73 35.3699 212.38C35.3199 212.42 35.2599 212.45 35.2099 212.49C35.6599 212.43 36.1099 212.37 36.5599 212.31C36.6499 212.38 36.7399 212.45 36.8399 212.53C36.7399 212.37 36.6399 212.21 36.5299 212.06C36.3099 211.73 36.0999 211.4 35.8799 211.07C35.4999 210.48 35.1199 209.87 34.7599 209.27C34.0199 208.06 33.3199 206.83 32.6299 205.6C31.1599 202.96 29.7599 200.28 28.3399 197.61C25.4699 192.2 22.5999 186.8 19.7299 181.39C18.6799 179.42 15.6499 181.18 16.7099 183.17Z" fill="#FF5408"/>
<path d="M38.28 182.14C34.35 187.02 30.4199 191.9 26.4999 196.78C22.8999 201.26 19.23 205.73 16.53 210.84C15.48 212.83 18.4999 214.6 19.5499 212.61C22.1899 207.62 25.76 203.26 29.28 198.88C33.1 194.13 36.9299 189.37 40.7499 184.62C41.3499 183.88 41.4599 182.87 40.7499 182.14C40.1499 181.52 38.88 181.41 38.28 182.14Z" fill="#FF5408"/>
<path d="M22.0601 261.46C21.2701 257.28 21.1301 252.96 21.6901 248.73C22.1301 245.43 23.0401 242.03 25.0101 239.3C26.6101 237.09 30.5901 234.01 33.1201 236.67C34.2201 237.82 34.68 239.45 35.1101 240.94C35.6901 242.96 36.1401 245.03 36.4401 247.11C37.1001 251.73 37.02 256.49 36.23 261.08C35.85 263.28 39.2301 264.23 39.6101 262.01C40.4501 257.07 40.6001 252.08 39.9501 247.11C39.6201 244.63 39.1301 242.19 38.4301 239.79C37.8601 237.83 37.12 235.85 35.73 234.32C32.52 230.8 27.4301 232.2 24.2701 234.96C21.1801 237.66 19.5001 241.73 18.6901 245.67C17.5501 251.18 17.6601 256.88 18.7001 262.39C19.1101 264.6 22.4801 263.66 22.0601 261.46Z" fill="#FF5408"/>
<path d="M19.6899 251.85C25.8499 252.34 31.97 253.24 38.02 254.51C40.22 254.97 41.16 251.6 38.95 251.13C32.6 249.79 26.1599 248.86 19.6899 248.34C18.7499 248.26 17.9399 249.2 17.9399 250.09C17.9399 251.11 18.7499 251.78 19.6899 251.85Z" fill="#FF5408"/>
<path d="M21.02 279.99C27.48 290.44 34.32 300.64 41.53 310.58C42.2 311.5 43.39 311.76 44.28 310.93C45.31 309.96 45.16 308.65 44.34 307.62C43.74 306.88 42.49 307.01 41.86 307.62C41.12 308.34 41.27 309.36 41.86 310.1C41.84 309.55 41.82 309.01 41.8 308.46C42.72 308.58 43.63 308.7 44.55 308.81C37.34 298.87 30.5 288.66 24.04 278.22C22.86 276.31 19.83 278.07 21.02 279.99Z" fill="#FF5408"/>
<path d="M37.8097 279.82C31.0397 290.71 24.5197 301.76 18.2397 312.94C17.1397 314.91 20.1597 316.67 21.2597 314.71C27.5397 303.53 34.0598 292.49 40.8298 281.59C42.0198 279.67 38.9897 277.91 37.8097 279.82Z" fill="#FF5408"/>
<path d="M24.7299 357.77C24.4199 353.11 23.9099 348.41 23.9099 343.73C23.9099 339.76 24.52 335.51 27.4 332.55C29.86 330.02 33.5299 328.88 36.5999 331.07C39.8799 333.41 40.7799 337.73 41.1199 341.5C41.3699 344.25 41.45 347.01 41.39 349.77C41.36 351.09 41.3 352.4 41.21 353.71C41.16 354.45 41.09 355.19 41.02 355.92C41 356.17 40.9699 356.41 40.9399 356.66C40.9199 356.87 40.8999 357.08 40.8599 357.29C40.7899 357.63 40.9 357.5 41.2 356.91C41.65 356.85 42.0999 356.79 42.5499 356.73C42.4999 356.71 42.45 356.69 42.4 356.68C42.75 356.95 43.1 357.22 43.45 357.48C43.45 357.92 43.46 358.37 43.46 358.81C42.8 359.08 42.1399 359.35 41.4799 359.61C41.5199 359.62 41.5699 359.63 41.6099 359.64C43.7999 360.14 44.7399 356.76 42.5399 356.26C42.4999 356.25 42.4499 356.24 42.4099 356.23C41.6199 356.05 40.8699 356.36 40.4299 357.03C39.7799 358.04 40.1699 359.45 41.2599 359.95C42.4999 360.52 43.7799 359.69 44.1699 358.47C44.5899 357.15 44.5599 355.57 44.6699 354.19C44.7999 352.55 44.87 350.9 44.9 349.26C44.98 343.74 44.9999 337.3 42.2399 332.33C39.8399 328.02 34.9899 325.22 30.0699 326.81C25.2699 328.36 22.08 332.77 21.02 337.56C20.31 340.75 20.35 344.04 20.53 347.28C20.73 350.77 20.9899 354.27 21.2299 357.76C21.3799 360 24.8799 360.02 24.7299 357.77Z" fill="#FF5408"/>
<path d="M23.87 349.07C30.99 349 38.11 348.66 45.2 348.05C47.43 347.86 47.45 344.36 45.2 344.55C38.1 345.16 30.99 345.5 23.87 345.57C21.62 345.59 21.61 349.1 23.87 349.07Z" fill="#FF5408"/>
<path d="M25.4098 379.18C24.8898 387.13 24.3599 395.08 23.8399 403.04C23.3199 410.88 22.7498 418.74 23.4198 426.59C23.5898 428.57 26.1698 428.95 26.8598 427.06C27.2298 426.03 27.5998 425.01 27.9798 423.98C28.7498 421.86 25.3698 420.94 24.5998 423.05C24.2298 424.08 23.8598 425.1 23.4798 426.13C24.6298 426.29 25.7698 426.44 26.9198 426.6C26.2498 418.75 26.8199 410.89 27.3399 403.05C27.8599 395.1 28.3898 387.15 28.9098 379.19C29.0598 376.93 25.5498 376.94 25.4098 379.18Z" fill="#FF5408"/>
<path d="M39.1599 391C28.2799 400.18 17.3899 409.36 6.50995 418.54C4.78995 419.99 7.26993 422.46 8.98993 421.02C19.8699 411.84 30.76 402.66 41.64 393.48C43.36 392.02 40.8799 389.55 39.1599 391Z" fill="#FF5408"/>
<path d="M55 427.71C54.85 422.45 54.7001 417.19 54.8901 411.93C54.9801 409.39 55.13 406.84 55.42 404.31C55.66 402.19 56.0801 399.95 57.1501 398.08C57.5801 397.33 58.15 396.43 58.94 396.03C59.8 395.59 60.9701 395.88 61.8301 396.22C63.5601 396.89 64.94 398.34 65.87 399.91C68.34 404.09 67.87 409.4 67.85 414.06C67.82 420.09 67.8001 426.12 67.7701 432.14C68.8601 431.85 69.9401 431.55 71.0301 431.26C70.6801 430.66 70.33 430.06 69.98 429.47C68.85 427.52 65.8201 429.28 66.9601 431.24C67.3101 431.84 67.66 432.44 68.01 433.03C68.89 434.53 71.2601 433.88 71.2701 432.15C71.3001 426.04 71.33 419.93 71.35 413.82C71.37 408.47 71.69 402.55 68.7 397.83C66.43 394.25 60.9101 390.3 56.7101 393.32C52.4501 396.38 52 402.58 51.63 407.34C51.11 414.12 51.3 420.93 51.49 427.72C51.57 429.96 55.07 429.97 55 427.71Z" fill="#FF5408"/>
<path d="M55.7699 419.48C60.1199 418.54 64.5599 418.18 69.0099 418.38C69.9599 418.42 70.7599 417.55 70.7599 416.63C70.7599 415.65 69.9599 414.92 69.0099 414.88C64.2599 414.67 59.49 415.1 54.84 416.11C53.92 416.31 53.3799 417.39 53.6199 418.26C53.8799 419.21 54.8399 419.68 55.7699 419.48Z" fill="#FF5408"/>
<path d="M79.7999 395.6C88.5299 407.9 97.38 420.12 106.33 432.26C107.13 433.35 109.2 433.47 109.53 431.84C109.63 431.33 109.73 430.83 109.83 430.32C110.27 428.12 106.9 427.18 106.45 429.39C106.35 429.9 106.25 430.4 106.15 430.91C107.22 430.77 108.28 430.63 109.35 430.49C100.4 418.35 91.55 406.13 82.82 393.83C81.53 392.01 78.4899 393.76 79.7999 395.6Z" fill="#FF5408"/>
<path d="M102.77 393.29C96.4398 404.77 90.0998 416.26 83.7698 427.74C84.8598 428.03 85.9398 428.33 87.0298 428.62C87.0598 428.14 87.0898 427.66 87.1198 427.18C87.2598 424.93 83.7598 424.94 83.6198 427.18C83.5898 427.66 83.5598 428.14 83.5298 428.62C83.4198 430.37 85.9798 430.98 86.7898 429.5C93.1198 418.02 99.4598 406.53 105.79 395.05C106.88 393.08 103.86 391.31 102.77 393.29Z" fill="#FF5408"/>
<path d="M123.21 430.02C122.69 424.94 122.17 419.83 122.47 414.72C122.73 410.21 123.59 405.24 126.25 401.47C127.33 399.94 129.29 398.01 131.34 398.15C133.26 398.28 134.53 401.39 135.22 402.88C137.12 406.98 137.65 411.65 137.87 416.11C138.17 422.13 137.98 428.17 137.38 434.17C137.16 436.41 140.66 436.39 140.88 434.17C141.48 428.11 141.67 421.99 141.36 415.91C141.09 410.66 140.34 405.32 137.97 400.56C136.92 398.45 135.48 395.92 133.18 395.02C130.63 394.03 127.91 395.17 125.9 396.78C121.93 399.94 120.22 405.32 119.46 410.14C118.41 416.75 119.02 423.41 119.71 430.02C119.93 432.23 123.44 432.26 123.21 430.02Z" fill="#FF5408"/>
<path d="M121.25 418.93C127.59 419.59 133.9 420.49 140.18 421.62C141.11 421.79 142.07 421.37 142.33 420.4C142.56 419.55 142.04 418.42 141.11 418.25C134.53 417.07 127.9 416.13 121.25 415.44C120.31 415.34 119.5 416.31 119.5 417.19C119.5 418.21 120.31 418.83 121.25 418.93Z" fill="#FF5408"/>
<path d="M150.45 399.27C155.22 404.44 159.71 409.87 163.85 415.56C165.9 418.37 167.86 421.25 169.74 424.17C170.57 425.46 171.28 427.15 172.43 428.19C173.58 429.23 175.28 429.23 176.13 427.84C177.31 425.91 174.28 424.15 173.11 426.07C173.07 426.13 173.04 426.19 173 426.25C173.35 425.98 173.7 425.71 174.05 425.45C174.78 425.85 174.99 425.86 174.7 425.48C174.62 425.35 174.54 425.22 174.46 425.09C174.26 424.77 174.06 424.45 173.86 424.13C173.46 423.49 173.05 422.85 172.64 422.22C171.82 420.95 170.99 419.69 170.13 418.44C168.39 415.88 166.58 413.36 164.7 410.89C161 406.01 157.07 401.3 152.92 396.8C151.39 395.14 148.92 397.62 150.45 399.27Z" fill="#FF5408"/>
<path d="M166.9 396.02C161.48 408 156.55 420.2 152.13 432.59C151.37 434.72 154.75 435.63 155.51 433.52C159.82 421.41 164.63 409.49 169.92 397.78C170.84 395.75 167.83 393.96 166.9 396.02Z" fill="#FF5408"/>
<path d="M191.12 427.68C190.08 423.01 189.3 418.29 188.82 413.53C188.59 411.19 188.41 408.85 188.32 406.5C188.25 404.83 188.23 403.07 188.82 401.48C190.22 397.66 194.61 399.17 196.56 401.62C199.24 404.97 200.43 409.67 201.62 413.71C203.18 419 204.65 424.31 206.16 429.61C206.78 431.77 210.15 430.85 209.54 428.68C208.01 423.3 206.53 417.91 204.94 412.55C203.56 407.89 202.08 402.55 198.79 398.83C195.94 395.62 190.56 394.16 187.23 397.55C184.07 400.76 184.74 406.06 185.04 410.13C185.49 416.34 186.41 422.52 187.76 428.6C188.24 430.81 191.61 429.88 191.12 427.68Z" fill="#FF5408"/>
<path d="M188.7 418.86C193.37 419.43 198.05 419.29 202.69 418.56C203.62 418.41 204.14 417.25 203.91 416.41C203.64 415.41 202.69 415.04 201.76 415.19C197.45 415.87 193.03 415.89 188.7 415.36C187.76 415.25 186.95 416.25 186.95 417.11C186.95 418.15 187.76 418.74 188.7 418.86Z" fill="#FF5408"/>
<path d="M218.37 399.62C225.57 411.52 236.03 420.82 246.38 429.9C246.95 428.92 247.52 427.95 248.08 426.97C247.84 426.91 247.6 426.85 247.37 426.79C245.19 426.23 244.26 429.6 246.44 430.17C246.68 430.23 246.92 430.29 247.15 430.35C248.76 430.76 250.22 428.62 248.85 427.42C238.73 418.54 228.42 409.48 221.38 397.85C220.23 395.93 217.2 397.68 218.37 399.62Z" fill="#FF5408"/>
<path d="M229.44 397.05C229.6 409.28 229.21 421.51 228.28 433.7C228.11 435.95 231.61 435.94 231.78 433.7C232.71 421.51 233.1 409.28 232.94 397.05C232.91 394.8 229.41 394.8 229.44 397.05Z" fill="#FF5408"/>
<path d="M263.36 403.78C255.56 401.25 247.87 397.23 241.77 391.69C240.34 390.4 239.04 388.97 238.1 387.28C237.74 386.64 237.16 385.82 237.59 385.12C238.04 384.39 238.96 383.85 239.72 383.51C243.52 381.85 247.91 383.78 251.43 385.28C256.12 387.28 260.61 389.7 264.9 392.46C266.8 393.68 268.56 390.65 266.67 389.44C262.25 386.6 257.61 384.14 252.77 382.08C248.39 380.22 243.43 378.31 238.71 380.16C236.78 380.92 234.59 382.41 234 384.53C233.39 386.74 235 389.19 236.26 390.87C239.13 394.69 243.28 397.6 247.29 400.12C252.01 403.09 257.11 405.43 262.41 407.15C264.57 407.85 265.49 404.47 263.36 403.78Z" fill="#FF5408"/>
<path d="M251.21 397.88C252.59 394.16 253.96 390.44 255.34 386.73C255.66 385.87 254.98 384.77 254.12 384.58C253.13 384.35 252.31 384.88 251.97 385.8C250.59 389.52 249.22 393.24 247.84 396.95C247.52 397.81 248.2 398.91 249.06 399.1C250.05 399.33 250.87 398.8 251.21 397.88Z" fill="#FF5408"/>
<path d="M236.27 362.13C242.3 363.21 248.35 362.83 254.38 361.94C260.48 361.04 266.53 359.79 272.59 358.67C274.8 358.26 273.87 354.89 271.66 355.29C265.92 356.35 260.18 357.51 254.41 358.41C248.74 359.3 242.89 359.77 237.2 358.74C235 358.35 234.05 361.73 236.27 362.13Z" fill="#FF5408"/>
<path d="M237.56 340.85C245.59 352.53 254.39 363.68 263.9 374.19C265.41 375.86 267.88 373.38 266.38 371.71C257.07 361.42 248.45 350.52 240.59 339.07C239.31 337.24 236.28 338.99 237.56 340.85Z" fill="#FF5408"/>
<path d="M271.56 337.64C266.55 337.4 261.59 336.6 256.76 335.23C252.31 333.97 247.78 332.36 243.98 329.66C241.22 327.7 236.84 323.33 239.83 319.87C242.97 316.23 248.54 317.87 252.5 318.83C258.26 320.22 263.97 321.78 269.65 323.47C269.96 322.34 270.27 321.22 270.58 320.09C270.23 320.03 269.89 319.96 269.54 319.9C267.34 319.5 266.39 322.87 268.61 323.28C268.96 323.34 269.3 323.41 269.65 323.47C271.84 323.87 272.77 320.75 270.58 320.09C264.75 318.35 258.88 316.76 252.96 315.33C247.89 314.11 242.09 313.01 237.85 316.88C236.13 318.45 235.14 320.73 235.36 323.06C235.61 325.7 237.16 328.01 238.94 329.89C242.51 333.65 247.43 335.8 252.24 337.46C258.46 339.61 264.99 340.8 271.56 341.12C273.82 341.25 273.81 337.75 271.56 337.64Z" fill="#FF5408"/>
<path d="M256.96 333.92C257.6 328.71 258.37 323.52 259.24 318.35C259.4 317.42 258.99 316.47 258.02 316.2C257.18 315.97 256.03 316.49 255.87 317.42C254.95 322.9 254.15 328.4 253.46 333.92C253.34 334.86 254.35 335.67 255.21 335.67C256.25 335.67 256.84 334.86 256.96 333.92Z" fill="#FF5408"/>
<path d="M236.85 300.08C248.29 295.26 260.06 291.26 272.06 288.09C274.24 287.52 273.31 284.14 271.13 284.71C259.13 287.87 247.36 291.88 235.92 296.7C235.04 297.07 234.43 297.85 234.7 298.85C234.92 299.68 235.98 300.44 236.85 300.08Z" fill="#FF5408"/>
<path d="M240.86 280.56C248.81 290.25 256.48 300.16 264.16 310.07C265.29 311.53 267.49 309.92 267.09 308.37C266.94 307.79 266.79 307.21 266.64 306.62C266.08 304.44 262.7 305.36 263.26 307.55C263.41 308.13 263.56 308.71 263.71 309.3C264.69 308.73 265.66 308.16 266.64 307.6C258.97 297.69 251.29 287.78 243.34 278.09C241.9 276.34 239.44 278.83 240.86 280.56Z" fill="#FF5408"/>
<path d="M267.57 269.85C262.23 269.37 256.98 268.25 251.83 266.79C249.33 266.08 246.84 265.32 244.4 264.45C242.28 263.69 240.1 262.75 238.46 261.16C237.06 259.8 235.96 257.78 236.24 255.78C236.51 253.8 238.2 252.32 239.96 251.58C242.13 250.67 244.61 250.73 246.92 250.87C249.54 251.03 252.16 251.34 254.75 251.77C260.65 252.76 266.42 254.38 271.98 256.58C274.08 257.41 274.99 254.02 272.91 253.2C267.28 250.97 261.43 249.33 255.45 248.35C252.41 247.85 249.33 247.47 246.25 247.33C243.51 247.2 240.72 247.41 238.19 248.55C233.31 250.76 231.39 256.1 233.9 260.85C236.51 265.79 242.32 267.52 247.28 269.07C253.9 271.14 260.66 272.71 267.58 273.34C269.81 273.55 269.8 270.05 267.57 269.85Z" fill="#FF5408"/>
<path d="M253.84 267.56C254.69 262.95 255.88 258.4 257.39 253.96C257.69 253.07 257.04 252.05 256.17 251.81C255.21 251.55 254.32 252.13 254.02 253.03C252.51 257.47 251.32 262.01 250.47 266.63C250.3 267.56 250.73 268.52 251.69 268.78C252.54 269.02 253.67 268.5 253.84 267.56Z" fill="#FF5408"/>
<path d="M235.82 229.42C249.17 227.8 262.33 225 275.16 220.96C277.3 220.29 276.39 216.91 274.23 217.58C261.71 221.52 248.85 224.33 235.82 225.91C234.87 226.02 234.08 226.63 234.07 227.66C234.06 228.53 234.88 229.53 235.82 229.42Z" fill="#FF5408"/>
<path d="M239.41 212.41C244.68 217.03 249.5 222.16 253.69 227.78C257.64 233.08 261.26 238.73 266.35 243.03C268.06 244.47 270.55 242.01 268.83 240.55C263.73 236.25 260.19 230.6 256.2 225.33C251.95 219.72 247.18 214.56 241.88 209.93C240.2 208.45 237.71 210.92 239.41 212.41Z" fill="#FF5408"/>
<path d="M263.91 200.16C258.91 199.74 253.92 198.95 249.06 197.66C245.02 196.59 240.67 194.88 238.53 191.05C237.6 189.39 237.1 187.38 237.58 185.5C237.8 184.64 238.2 183.79 238.87 183.18C239.73 182.4 240.87 182.34 241.97 182.29C246.91 182.06 251.86 182.54 256.67 183.7C259.33 184.35 261.94 185.19 264.47 186.24C265.65 186.73 267.07 187.19 268.01 185.98C268.76 185.01 268.41 183.49 267.28 182.97C266.55 182.64 265.76 182.66 265.16 183.24C265.12 183.28 265.09 183.31 265.05 183.35C263.42 184.92 265.9 187.39 267.53 185.83C267.57 185.79 267.6 185.76 267.64 185.72C266.93 185.81 266.23 185.9 265.52 185.99C265.4 185.86 265.29 185.74 265.17 185.61C265.11 185.16 265.05 184.71 264.99 184.26C264.98 184.32 264.96 184.38 264.95 184.45C265.22 184.1 265.49 183.75 265.75 183.4C266.52 183.03 266.21 183.3 265.82 183.04C265.6 182.89 265.23 182.79 264.98 182.69C264.35 182.43 263.71 182.19 263.06 181.96C261.77 181.5 260.47 181.09 259.15 180.72C256.65 180.03 254.11 179.54 251.54 179.21C248.9 178.86 246.24 178.7 243.58 178.74C241.17 178.78 238.62 178.8 236.69 180.45C233.14 183.48 233.38 188.86 235.43 192.65C237.68 196.81 242 199.15 246.37 200.52C252.02 202.3 258.04 203.16 263.93 203.65C266.16 203.85 266.14 200.35 263.91 200.16Z" fill="#FF5408"/>
<path d="M252.43 198.12C252.86 192.26 253.76 186.46 255.1 180.75C254.03 180.89 252.97 181.03 251.9 181.17C252.02 181.45 252.15 181.73 252.27 182.01C252.65 182.87 253.91 183.08 254.66 182.64C255.55 182.12 255.67 181.11 255.29 180.25C255.17 179.97 255.04 179.69 254.92 179.41C254.3 178.02 252.05 178.45 251.72 179.83C250.3 185.85 249.37 191.97 248.92 198.13C248.85 199.07 249.77 199.88 250.67 199.88C251.68 199.87 252.36 199.06 252.43 198.12Z" fill="#FF5408"/>
<path d="M230.28 160.06C242.28 159.63 254.3 159.78 266.29 160.49C268.54 160.62 268.53 157.12 266.29 156.99C254.3 156.28 242.28 156.13 230.28 156.56C228.03 156.64 228.02 160.14 230.28 160.06Z" fill="#FF5408"/>
<path d="M234.52 143.7C240.46 153.83 246.46 163.95 253.86 173.1C255.28 174.85 257.74 172.36 256.34 170.62C249.13 161.71 243.33 151.79 237.55 141.93C236.4 139.99 233.37 141.75 234.52 143.7Z" fill="#FF5408"/>
<path d="M265.65 143.97C261.16 141.59 256.82 138.96 252.62 136.1C249.04 133.66 244.64 131.07 242.48 127.17C241.01 124.52 241.07 119.65 244.72 118.82C246.94 118.31 249.66 118.89 251.79 119.55C254.06 120.24 256.04 121.46 257.78 123.06C259.85 124.96 261.7 127.11 263.6 129.17C265.7 131.44 267.8 133.71 269.9 135.98C271.43 137.64 273.9 135.16 272.38 133.5C270.28 131.23 268.18 128.96 266.08 126.69C264.08 124.53 262.15 122.25 259.94 120.3C255.92 116.74 250.1 114.57 244.69 115.29C239.86 115.94 237.5 120.77 238.16 125.27C238.9 130.29 243.24 133.68 247.07 136.47C252.42 140.36 258.02 143.9 263.87 147C265.87 148.04 267.64 145.02 265.65 143.97Z" fill="#FF5408"/>
<path d="M253.6 137.07C255.88 133.37 258.28 130.12 261.11 126.92C260.11 126.51 259.12 126.09 258.12 125.68C258.11 126.42 258.1 127.16 258.09 127.9C258.08 128.82 258.9 129.69 259.84 129.65C260.8 129.61 261.58 128.88 261.59 127.9C261.6 127.16 261.61 126.42 261.62 125.68C261.64 124.22 259.65 123.29 258.63 124.44C255.64 127.82 252.94 131.46 250.57 135.3C250.09 136.08 250.38 137.26 251.2 137.69C252.06 138.15 253.09 137.9 253.6 137.07Z" fill="#FF5408"/>
<path d="M277.22 110.77C282.21 115.41 287 120.26 291.54 125.34C293.79 127.85 295.97 130.41 298.1 133.02C299.49 134.72 302.32 139.65 304.97 136.92C306.54 135.3 304.07 132.82 302.49 134.44C303.45 134.51 303.75 134.39 303.4 134.07C303.31 133.98 303.23 133.88 303.15 133.77C302.91 133.47 302.68 133.17 302.44 132.87C301.96 132.27 301.49 131.67 301 131.08C300.08 129.95 299.16 128.83 298.22 127.72C296.3 125.44 294.32 123.19 292.31 120.99C288.28 116.59 284.06 112.35 279.68 108.29C278.04 106.77 275.56 109.24 277.22 110.77Z" fill="#FF5408"/>
<path d="M293.98 108.37C292.49 114.45 290.91 120.51 289.24 126.54C288.42 129.52 287.57 132.49 286.7 135.45C286.27 136.93 285.83 138.41 285.38 139.89C285.15 140.65 284.81 141.44 284.67 142.22C284.55 142.88 284.91 143.51 284.85 144.09C285.02 143.68 285.19 143.26 285.36 142.85C285.3 142.92 285.24 142.98 285.18 143.05C285.59 142.88 286.01 142.71 286.42 142.54C286.36 142.53 286.3 142.53 286.24 142.52C286.74 142.81 287.25 143.1 287.75 143.39C287.79 143.57 287.82 143.76 287.86 143.94C287.57 144.44 287.28 144.95 286.99 145.45C287.03 145.43 287.08 145.4 287.12 145.38C289.12 144.34 287.35 141.31 285.35 142.36C285.31 142.38 285.26 142.41 285.22 142.43C284.72 142.69 284.3 143.36 284.35 143.94C284.48 145.46 286.05 146.73 287.47 145.66C288.05 145.22 288.39 144.53 288.37 143.8C288.36 143.43 288.17 143.05 288.18 142.68C288.19 142.29 288.49 141.65 288.61 141.28C289.67 137.78 290.7 134.27 291.69 130.75C293.7 123.63 295.59 116.48 297.35 109.3C297.89 107.11 294.52 106.17 293.98 108.37Z" fill="#FF5408"/>
<path d="M317.38 136.79C316.92 132.12 316.45 127.43 316.69 122.73C316.79 120.71 316.88 118.43 317.68 116.54C318.26 115.17 319.57 113.78 321.19 114.33C322.86 114.91 323.67 116.76 324.21 118.3C324.92 120.32 325.43 122.41 325.79 124.52C326.54 128.92 326.45 133.49 325.6 137.87C326.58 137.61 327.55 137.36 328.53 137.1C328.29 136.91 328.05 136.72 327.82 136.52C327.08 135.92 326.07 135.81 325.34 136.52C324.72 137.13 324.61 138.4 325.34 139C325.58 139.19 325.82 139.38 326.05 139.58C326.98 140.33 328.7 140.23 328.98 138.81C329.79 134.63 330.02 130.36 329.52 126.13C329.07 122.28 328.32 117.97 326.36 114.58C324.55 111.45 320.69 109.5 317.36 111.64C313.99 113.81 313.51 118.12 313.25 121.78C312.89 126.79 313.39 131.82 313.88 136.8C314.1 139.01 317.6 139.04 317.38 136.79Z" fill="#FF5408"/>
<path d="M315.38 127.89C319.18 127.92 323 128.17 326.75 128.69C327.68 128.82 328.63 128.46 328.9 127.47C329.13 126.65 328.62 125.45 327.68 125.32C323.6 124.75 319.5 124.42 315.38 124.39C314.43 124.38 313.63 125.2 313.63 126.14C313.63 127.1 314.43 127.89 315.38 127.89Z" fill="#FF5408"/>
<path d="M331.48 114.25C341.53 122.29 351.76 130.1 362.17 137.69C362.87 138.2 363.94 137.87 364.43 137.24C365 136.5 364.84 135.64 364.29 134.94C363.68 134.17 363.07 133.4 362.46 132.63C361.87 131.88 360.61 132.02 359.98 132.63C359.24 133.35 359.4 134.37 359.98 135.11C360.59 135.88 361.2 136.65 361.81 137.42C362.52 136.5 363.22 135.59 363.93 134.67C353.77 127.26 343.77 119.63 333.95 111.78C333.21 111.19 332.2 111.07 331.47 111.78C330.86 112.38 330.74 113.66 331.48 114.25Z" fill="#FF5408"/>
<path d="M340.45 107.46C343.23 118.38 342.49 129.75 343.78 140.87C343.87 141.69 344.27 142.29 345.07 142.56C345.13 142.58 345.18 142.6 345.24 142.62C344.89 142.35 344.54 142.08 344.19 141.82C344.19 141.45 344.19 141.08 344.19 140.71C344.54 140.44 344.89 140.17 345.24 139.91C345.44 139.91 345.64 139.91 345.84 139.91C346.19 140.18 346.54 140.45 346.89 140.71C346.89 141.08 346.89 141.45 346.9 141.82C346.55 142.09 346.2 142.36 345.85 142.62C345.91 142.6 345.96 142.58 346.02 142.56C348.15 141.86 347.24 138.48 345.09 139.18C342.93 139.89 343.05 143.38 345.55 143.38C348.05 143.38 348.16 139.9 346.02 139.18C346.45 139.74 346.88 140.31 347.31 140.87C345.98 129.44 346.71 117.76 343.85 106.52C343.27 104.34 339.89 105.27 340.45 107.46Z" fill="#FF5408"/>
<path d="M364.9 100.02C360.88 98.37 356.79 96.91 352.63 95.67C348.83 94.53 344.9 93.56 341.46 91.52C340.09 90.71 338.32 89.63 337.81 88.02C337.2 86.08 339.31 85.32 340.77 84.81C344.54 83.51 348.48 83.69 352.18 85.13C356.33 86.74 359.97 89.39 364.26 90.69C364.26 89.56 364.26 88.44 364.26 87.31C363.49 87.49 362.72 87.67 361.94 87.85C359.75 88.36 360.68 91.74 362.87 91.23C363.64 91.05 364.41 90.87 365.19 90.69C366.93 90.28 366.78 87.8 365.19 87.31C360.79 85.98 357.02 83.18 352.72 81.6C348.35 80 343.38 80 339.04 81.73C337.08 82.51 335.06 83.59 334.41 85.75C333.77 87.87 334.61 90.08 336.02 91.68C338.99 95.05 343.83 96.66 347.99 97.93C353.39 99.58 358.74 101.23 363.97 103.38C364.85 103.74 365.88 102.99 366.12 102.16C366.41 101.17 365.77 100.38 364.9 100.02Z" fill="#FF5408"/>
<path d="M353.96 95.88C354.68 91.82 355.12 87.72 355.27 83.6C355.3 82.65 354.44 81.85 353.52 81.85C352.54 81.85 351.8 82.65 351.77 83.6C351.63 87.43 351.25 91.2 350.58 94.95C350.42 95.88 350.83 96.84 351.8 97.1C352.65 97.33 353.8 96.81 353.96 95.88Z" fill="#FF5408"/>
<path d="M332.24 66.18C343.12 66.54 353.98 67.35 364.79 68.6C365.74 68.71 366.53 67.72 366.54 66.85C366.55 65.81 365.72 65.21 364.79 65.1C353.98 63.85 343.12 63.04 332.24 62.68C329.98 62.6 329.99 66.11 332.24 66.18Z" fill="#FF5408"/>
<path d="M336.11 52.5C342.09 61.87 348.56 70.92 355.45 79.65C356.04 80.4 357.31 80.26 357.93 79.65C358.67 78.93 358.51 77.91 357.93 77.17C351.22 68.68 344.96 59.85 339.14 50.73C337.92 48.84 334.89 50.6 336.11 52.5Z" fill="#FF5408"/>
<path d="M365.27 51.35C358.43 48.81 352.75 43.35 349.87 36.65C348.75 34.06 347.29 29.82 349.4 27.33C352.12 24.12 356.85 27.61 359.13 29.51C361.06 31.12 362.91 32.83 364.68 34.63C365.51 35.48 366.32 36.34 367.11 37.23C367.55 37.73 367.99 38.23 368.42 38.74C368.56 38.91 368.71 39.08 368.85 39.25C368.98 39.4 369.11 39.56 369.24 39.72C369.42 40.02 369.5 39.87 369.48 39.27C368.51 41.29 371.53 43.07 372.5 41.04C373.73 38.48 370.85 36.16 369.29 34.43C367.5 32.45 365.61 30.57 363.63 28.79C360.02 25.56 355.51 21.52 350.25 22.89C345.38 24.17 344.36 29.38 345.24 33.7C346.15 38.15 348.62 42.38 351.53 45.82C354.95 49.86 359.4 52.9 364.35 54.73C366.45 55.51 367.37 52.13 365.27 51.35Z" fill="#FF5408"/>
<path d="M356.74 44.74C356.86 44.15 357.01 43.56 357.2 42.98C357.29 42.69 357.4 42.41 357.51 42.13C357.58 41.95 357.43 42.3 357.56 42.01C357.63 41.86 357.7 41.71 357.77 41.56C358.03 41.01 358.33 40.48 358.65 39.97C358.81 39.71 358.98 39.46 359.16 39.22C359.24 39.11 359.32 39 359.4 38.89C359.2 39.15 359.53 38.74 359.54 38.72C359.93 38.25 360.34 37.81 360.77 37.38C360.97 37.19 361.17 37 361.38 36.82C361.5 36.71 361.63 36.61 361.76 36.5C362.04 36.27 361.61 36.6 361.93 36.37C362.91 35.65 363.96 35.04 365.08 34.56C365.95 34.19 366.14 32.91 365.71 32.17C365.18 31.27 364.19 31.17 363.32 31.54C358.3 33.68 354.46 38.47 353.38 43.81C353.2 44.7 353.64 45.74 354.6 45.96C355.46 46.16 356.54 45.7 356.74 44.74Z" fill="#FF5408"/>
<path d="M381.21 23.09C388.73 30.77 395.47 39.15 401.33 48.16C401.95 49.11 403.24 49.32 404.08 48.51C404.69 47.93 405.01 47.22 404.93 46.38C404.73 44.15 401.23 44.13 401.43 46.38C401.49 46.27 401.55 46.15 401.6 46.04C402.52 46.16 403.43 46.28 404.35 46.39C398.33 37.14 391.4 28.49 383.68 20.61C382.11 19 379.63 21.48 381.21 23.09Z" fill="#FF5408"/>
<path d="M393.87 21.2C392.83 31.85 386.84 41.21 384.12 51.42C385.27 51.58 386.41 51.73 387.56 51.89C387.54 51.52 387.53 51.14 387.51 50.77C387.42 48.53 383.91 48.51 384.01 50.77C384.03 51.14 384.04 51.52 384.06 51.89C384.14 53.82 386.97 54.32 387.5 52.36C390.32 41.79 396.3 32.25 397.38 21.2C397.59 18.96 394.09 18.98 393.87 21.2Z" fill="#FF5408"/>
<path d="M418.87 46.15C417.96 42.03 417.12 37.89 416.35 33.74C415.67 30.07 414.99 25.98 416.43 22.4C417.84 18.88 421.42 20.93 423.07 23.13C425.22 26 426.51 29.68 427.52 33.08C428.79 37.37 429.41 41.79 429.42 46.27C429.43 48.52 432.93 48.53 432.92 46.27C432.91 41.58 432.26 36.88 430.96 32.37C429.78 28.3 428.18 23.91 425.49 20.57C423.13 17.64 418.61 15.47 415.23 18.14C411.78 20.86 411.86 26.74 412.34 30.65C413.02 36.16 414.3 41.65 415.49 47.07C415.98 49.28 419.35 48.35 418.87 46.15Z" fill="#FF5408"/>
<path d="M415.16 37.09C419.72 37.78 424.32 38.11 428.94 38.02C431.19 37.98 431.2 34.48 428.94 34.52C424.65 34.6 420.34 34.35 416.1 33.71C415.17 33.57 414.22 33.94 413.95 34.93C413.71 35.77 414.22 36.95 415.16 37.09Z" fill="#FF5408"/>
<path d="M438.62 20.63C444.13 29.47 449.81 38.2 455.66 46.83C456.92 48.68 459.95 46.93 458.68 45.06C452.84 36.44 447.15 27.7 441.64 18.86C440.45 16.95 437.42 18.71 438.62 20.63Z" fill="#FF5408"/>
<path d="M450.49 19.72C450.21 25.7 447.87 30.9 444.96 36.02C442.25 40.81 439.34 45.58 438.06 50.99C437.54 53.18 440.92 54.12 441.44 51.92C442.75 46.39 445.86 41.62 448.59 36.71C451.55 31.38 453.7 25.88 453.99 19.72C454.09 17.46 450.59 17.47 450.49 19.72Z" fill="#FF5408"/>
</svg>
