<svg width="660" height="656" viewBox="0 0 660 656" fill="none" xmlns="http://www.w3.org/2000/svg">
<path d="M422.06 431.44H643.9C652.24 431.44 659.01 438.2 659.01 446.55V487.52C659.01 495.86 652.25 502.63 643.9 502.63H422.06C413.72 502.63 406.95 495.87 406.95 487.52V446.55C406.95 438.2 413.71 431.44 422.06 431.44Z" fill="#7116A0"/>
<path d="M463.03 312.41H15.9601C7.6201 312.41 0.850098 305.65 0.850098 297.3V256.33C0.850098 247.99 7.6101 241.22 15.9601 241.22H463.03C471.37 241.22 478.14 247.98 478.14 256.33V297.3C478.13 305.65 471.37 312.41 463.03 312.41Z" fill="#7116A0"/>
<path d="M406.95 487.52V256.34C406.95 248 413.71 241.23 422.06 241.23H463.03C471.37 241.23 478.14 247.99 478.14 256.34V487.52C478.14 495.86 471.38 502.63 463.03 502.63H422.06C413.71 502.62 406.95 495.86 406.95 487.52Z" fill="#7116A0"/>
<path d="M0.850098 297.31V15.95C0.850098 7.61001 7.6101 0.840027 15.9601 0.840027H56.9301C65.2701 0.840027 72.0401 7.60001 72.0401 15.95V297.31C72.0401 305.65 65.2801 312.42 56.9301 312.42H15.9601C7.6201 312.41 0.850098 305.65 0.850098 297.31Z" fill="#7116A0"/>
<path d="M659.01 446.55V629.89C659.01 638.23 652.25 645 643.9 645H602.93C594.59 645 587.82 638.24 587.82 629.89V446.55C587.82 438.21 594.58 431.44 602.93 431.44H643.9C652.25 431.44 659.01 438.2 659.01 446.55Z" fill="#7116A0"/>
<path d="M643.9 655.49H234.18C225.84 655.49 219.07 648.73 219.07 640.38V599.41C219.07 591.07 225.83 584.3 234.18 584.3H643.9C652.24 584.3 659.01 591.06 659.01 599.41V640.38C659.01 648.73 652.25 655.49 643.9 655.49Z" fill="#7116A0"/>
<path d="M481.72 470.08C489.06 469.36 496.43 469.11 503.81 469.31C505.55 469.36 505.55 466.65 503.81 466.6C496.44 466.4 489.06 466.66 481.72 467.37C480 467.54 479.98 470.25 481.72 470.08Z" fill="#FF5408"/>
<path d="M17.6101 24.12C24.4501 35.57 31.1001 47.14 37.5601 58.81C38.6501 60.78 41.6801 59.02 40.5801 57.04C34.1201 45.37 27.4701 33.8 20.6301 22.35C19.4801 20.42 16.4501 22.18 17.6101 24.12Z" fill="#FF5408"/>
<path d="M43.0701 20.92C34.2301 34.17 25.1801 47.29 15.9401 60.27C14.6301 62.11 17.6701 63.86 18.9601 62.04C28.2001 49.06 37.2501 35.94 46.0901 22.69C47.3401 20.81 44.3101 19.05 43.0701 20.92Z" fill="#FF5408"/>
<path d="M25.7703 124.77C23.7303 118.49 22.7403 111.94 22.9003 105.34C23.0503 99.23 23.9103 92.59 26.8803 87.15C29.2903 82.74 34.4703 77.94 39.9703 79.17C42.9903 79.84 43.4203 82.5599 43.8103 85.2199C44.3103 88.6099 44.7103 92.01 45.0403 95.42C45.4203 99.31 45.6903 103.21 45.8603 107.11C45.9403 109.06 46.0003 111.01 46.0303 112.97C46.0403 113.87 46.0503 114.76 46.0603 115.66C46.0603 116.07 46.0603 116.47 46.0603 116.88C46.0603 117.21 46.0603 117.53 46.0603 117.86C45.9403 118.79 46.6303 119.21 48.1603 119.11C48.8203 116.95 45.4503 116.03 44.7803 118.18C44.2603 119.87 45.9103 121.41 47.5903 121.02C49.5003 120.57 49.5603 118.45 49.5703 116.88C49.5803 112.65 49.4603 108.41 49.2203 104.19C48.9803 99.96 48.6203 95.7399 48.1403 91.5399C47.9003 89.4399 47.6303 87.35 47.3303 85.26C47.0803 83.51 46.8803 81.73 46.1803 80.09C44.7903 76.87 41.4603 75.39 38.0903 75.53C34.6503 75.67 31.4703 77.17 28.8303 79.31C22.9203 84.11 20.8203 91.9299 19.8903 99.1599C18.7503 108.05 19.6403 117.18 22.4103 125.7C23.0903 127.84 26.4703 126.93 25.7703 124.77Z" fill="#FF5408"/>
<path d="M21.9601 107.48C30.5601 106.33 39.16 105.18 47.76 104.02C48.7 103.89 49.5 103.31 49.51 102.27C49.52 101.42 48.7 100.39 47.76 100.52C39.16 101.67 30.5601 102.82 21.9601 103.98C21.0201 104.11 20.2201 104.69 20.2101 105.73C20.2001 106.58 21.0201 107.61 21.9601 107.48Z" fill="#FF5408"/>
<path d="M21.34 141.83C25.75 150 30.8 157.82 36.44 165.19C39.27 168.88 42.23 172.46 45.32 175.93C48.45 179.43 51.68 182.86 54.39 186.7C55.68 188.53 58.72 186.78 57.41 184.93C54.7 181.09 51.54 177.62 48.4 174.13C45.29 170.67 42.29 167.12 39.46 163.43C33.81 156.06 28.77 148.24 24.36 140.07C23.29 138.08 20.26 139.85 21.34 141.83Z" fill="#FF5408"/>
<path d="M46.06 136.5C37.82 149.41 33.75 164.34 27.95 178.39C26.19 182.65 24.29 186.85 22.28 190.99C21.3 193.01 24.32 194.79 25.3 192.76C28.78 185.59 31.87 178.25 34.66 170.79C37.32 163.69 39.81 156.51 42.97 149.61C44.76 145.7 46.76 141.9 49.08 138.27C50.3 136.37 47.27 134.61 46.06 136.5Z" fill="#FF5408"/>
<path d="M22.4302 259.91C21.5302 251.29 21.5602 242.59 22.5502 233.98C23.4002 226.67 24.6302 218.77 28.4502 212.35C30.1802 209.45 32.5202 206.74 35.6802 205.37C38.5302 204.14 41.8302 204.36 43.6102 207.17C45.4802 210.13 45.8102 214.13 46.2102 217.51C46.7202 221.81 46.9102 226.14 46.8902 230.47C46.8302 240.23 45.6802 249.95 44.5102 259.63C44.4002 260.58 45.4002 261.37 46.2602 261.38C47.3002 261.39 47.9002 260.56 48.0102 259.63C49.1302 250.27 50.2502 240.88 50.3802 231.43C50.4402 226.78 50.2602 222.12 49.7102 217.51C49.2502 213.63 48.8502 209.34 46.9002 205.86C45.0702 202.59 41.6502 200.75 37.9102 201.18C34.2302 201.61 30.9202 203.69 28.4702 206.41C23.1502 212.33 21.1202 220.31 19.8702 227.97C18.1402 238.52 17.8002 249.26 18.9102 259.9C19.1602 262.13 22.6602 262.15 22.4302 259.91Z" fill="#FF5408"/>
<path d="M21.9903 238.18C30.6003 237.16 39.2703 236.8 47.9403 237.08C50.1903 237.15 50.1903 233.65 47.9403 233.58C39.2703 233.29 30.6003 233.66 21.9903 234.68C21.0403 234.79 20.2503 235.4 20.2403 236.43C20.2303 237.29 21.0503 238.29 21.9903 238.18Z" fill="#FF5408"/>
<path d="M41.5901 272.11C53.7801 279.77 65.0901 288.76 75.3101 298.91C76.9101 300.5 79.3901 298.02 77.7901 296.43C67.3601 286.08 55.8001 276.9 43.3601 269.09C41.4401 267.88 39.6801 270.91 41.5901 272.11Z" fill="#FF5408"/>
<path d="M74.9904 260.67C64.6004 274.79 54.2004 288.91 43.8104 303.02C42.4704 304.84 45.5104 306.58 46.8304 304.79C57.2204 290.67 67.6203 276.55 78.0103 262.44C79.3503 260.62 76.3104 258.87 74.9904 260.67Z" fill="#FF5408"/>
<path d="M94.5303 301.33C94.3403 294.44 94.6703 287.54 95.6203 280.71C96.3803 275.25 97.2903 269.49 99.8603 264.54C101.01 262.33 102.49 260.28 104.45 258.73C105.38 257.99 106.51 257.24 107.72 257.09C109.2 256.91 109.79 258.09 110.33 259.26C112.96 264.95 112.92 271.85 113.2 277.99C113.56 285.84 113.46 293.71 112.95 301.56C112.8 303.81 116.3 303.8 116.45 301.56C116.95 293.88 117.05 286.17 116.72 278.48C116.42 271.52 116.35 263.92 113.35 257.49C111.87 254.32 109.09 252.78 105.65 254.03C102.93 255.02 100.67 257.16 98.9403 259.42C95.3703 264.09 93.8503 270 92.8603 275.69C91.3903 284.15 90.7703 292.74 91.0003 301.32C91.0903 303.58 94.5903 303.59 94.5303 301.33Z" fill="#FF5408"/>
<path d="M93.91 283.38C100.45 284.68 107 285.97 113.54 287.27C115.74 287.71 116.68 284.33 114.47 283.89C107.93 282.59 101.38 281.3 94.84 280C92.65 279.57 91.7 282.94 93.91 283.38Z" fill="#FF5408"/>
<path d="M135.26 257.1C147.04 270.67 156.88 285.86 164.51 302.12C165.47 304.16 168.49 302.38 167.53 300.35C159.77 283.81 149.71 268.41 137.73 254.62C136.25 252.92 133.79 255.4 135.26 257.1Z" fill="#FF5408"/>
<path d="M159.1 256.91C150.92 269.72 142.54 282.42 133.98 294.98C132.71 296.85 135.74 298.6 137 296.75C145.56 284.19 153.93 271.49 162.12 258.68C163.34 256.77 160.31 255.02 159.1 256.91Z" fill="#FF5408"/>
<path d="M179.56 299.83C179.82 286.15 177.13 270.57 184.4 258.13C185.68 255.93 187.65 253.49 190.4 253.34C193.21 253.18 195.61 255.41 196.84 257.74C198.39 260.69 198.62 264.2 198.9 267.46C199.22 271.14 199.47 274.83 199.66 278.52C199.87 282.7 200 286.89 200.04 291.08C200.06 293.22 200.06 295.35 200.03 297.49C200.02 298.48 200 299.46 199.98 300.45C199.96 301.35 200.16 302.7 199.82 303.5C200.09 303.15 200.36 302.8 200.62 302.45C200.55 302.5 200.47 302.55 200.4 302.59C200.85 302.53 201.3 302.47 201.75 302.41C201.71 302.4 201.66 302.38 201.62 302.37C201.97 302.64 202.32 302.91 202.67 303.17C202.67 303.63 202.67 304.1 202.67 304.56C202.01 304.83 201.35 305.1 200.69 305.36C200.73 305.37 200.76 305.38 200.8 305.39C202.98 305.98 203.91 302.6 201.73 302.01C201.69 302 201.66 301.99 201.62 301.98C200.85 301.77 200.05 302.12 199.64 302.78C198.68 304.34 200.21 306.35 201.95 305.67C203.91 304.91 203.43 302.06 203.47 300.41C203.56 295.98 203.56 291.54 203.46 287.11C203.36 282.59 203.16 278.08 202.86 273.57C202.58 269.41 202.41 265.13 201.59 261.03C200.86 257.38 199.23 253.96 196.18 251.72C193.35 249.64 189.67 249.19 186.54 250.88C183.43 252.55 181.44 255.82 180.03 258.94C178.35 262.65 177.28 266.57 176.68 270.58C175.22 280.27 176.23 290.05 176.05 299.8C176.02 302.09 179.52 302.09 179.56 299.83Z" fill="#FF5408"/>
<path d="M179.27 280.65C186.66 280.83 194.03 281.31 201.4 281.8C203.65 281.95 203.64 278.45 201.4 278.3C194.03 277.81 186.65 277.33 179.27 277.15C177.02 277.1 177.02 280.6 179.27 280.65Z" fill="#FF5408"/>
<path d="M220.45 258.27C232.23 271.84 242.07 287.03 249.7 303.29C250.66 305.33 253.68 303.55 252.72 301.52C244.96 284.98 234.9 269.58 222.92 255.79C221.44 254.09 218.97 256.57 220.45 258.27Z" fill="#FF5408"/>
<path d="M244.29 258.08C236.11 270.89 227.73 283.59 219.17 296.15C217.9 298.02 220.93 299.77 222.19 297.92C230.75 285.36 239.12 272.66 247.31 259.85C248.52 257.94 245.5 256.18 244.29 258.08Z" fill="#FF5408"/>
<path d="M264.75 301C265.01 287.32 262.32 271.74 269.59 259.3C270.87 257.1 272.84 254.66 275.59 254.51C278.4 254.35 280.8 256.58 282.03 258.91C283.58 261.86 283.81 265.37 284.09 268.63C284.41 272.31 284.66 276 284.85 279.69C285.06 283.87 285.19 288.06 285.23 292.25C285.25 294.39 285.25 296.52 285.22 298.66C285.21 299.65 285.19 300.63 285.17 301.62C285.15 302.52 285.35 303.87 285.01 304.67C285.28 304.32 285.55 303.97 285.81 303.62C285.74 303.67 285.66 303.72 285.59 303.76C286.04 303.7 286.49 303.64 286.94 303.58C286.9 303.57 286.85 303.55 286.81 303.54C287.16 303.81 287.51 304.08 287.86 304.34C287.86 304.8 287.86 305.27 287.86 305.73C287.2 306 286.54 306.27 285.88 306.53C285.92 306.54 285.95 306.55 285.99 306.56C288.17 307.15 289.1 303.77 286.92 303.18C286.88 303.17 286.85 303.16 286.81 303.15C286.04 302.94 285.24 303.29 284.83 303.95C283.87 305.51 285.4 307.52 287.14 306.84C289.1 306.08 288.62 303.23 288.66 301.58C288.75 297.15 288.75 292.71 288.65 288.28C288.55 283.76 288.35 279.25 288.05 274.74C287.77 270.57 287.6 266.3 286.78 262.2C286.05 258.55 284.42 255.13 281.37 252.89C278.54 250.81 274.86 250.36 271.73 252.05C268.62 253.72 266.63 256.99 265.22 260.11C263.54 263.82 262.47 267.74 261.87 271.75C260.41 281.44 261.42 291.22 261.24 300.97C261.21 303.25 264.71 303.25 264.75 301Z" fill="#FF5408"/>
<path d="M264.46 281.82C271.85 282 279.22 282.48 286.59 282.97C288.84 283.12 288.83 279.62 286.59 279.47C279.22 278.98 271.84 278.5 264.46 278.32C262.21 278.26 262.21 281.77 264.46 281.82Z" fill="#FF5408"/>
<path d="M307.97 259.43C319.75 273 329.59 288.19 337.22 304.45C338.18 306.49 341.2 304.71 340.24 302.68C332.48 286.14 322.42 270.74 310.44 256.95C308.96 255.25 306.49 257.74 307.97 259.43Z" fill="#FF5408"/>
<path d="M331.81 259.25C323.63 272.06 315.25 284.76 306.69 297.32C305.42 299.19 308.45 300.94 309.71 299.09C318.27 286.53 326.64 273.83 334.83 261.02C336.05 259.11 333.02 257.35 331.81 259.25Z" fill="#FF5408"/>
<path d="M352.27 302.17C352.53 288.49 349.84 272.91 357.11 260.47C358.39 258.27 360.36 255.83 363.11 255.68C365.92 255.52 368.32 257.75 369.55 260.08C371.1 263.03 371.33 266.54 371.61 269.8C371.93 273.48 372.18 277.17 372.37 280.86C372.58 285.04 372.71 289.23 372.75 293.42C372.77 295.56 372.77 297.69 372.74 299.83C372.73 300.82 372.71 301.8 372.69 302.79C372.67 303.69 372.87 305.04 372.53 305.84C372.8 305.49 373.07 305.14 373.33 304.79C373.26 304.84 373.18 304.89 373.11 304.93C373.56 304.87 374.01 304.81 374.46 304.75C374.42 304.74 374.37 304.72 374.33 304.71C374.68 304.98 375.03 305.25 375.38 305.51C375.38 305.97 375.38 306.44 375.38 306.9C374.72 307.17 374.06 307.44 373.4 307.7C373.44 307.71 373.47 307.72 373.51 307.73C375.69 308.32 376.62 304.94 374.44 304.35C374.4 304.34 374.37 304.33 374.33 304.32C373.56 304.11 372.76 304.46 372.35 305.12C371.39 306.68 372.92 308.69 374.66 308.01C376.62 307.25 376.14 304.4 376.18 302.75C376.27 298.32 376.27 293.88 376.17 289.45C376.07 284.93 375.87 280.42 375.57 275.91C375.29 271.75 375.12 267.47 374.3 263.37C373.57 259.72 371.94 256.3 368.89 254.06C366.06 251.98 362.38 251.53 359.25 253.22C356.14 254.89 354.15 258.16 352.74 261.28C351.06 264.99 349.99 268.91 349.39 272.92C347.93 282.61 348.94 292.39 348.76 302.14C348.73 304.42 352.23 304.42 352.27 302.17Z" fill="#FF5408"/>
<path d="M351.98 282.99C359.37 283.17 366.74 283.65 374.11 284.14C376.36 284.29 376.35 280.79 374.11 280.64C366.74 280.15 359.36 279.67 351.98 279.49C349.73 279.43 349.73 282.93 351.98 282.99Z" fill="#FF5408"/>
<path d="M393.15 258.27C404.93 271.84 414.77 287.03 422.4 303.29C423.36 305.33 426.38 303.55 425.42 301.52C417.66 284.98 407.6 269.58 395.62 255.79C394.15 254.09 391.68 256.57 393.15 258.27Z" fill="#FF5408"/>
<path d="M416.99 258.08C408.81 270.89 400.43 283.59 391.87 296.15C390.6 298.02 393.63 299.77 394.89 297.92C403.45 285.36 411.82 272.66 420.01 259.85C421.23 257.94 418.2 256.18 416.99 258.08Z" fill="#FF5408"/>
<path d="M437.46 301C437.72 287.32 435.03 271.74 442.3 259.3C443.58 257.1 445.55 254.66 448.3 254.51C451.11 254.35 453.51 256.58 454.74 258.91C456.29 261.86 456.52 265.37 456.8 268.63C457.12 272.31 457.37 276 457.56 279.69C457.77 283.87 457.9 288.06 457.94 292.25C457.96 294.39 457.96 296.52 457.93 298.66C457.92 299.65 457.9 300.63 457.88 301.62C457.86 302.52 458.06 303.87 457.72 304.67C457.99 304.32 458.26 303.97 458.52 303.62C458.45 303.67 458.37 303.72 458.3 303.76C458.75 303.7 459.2 303.64 459.65 303.58C459.61 303.57 459.56 303.55 459.52 303.54C459.87 303.81 460.22 304.08 460.57 304.34C460.57 304.8 460.57 305.27 460.57 305.73C459.91 306 459.25 306.27 458.59 306.53C458.63 306.54 458.66 306.55 458.7 306.56C460.88 307.15 461.81 303.77 459.63 303.18C459.59 303.17 459.56 303.16 459.52 303.15C458.75 302.94 457.95 303.29 457.54 303.95C456.58 305.51 458.11 307.52 459.85 306.84C461.81 306.08 461.33 303.23 461.37 301.58C461.46 297.15 461.46 292.71 461.36 288.28C461.26 283.76 461.06 279.25 460.76 274.74C460.48 270.57 460.31 266.3 459.49 262.2C458.76 258.55 457.13 255.13 454.08 252.89C451.25 250.81 447.57 250.36 444.44 252.05C441.33 253.72 439.34 256.99 437.93 260.11C436.25 263.82 435.18 267.74 434.58 271.75C433.12 281.44 434.13 291.22 433.95 300.97C433.91 303.25 437.42 303.25 437.46 301Z" fill="#FF5408"/>
<path d="M437.17 281.82C444.56 282 451.93 282.48 459.3 282.97C461.55 283.12 461.54 279.62 459.3 279.47C451.93 278.98 444.55 278.5 437.17 278.32C434.91 278.26 434.91 281.77 437.17 281.82Z" fill="#FF5408"/>
<path d="M427.21 331.7C434.05 343.15 440.7 354.72 447.16 366.39C448.25 368.36 451.28 366.6 450.18 364.62C443.72 352.95 437.07 341.38 430.23 329.93C429.07 328 426.05 329.76 427.21 331.7Z" fill="#FF5408"/>
<path d="M452.66 328.5C443.82 341.75 434.77 354.87 425.53 367.85C424.22 369.69 427.26 371.44 428.55 369.62C437.79 356.64 446.84 343.52 455.68 330.27C456.94 328.39 453.91 326.64 452.66 328.5Z" fill="#FF5408"/>
<path d="M435.37 432.36C433.33 426.08 432.34 419.53 432.5 412.93C432.65 406.82 433.51 400.18 436.48 394.74C438.89 390.33 444.07 385.53 449.57 386.76C452.59 387.43 453.02 390.15 453.41 392.81C453.91 396.2 454.31 399.6 454.64 403.01C455.02 406.9 455.29 410.8 455.46 414.7C455.54 416.65 455.6 418.6 455.63 420.56C455.64 421.46 455.65 422.35 455.66 423.25C455.66 423.66 455.66 424.06 455.66 424.47C455.66 424.8 455.66 425.12 455.66 425.45C455.54 426.38 456.23 426.8 457.76 426.7C458.42 424.54 455.05 423.62 454.38 425.77C453.86 427.46 455.51 429 457.19 428.61C459.1 428.16 459.16 426.04 459.17 424.47C459.18 420.24 459.06 416 458.82 411.78C458.58 407.55 458.22 403.33 457.74 399.13C457.5 397.03 457.23 394.94 456.93 392.85C456.68 391.1 456.48 389.32 455.78 387.68C454.39 384.46 451.06 382.98 447.69 383.12C444.25 383.26 441.07 384.76 438.43 386.9C432.52 391.7 430.42 399.52 429.49 406.75C428.35 415.64 429.24 424.77 432.01 433.29C432.68 435.42 436.06 434.51 435.37 432.36Z" fill="#FF5408"/>
<path d="M431.55 415.07C440.15 413.92 448.75 412.77 457.35 411.61C458.29 411.48 459.09 410.9 459.1 409.86C459.11 409.01 458.29 407.98 457.35 408.11C448.75 409.26 440.15 410.41 431.55 411.57C430.61 411.7 429.81 412.28 429.8 413.32C429.79 414.17 430.61 415.2 431.55 415.07Z" fill="#FF5408"/>
<path d="M437.37 445.86C445.49 459.46 453.39 473.19 461.05 487.05C462.34 489.39 465.94 487.3 464.64 484.95C456.98 471.09 449.08 457.36 440.96 443.76C439.59 441.47 435.99 443.55 437.37 445.86Z" fill="#FF5408"/>
<path d="M467.59 442.06C457.09 457.79 446.35 473.36 435.38 488.77C433.83 490.95 437.43 493.03 438.97 490.87C449.94 475.46 460.68 459.89 471.18 444.16C472.67 441.93 469.07 439.84 467.59 442.06Z" fill="#FF5408"/>
<path d="M481.91 491.26C481.14 483.89 481.15 476.45 481.99 469.09C482.71 462.71 483.76 455.81 487.09 450.2C488.58 447.69 490.6 445.32 493.33 444.13C495.88 443.02 498.74 443.24 500.3 445.77C501.86 448.3 502.14 451.73 502.49 454.61C502.93 458.3 503.1 462.03 503.08 465.75C503.04 474.22 502.03 482.64 501.02 491.03C500.79 492.96 503.82 492.94 504.05 491.03C505.03 482.88 506 474.7 506.1 466.48C506.15 462.44 505.98 458.39 505.49 454.37C505.08 451 504.74 447.2 502.92 444.24C499.12 438.04 491.25 440.5 487.18 445C482.51 450.18 480.77 457.2 479.68 463.91C478.22 472.96 477.94 482.15 478.89 491.26C479.08 493.18 482.11 493.2 481.91 491.26Z" fill="#FF5408"/>
<path d="M517.33 457.54C529.52 465.2 540.83 474.19 551.05 484.34C552.65 485.93 555.13 483.45 553.53 481.86C543.1 471.51 531.54 462.33 519.1 454.52C517.19 453.31 515.43 456.34 517.33 457.54Z" fill="#FF5408"/>
<path d="M550.74 446.1C540.35 460.22 529.95 474.34 519.56 488.45C518.22 490.27 521.26 492.01 522.58 490.22C532.97 476.1 543.37 461.98 553.76 447.87C555.1 446.05 552.06 444.3 550.74 446.1Z" fill="#FF5408"/>
<path d="M570.28 486.76C570.09 479.87 570.42 472.97 571.37 466.14C572.13 460.68 573.04 454.92 575.61 449.97C576.76 447.76 578.24 445.71 580.2 444.16C581.13 443.42 582.26 442.67 583.47 442.52C584.95 442.34 585.54 443.52 586.08 444.69C588.71 450.38 588.67 457.28 588.95 463.42C589.31 471.27 589.21 479.14 588.7 486.99C588.55 489.24 592.05 489.23 592.2 486.99C592.7 479.31 592.8 471.6 592.47 463.91C592.17 456.95 592.1 449.35 589.1 442.92C587.62 439.75 584.84 438.21 581.4 439.46C578.68 440.45 576.42 442.59 574.69 444.85C571.12 449.52 569.6 455.43 568.61 461.12C567.14 469.58 566.52 478.17 566.75 486.75C566.84 489.01 570.34 489.01 570.28 486.76Z" fill="#FF5408"/>
<path d="M569.66 468.81C576.2 470.11 582.75 471.4 589.29 472.7C591.49 473.14 592.43 469.76 590.22 469.32C583.68 468.02 577.13 466.73 570.59 465.43C568.39 465 567.45 468.37 569.66 468.81Z" fill="#FF5408"/>
<path d="M611.001 442.53C622.781 456.1 632.621 471.29 640.251 487.55C641.211 489.59 644.231 487.81 643.271 485.78C635.511 469.24 625.451 453.84 613.471 440.05C612.001 438.35 609.531 440.83 611.001 442.53Z" fill="#FF5408"/>
<path d="M634.851 442.34C626.671 455.15 618.291 467.85 609.731 480.41C608.461 482.28 611.491 484.03 612.751 482.18C621.311 469.62 629.681 456.92 637.871 444.11C639.081 442.2 636.061 440.45 634.851 442.34Z" fill="#FF5408"/>
<path d="M614.15 556.97C611.94 550.17 610.88 543.09 611.05 535.94C611.21 529.27 612.15 521.98 615.46 516.07C618.07 511.41 623.4 506.56 629.21 507.55C630.35 507.74 631.5 508.22 632.23 509.15C633.2 510.38 633.38 512.15 633.6 513.64C634.17 517.37 634.61 521.12 634.98 524.87C635.4 529.12 635.7 533.38 635.89 537.65C635.98 539.78 636.05 541.92 636.08 544.05C636.1 545.04 636.11 546.02 636.11 547.01C636.11 547.5 636.11 548 636.11 548.49C636.11 548.82 636.11 549.15 636.11 549.48C636 550.14 636.3 550.03 636.99 549.17C637.31 549.26 637.63 549.34 637.95 549.43C638.07 549.64 638.19 549.85 638.31 550.06C638.31 550.4 638.31 550.73 638.31 551.07C638.33 550.99 638.36 550.92 638.38 550.84C639.1 548.5 635.44 547.51 634.73 549.83C634.13 551.78 636.17 553.47 638.02 552.81C640.2 552.03 639.92 549.36 639.91 547.51C639.9 542.99 639.76 538.47 639.49 533.96C639.22 529.37 638.81 524.78 638.27 520.22C638 517.93 637.7 515.65 637.36 513.36C637.09 511.49 636.81 509.61 635.91 507.91C634.19 504.66 630.34 503.38 626.84 503.71C623.12 504.06 619.74 505.75 616.94 508.18C610.84 513.49 608.7 521.79 607.73 529.5C606.53 539.03 607.52 548.83 610.49 557.96C611.25 560.28 614.91 559.29 614.15 556.97Z" fill="#FF5408"/>
<path d="M610.02 538.25C619.33 537 628.63 535.76 637.94 534.51C638.95 534.37 639.83 533.74 639.83 532.62C639.83 531.7 638.96 530.59 637.94 530.73C628.63 531.98 619.33 533.22 610.02 534.47C609.01 534.61 608.13 535.24 608.13 536.36C608.13 537.28 609 538.39 610.02 538.25Z" fill="#FF5408"/>
<path d="M609.48 569.86C621.26 583.43 631.1 598.62 638.73 614.88C639.69 616.92 642.71 615.14 641.75 613.11C633.99 596.57 623.93 581.17 611.95 567.38C610.47 565.68 608 568.17 609.48 569.86Z" fill="#FF5408"/>
<path d="M633.32 569.67C625.14 582.48 616.76 595.18 608.2 607.74C606.93 609.61 609.96 611.36 611.22 609.51C619.78 596.95 628.15 584.25 636.34 571.44C637.56 569.54 634.53 567.78 633.32 569.67Z" fill="#FF5408"/>
<path d="M565.85 642.38C565.42 635.54 564.56 628.56 564.88 621.7C565.03 618.58 565.55 615.38 566.95 612.55C568.29 609.84 570.21 607.34 572.23 605.11C573.06 604.2 574.03 603.18 575.26 602.85C576.65 602.48 578.08 603.24 579.25 603.91C581.57 605.24 583.47 607.2 584.77 609.52C588.08 615.41 586.2 622.77 585.77 629.14C585.5 633.11 585.35 637.09 585.3 641.08C585.28 642.57 585.14 644.61 586.98 645.1C588.73 645.57 590.03 643.51 589.1 642.05C588.7 641.42 587.88 641 587.12 641.25C587.08 641.26 587.04 641.28 587 641.29C584.86 641.98 585.78 645.36 587.93 644.67C587.97 644.66 588.01 644.64 588.05 644.63C587.39 644.36 586.73 644.09 586.07 643.83C586.07 643.39 586.08 642.94 586.08 642.5C586.43 642.23 586.78 641.96 587.13 641.7C587.08 641.71 587.03 641.73 586.98 641.74C587.43 641.8 587.88 641.86 588.33 641.92C588.48 642.14 588.64 642.37 588.79 642.59C588.79 642.26 588.79 641.93 588.8 641.59C588.8 641.09 588.81 640.59 588.82 640.1C588.83 639.27 588.85 638.44 588.87 637.61C588.92 635.7 589 633.8 589.1 631.89C589.3 628.27 589.65 624.66 589.95 621.05C590.23 617.66 590.28 614.15 589.17 610.88C588.28 608.26 586.8 605.85 584.86 603.88C582.93 601.93 580.35 600.1 577.64 599.47C574.55 598.75 571.92 600.3 569.88 602.51C567.8 604.77 565.8 607.34 564.32 610.04C562.78 612.86 561.96 615.94 561.59 619.12C561.16 622.75 561.35 626.41 561.57 630.04C561.83 634.16 562.09 638.28 562.35 642.39C562.49 644.61 565.99 644.63 565.85 642.38Z" fill="#FF5408"/>
<path d="M563.77 626.51C571.16 626.5 578.55 626.88 585.9 627.67C586.84 627.77 587.65 626.79 587.65 625.92C587.65 624.89 586.84 624.27 585.9 624.17C578.55 623.38 571.16 623 563.77 623.01C561.52 623.01 561.51 626.51 563.77 626.51Z" fill="#FF5408"/>
<path d="M542.27 596.3C532.6 607.49 525.05 620.33 515.24 631.4C512.48 634.51 509.54 637.45 506.37 640.15C507.2 640.98 508.02 641.8 508.85 642.63C509.38 641.99 509.91 641.35 510.44 640.7C511.87 638.98 509.4 636.49 507.96 638.22C507.43 638.86 506.9 639.5 506.37 640.15C504.94 641.88 507.12 644.1 508.85 642.63C520.15 633 528.19 620.39 536.96 608.58C539.45 605.23 542.02 601.94 544.75 598.78C546.21 597.07 543.75 594.59 542.27 596.3Z" fill="#FF5408"/>
<path d="M416.28 612.35C428.47 620.01 439.78 629 450 639.15C451.6 640.74 454.08 638.26 452.48 636.67C442.05 626.32 430.49 617.14 418.05 609.33C416.14 608.13 414.38 611.15 416.28 612.35Z" fill="#FF5408"/>
<path d="M449.68 600.91C439.29 615.03 428.89 629.15 418.5 643.26C417.16 645.08 420.2 646.82 421.52 645.03C431.91 630.91 442.31 616.79 452.7 602.68C454.04 600.86 451.01 599.11 449.68 600.91Z" fill="#FF5408"/>
<path d="M469.23 641.57C469.04 634.68 469.37 627.78 470.32 620.95C471.08 615.49 471.99 609.73 474.56 604.78C475.71 602.57 477.19 600.52 479.15 598.97C480.08 598.23 481.21 597.48 482.42 597.33C483.9 597.15 484.49 598.33 485.03 599.5C487.66 605.19 487.62 612.09 487.9 618.23C488.26 626.08 488.16 633.95 487.65 641.8C487.5 644.05 491 644.04 491.15 641.8C491.65 634.12 491.75 626.41 491.42 618.72C491.12 611.76 491.05 604.16 488.05 597.73C486.57 594.56 483.79 593.02 480.35 594.27C477.63 595.26 475.37 597.4 473.64 599.66C470.07 604.33 468.55 610.24 467.56 615.93C466.09 624.39 465.47 632.98 465.7 641.56C465.79 643.82 469.29 643.83 469.23 641.57Z" fill="#FF5408"/>
<path d="M468.61 623.62C475.15 624.92 481.7 626.21 488.24 627.51C490.44 627.95 491.38 624.57 489.17 624.13C482.63 622.83 476.08 621.54 469.54 620.24C467.34 619.81 466.4 623.18 468.61 623.62Z" fill="#FF5408"/>
<path d="M322.12 614.93C334.31 622.59 345.62 631.58 355.84 641.73C357.44 643.32 359.92 640.84 358.32 639.25C347.89 628.9 336.33 619.72 323.89 611.91C321.98 610.71 320.22 613.74 322.12 614.93Z" fill="#FF5408"/>
<path d="M355.52 603.49C345.13 617.61 334.73 631.73 324.34 645.84C323 647.66 326.04 649.4 327.36 647.61C337.75 633.49 348.15 619.37 358.54 605.26C359.88 603.45 356.85 601.7 355.52 603.49Z" fill="#FF5408"/>
<path d="M375.06 644.16C374.87 637.27 375.2 630.37 376.15 623.54C376.91 618.08 377.82 612.32 380.39 607.37C381.54 605.16 383.02 603.11 384.98 601.56C385.91 600.82 387.04 600.07 388.25 599.92C389.73 599.74 390.32 600.92 390.86 602.09C393.49 607.78 393.45 614.68 393.73 620.82C394.09 628.67 393.99 636.54 393.48 644.39C393.33 646.64 396.83 646.63 396.98 644.39C397.48 636.71 397.58 629 397.25 621.31C396.95 614.35 396.88 606.75 393.88 600.32C392.4 597.15 389.62 595.61 386.18 596.86C383.46 597.85 381.2 599.99 379.47 602.25C375.9 606.92 374.38 612.83 373.39 618.52C371.92 626.98 371.3 635.57 371.53 644.15C371.63 646.4 375.13 646.41 375.06 644.16Z" fill="#FF5408"/>
<path d="M374.45 626.21C380.99 627.51 387.54 628.8 394.08 630.1C396.28 630.54 397.22 627.16 395.01 626.72C388.47 625.42 381.92 624.13 375.38 622.83C373.18 622.39 372.24 625.77 374.45 626.21Z" fill="#FF5408"/>
<path d="M230.95 614.2C243.14 621.86 254.45 630.85 264.67 641C266.27 642.59 268.75 640.11 267.15 638.52C256.72 628.17 245.16 618.99 232.72 611.18C230.8 609.97 229.04 613 230.95 614.2Z" fill="#FF5408"/>
<path d="M264.35 602.76C253.96 616.88 243.56 631 233.17 645.11C231.83 646.93 234.87 648.67 236.19 646.88C246.58 632.76 256.98 618.64 267.37 604.53C268.71 602.71 265.67 600.96 264.35 602.76Z" fill="#FF5408"/>
<path d="M283.89 643.42C283.7 636.53 284.03 629.63 284.98 622.8C285.74 617.34 286.65 611.58 289.22 606.63C290.37 604.42 291.85 602.37 293.81 600.82C294.74 600.08 295.87 599.33 297.08 599.18C298.56 599 299.15 600.18 299.69 601.35C302.32 607.04 302.28 613.94 302.56 620.08C302.92 627.93 302.82 635.8 302.31 643.65C302.16 645.9 305.66 645.89 305.81 643.65C306.31 635.97 306.41 628.26 306.08 620.57C305.78 613.61 305.71 606.01 302.71 599.58C301.23 596.41 298.45 594.87 295.01 596.12C292.29 597.11 290.03 599.25 288.3 601.51C284.73 606.18 283.21 612.09 282.22 617.78C280.75 626.24 280.13 634.83 280.36 643.41C280.45 645.67 283.95 645.68 283.89 643.42Z" fill="#FF5408"/>
<path d="M283.28 625.47C289.82 626.77 296.37 628.06 302.91 629.36C305.11 629.8 306.05 626.42 303.84 625.98C297.3 624.68 290.75 623.39 284.21 622.09C282.01 621.66 281.06 625.03 283.28 625.47Z" fill="#FF5408"/>
<path d="M513.06 600.77C523.11 613.28 531.79 626.87 538.98 641.22C539.54 642.34 541.45 642.39 542 641.22C542.54 640.06 542.48 638.8 541.49 637.9C539.82 636.39 537.34 638.86 539.01 640.38C539 640.07 538.99 639.76 538.98 639.46C539.99 639.46 541 639.46 542 639.46C534.67 624.83 525.78 611.05 515.53 598.3C514.93 597.56 513.68 597.69 513.05 598.3C512.32 599.01 512.47 600.04 513.06 600.77Z" fill="#FF5408"/>
</svg>
