<svg width="293" height="409" viewBox="0 0 293 409" fill="none" xmlns="http://www.w3.org/2000/svg">
<path d="M221.11 393V190.99C221.11 182.65 227.87 175.88 236.22 175.88H277.19C285.53 175.88 292.3 182.64 292.3 190.99V393C292.3 401.34 285.54 408.11 277.19 408.11H236.22C227.87 408.11 221.11 401.35 221.11 393Z" fill="#7116A0"/>
<path d="M277.18 233.07H15.6598C7.31981 233.07 0.549805 226.31 0.549805 217.96V176.99C0.549805 168.65 7.3098 161.88 15.6598 161.88H277.18C285.52 161.88 292.29 168.64 292.29 176.99V217.96C292.29 226.31 285.53 233.07 277.18 233.07Z" fill="#7116A0"/>
<path d="M0.549805 217.96V15.95C0.549805 7.60995 7.3098 0.839966 15.6598 0.839966H56.6298C64.9698 0.839966 71.7398 7.59995 71.7398 15.95V217.96C71.7398 226.3 64.9798 233.07 56.6298 233.07H15.6598C7.31981 233.07 0.549805 226.31 0.549805 217.96Z" fill="#7116A0"/>
<path d="M18.0899 14.4C23.4099 21.9 28.5499 29.52 33.4999 37.26C35.9499 41.1 38.3599 44.97 40.7199 48.86C41.8799 50.77 43.0299 52.69 44.1699 54.62C44.7399 55.58 45.2999 56.55 45.8699 57.52C46.0999 57.91 46.3999 58.31 46.5299 58.75C46.5699 58.89 46.6099 59.03 46.6399 59.17C46.5799 59.69 46.7399 59.5799 47.1099 58.8499C44.9699 59.5199 45.8799 62.9 48.0399 62.23C49.4999 61.77 50.2099 60.53 50.1199 59.03C50.0199 57.35 48.9799 55.92 48.1599 54.52C46.1399 51.07 44.0899 47.64 41.9899 44.24C37.7699 37.36 33.3899 30.57 28.8799 23.88C26.3299 20.1 23.7399 16.36 21.0999 12.64C19.8199 10.81 16.7899 12.56 18.0899 14.4Z" fill="#FF5408"/>
<path d="M44.2497 11.17C35.4997 26.39 26.1897 41.2799 16.3497 55.8199C15.0797 57.6899 18.1097 59.4399 19.3697 57.5899C29.2097 43.0599 38.5197 28.1599 47.2697 12.9399C48.3897 10.9799 45.3697 9.20998 44.2497 11.17Z" fill="#FF5408"/>
<path d="M23.2999 125.9C23.8599 113.76 21.0299 99.9401 28.2699 89.1801C29.7299 87.0101 31.7299 84.8 34.1699 83.74C36.9199 82.54 39.0699 83.9001 40.4899 86.3101C43.5099 91.4501 42.5499 98.29 42.4099 103.98C42.2199 111.94 42.0199 119.9 41.8299 127.86C41.7699 130.11 45.2799 130.11 45.3299 127.86C45.5199 120.07 45.7099 112.27 45.8999 104.48C46.0599 97.95 46.9699 90.4401 43.5199 84.5501C41.9199 81.8201 39.2799 79.58 35.9499 79.76C32.8099 79.94 30.0599 81.9 27.9399 84.08C23.6399 88.5 21.3699 94.5501 20.4399 100.56C19.1299 108.96 20.1999 117.46 19.8099 125.9C19.6999 128.15 23.1999 128.15 23.2999 125.9Z" fill="#FF5408"/>
<path d="M21.5498 109.69C28.4098 109.92 35.1698 111.16 41.6898 113.32C43.8298 114.03 44.7498 110.65 42.6198 109.94C35.8198 107.68 28.7098 106.43 21.5498 106.19C19.2998 106.11 19.2998 109.61 21.5498 109.69Z" fill="#FF5408"/>
<path d="M22.8497 146.51C31.4397 156.03 39.4597 166.05 46.8597 176.52C48.1497 178.35 51.1897 176.6 49.8797 174.75C42.3097 164.04 34.1097 153.77 25.3197 144.03C23.8097 142.36 21.3397 144.84 22.8497 146.51Z" fill="#FF5408"/>
<path d="M44.8096 144.53C41.6596 149.4 38.4095 154.19 35.0495 158.92C33.3895 161.25 31.7096 163.56 29.9996 165.85C29.1496 167 28.2896 168.14 27.4196 169.27C26.9896 169.84 26.5496 170.41 26.1196 170.97C25.9196 171.23 25.7196 171.49 25.5196 171.75C25.3696 171.94 25.2296 172.13 25.0796 172.31C24.5996 172.81 25.0296 173.02 26.3896 172.92C26.4796 173.63 26.5696 174.33 26.6596 175.04C26.6896 175 26.7196 174.97 26.7396 174.93C27.3096 174.17 26.8496 172.98 26.1096 172.54C25.2196 172.01 24.2796 172.42 23.7196 173.17C23.6896 173.21 23.6596 173.24 23.6396 173.28C23.2096 173.85 23.3796 174.94 23.9096 175.4C25.0896 176.4 26.4595 176.07 27.3995 174.97C28.4195 173.78 29.3396 172.47 30.2896 171.22C32.3596 168.51 34.3995 165.76 36.3995 163C40.3496 157.53 44.1595 151.95 47.8295 146.29C49.0595 144.4 46.0296 142.64 44.8096 144.53Z" fill="#FF5408"/>
<path d="M63.7197 216.14C60.7797 212.65 59.6597 208.04 59.2597 203.59C59.0497 201.27 58.9897 198.93 59.0197 196.6C59.0497 194.05 59.2097 191.37 60.3097 189.03C61.1697 187.2 62.5897 185.5 64.5797 184.88C66.4597 184.29 68.5197 184.73 70.2097 185.67C74.4397 188.01 76.0198 192.93 76.9498 197.38C78.2198 203.46 78.6697 209.68 78.4297 215.88C79.5997 215.88 80.7597 215.88 81.9297 215.88C81.9497 214.86 81.7097 214.01 81.2997 213.09C80.3697 211.04 77.3597 212.82 78.2797 214.86C78.4297 215.2 78.4397 215.52 78.4397 215.89C78.3997 218.15 81.8497 218.14 81.9397 215.89C82.1897 209.38 81.6697 202.83 80.3397 196.46C79.2397 191.22 77.1397 185.71 72.3097 182.84C67.6197 180.05 61.8897 180.79 58.5397 185.23C55.0797 189.82 55.3297 196.14 55.6197 201.59C55.9397 207.7 57.2197 213.82 61.2497 218.61C62.6897 220.34 65.1597 217.85 63.7197 216.14Z" fill="#FF5408"/>
<path d="M59.4395 204.7C65.9595 205.25 72.4895 205.81 79.0095 206.36C79.9495 206.44 80.7595 205.5 80.7595 204.61C80.7595 203.6 79.9595 202.94 79.0095 202.86C72.4895 202.31 65.9595 201.75 59.4395 201.2C58.4995 201.12 57.6895 202.06 57.6895 202.95C57.6895 203.96 58.4895 204.62 59.4395 204.7Z" fill="#FF5408"/>
<path d="M98.1799 182.42C107.39 192.3 110.43 206.1 118.14 216.98C119.15 216.39 120.16 215.8 121.16 215.21C120.92 214.88 120.69 214.55 120.45 214.22C119.14 212.41 116.11 214.15 117.43 215.99C117.67 216.32 117.9 216.65 118.14 216.98C119.44 218.79 122.47 217.06 121.16 215.21C113.25 204.06 110.11 190.08 100.65 179.94C99.1199 178.3 96.6499 180.78 98.1799 182.42Z" fill="#FF5408"/>
<path d="M116.08 184.11C113.57 189.54 109.8 194.21 106.16 198.91C104.19 201.46 102.22 204.01 100.25 206.56C99.2397 207.87 98.2297 209.18 97.2197 210.49C96.7697 211.08 96.3097 211.67 95.8597 212.26C95.6097 212.59 95.3497 212.91 95.0997 213.24C94.9997 213.37 94.8997 213.5 94.7997 213.63C94.3597 214.09 94.3897 214.15 94.8797 213.8C95.5397 214.07 96.1997 214.34 96.8597 214.6C96.8397 214.57 96.8297 214.53 96.8097 214.5C96.8097 215.09 96.8097 215.68 96.8097 216.27C96.8297 216.24 96.8497 216.2 96.8797 216.17C96.2197 216.44 95.5597 216.71 94.8997 216.97C94.9297 216.98 94.9497 216.99 94.9797 217C97.1097 217.75 98.0197 214.37 95.9097 213.62C95.8797 213.61 95.8597 213.6 95.8297 213.59C95.0897 213.33 94.2497 213.77 93.8497 214.39C93.4297 215.05 93.5297 215.69 93.8297 216.36C94.1697 217.12 95.0897 217.27 95.8097 217.16C97.1397 216.97 98.1297 214.98 98.8797 214.01C99.9397 212.64 101 211.26 102.06 209.89C104.18 207.14 106.31 204.39 108.43 201.65C112.31 196.63 116.42 191.67 119.1 185.87C120.04 183.84 117.02 182.06 116.08 184.11Z" fill="#FF5408"/>
<path d="M140.33 215.16C139.44 209.56 139.01 203.89 139.02 198.22C139.03 195.42 139.11 192.61 139.38 189.82C139.61 187.47 140.11 184.96 141.63 183.08C144.46 179.56 149.25 180.95 151.72 184.16C154.73 188.08 154.72 193.8 154.93 198.51C155.21 204.96 155.05 211.41 154.89 217.86C154.84 219.79 157.98 220.3 158.33 218.33C158.52 217.24 158.33 216.38 157.56 215.57C156 213.93 153.53 216.41 155.08 218.05C155.04 217.83 154.99 217.62 154.95 217.4C156.1 217.56 157.24 217.71 158.39 217.87C158.55 211.34 158.72 204.8 158.42 198.27C158.17 192.67 157.93 186.33 154.25 181.76C151.2 177.97 145.41 175.92 141.1 178.87C136.1 182.3 135.81 188.85 135.6 194.34C135.32 201.62 135.8 208.9 136.95 216.1C137.1 217.04 138.26 217.54 139.1 217.32C140.11 217.05 140.48 216.08 140.33 215.16Z" fill="#FF5408"/>
<path d="M136.71 203.16C143.1 204.04 149.54 204.12 155.94 203.28C156.88 203.16 157.69 202.56 157.69 201.53C157.69 200.68 156.88 199.66 155.94 199.78C149.88 200.58 143.7 200.62 137.64 199.79C136.7 199.66 135.76 200.02 135.49 201.01C135.26 201.82 135.77 203.03 136.71 203.16Z" fill="#FF5408"/>
<path d="M172.29 182.02C183.45 191.23 187.61 205.8 195.04 217.71C196.23 219.62 199.26 217.86 198.06 215.94C190.47 203.76 186.18 188.96 174.76 179.54C173.04 178.12 170.55 180.59 172.29 182.02Z" fill="#FF5408"/>
<path d="M193.48 179.18C187.68 191.08 181.02 202.55 173.55 213.48C172.28 215.34 175.31 217.1 176.57 215.25C184.04 204.32 190.7 192.86 196.5 180.95C197.49 178.93 194.47 177.16 193.48 179.18Z" fill="#FF5408"/>
<path d="M216.12 218.01C217.1 212.09 215.5 206.4 214.61 200.58C213.98 196.41 213.97 191.62 216.25 187.91C217.4 186.04 219.18 184.74 221.25 184.05C223.28 183.37 226.22 182.41 227.91 184.16C231.16 187.55 232.16 192.88 232.42 197.39C232.78 203.54 232.11 209.79 231.51 215.9C232.66 215.74 233.8 215.59 234.95 215.43C234.84 215.06 234.72 214.69 234.61 214.31C233.95 212.16 230.57 213.08 231.23 215.24C231.34 215.61 231.46 215.98 231.57 216.36C232.18 218.33 234.82 217.82 235.01 215.89C235.6 209.9 236.24 203.8 235.94 197.78C235.67 192.28 234.43 186.59 230.87 182.23C228.91 179.84 226.46 179.45 223.54 179.91C220.75 180.35 218.05 181.28 215.85 183.09C211.99 186.26 210.75 191.55 210.77 196.34C210.8 203.29 213.9 210.1 212.74 217.08C212.38 219.28 215.75 220.23 216.12 218.01Z" fill="#FF5408"/>
<path d="M214.57 203.33C220.55 203.48 226.54 203.44 232.52 203.22C234.77 203.14 234.78 199.64 232.52 199.72C226.54 199.94 220.55 199.98 214.57 199.83C212.32 199.78 212.32 203.28 214.57 203.33Z" fill="#FF5408"/>
<path d="M244.39 281.04C244.47 281.4 244.55 281.75 244.63 282.11C245.12 284.32 248.42 283.37 248.01 281.18C246.99 275.82 246.74 270.33 247.26 264.9C247.68 260.47 248.39 255.52 250.84 251.7C251.83 250.16 253.24 248.8 255.04 248.28C257.49 247.56 259.18 249.09 260.5 251C263.16 254.85 264.19 259.55 264.57 264.15C265.08 270.4 264.63 276.67 265.58 282.89C266.71 282.58 267.83 282.27 268.96 281.96C268.8 281.49 268.64 281.01 268.47 280.54C267.75 278.42 264.36 279.33 265.09 281.47C265.25 281.94 265.41 282.42 265.58 282.89C266.32 285.06 269.29 284.16 268.96 281.96C267.23 270.73 270.32 257.93 262.79 248.24C261.17 246.15 259 244.51 256.23 244.58C253.77 244.64 251.41 245.87 249.69 247.59C246.1 251.17 244.91 256.56 244.19 261.4C243.17 268.31 243.33 275.28 244.63 282.14C245.76 281.83 246.88 281.52 248.01 281.21C247.93 280.85 247.85 280.5 247.77 280.14C247.28 277.91 243.9 278.84 244.39 281.04Z" fill="#FF5408"/>
<path d="M246.13 268.66C248.87 269.97 251.83 270.33 254.85 270.39C258.02 270.45 261.19 270.39 264.35 270.39C266.6 270.39 266.61 266.89 264.35 266.89C261.39 266.9 258.42 266.93 255.46 266.9C252.91 266.88 250.24 266.76 247.9 265.64C247.05 265.23 246.01 265.4 245.51 266.27C245.05 267.03 245.27 268.25 246.13 268.66Z" fill="#FF5408"/>
<path d="M243.26 302.01C250.05 312.67 257.93 322.63 266.74 331.69C268.31 333.31 270.79 330.83 269.22 329.21C260.61 320.35 252.93 310.65 246.29 300.23C245.07 298.35 242.04 300.1 243.26 302.01Z" fill="#FF5408"/>
<path d="M263.9 296.57C259.97 303.08 256.12 309.64 252.38 316.26C250.55 319.5 248.74 322.75 246.95 326.02C246.02 327.72 245.09 329.43 244.17 331.14C243.71 332 243.25 332.85 242.79 333.71C242.42 334.41 242.05 335.52 241.47 336.03C241.88 335.86 242.3 335.69 242.71 335.52C242.61 335.53 242.5 335.55 242.4 335.56C242.81 335.73 243.23 335.9 243.64 336.07C243.6 336.03 243.56 336 243.52 335.96C243.69 336.37 243.86 336.79 244.03 337.2C243.81 337.57 243.59 337.94 243.36 338.31C242.65 338.22 241.95 338.13 241.24 338.04C241.27 338.07 241.31 338.1 241.34 338.13C243.03 339.61 245.52 337.14 243.82 335.65C243.79 335.62 243.75 335.59 243.72 335.56C243.15 335.06 242.28 334.85 241.6 335.29C239.91 336.36 240.38 339.12 242.56 339.05C244.7 338.98 245.67 335.77 246.51 334.2C248.65 330.21 250.82 326.23 253.03 322.27C257.52 314.21 262.16 306.24 266.93 298.34C268.09 296.4 265.07 294.64 263.9 296.57Z" fill="#FF5408"/>
<path d="M247.919 389.04C247.859 382.9 245.989 377.02 245.499 370.93C245.119 366.18 245.509 360.54 249.039 356.94C251.829 354.09 256.869 352.48 260.229 355.33C261.929 356.78 262.819 358.92 263.409 361.02C264.139 363.61 264.529 366.33 264.839 369C265.659 376.01 265.589 383.1 264.679 390.1C264.559 391.05 265.569 391.84 266.429 391.85C267.479 391.86 268.059 391.03 268.179 390.1C269.069 383.18 269.149 376.17 268.359 369.23C267.749 363.85 267.149 357.05 262.959 353.09C259.109 349.45 253.319 349.7 249.039 352.46C244.159 355.6 242.169 361.24 241.909 366.82C241.559 374.34 244.329 381.55 244.409 389.04C244.439 391.29 247.939 391.3 247.919 389.04Z" fill="#FF5408"/>
<path d="M244.889 376.15C248.389 375.87 251.889 375.6 255.389 375.32C257.109 375.18 258.819 375.05 260.539 374.91C261.359 374.84 262.189 374.78 263.009 374.71C263.419 374.68 263.829 374.64 264.239 374.61C264.509 374.59 264.789 374.57 265.059 374.54C264.799 374.42 264.779 374.44 265.029 374.59C264.819 374.38 264.609 374.17 264.399 373.96C264.439 374.01 264.469 374.06 264.509 374.1C264.429 373.81 264.349 373.51 264.269 373.22C264.279 373.27 264.279 373.32 264.289 373.37C264.369 373.08 264.449 372.78 264.529 372.49C264.499 372.54 264.469 372.59 264.439 372.64C263.279 374.58 266.299 376.34 267.459 374.41C268.669 372.39 266.439 370.98 264.649 371.08C262.449 371.2 260.259 371.43 258.059 371.6C253.669 371.95 249.279 372.29 244.889 372.64C242.659 372.82 242.639 376.33 244.889 376.15Z" fill="#FF5408"/>
<path d="M244.52 196.04C247.41 203.25 250.6 210.35 254.13 217.27C255.87 220.69 257.7 224.07 259.59 227.41C261.46 230.72 263.33 234.02 264.35 237.71C265.33 237.14 266.3 236.57 267.28 236.01C266.91 235.63 266.55 235.25 266.18 234.87C264.62 233.24 262.14 235.72 263.7 237.35C264.07 237.73 264.43 238.11 264.8 238.49C266.02 239.76 268.19 238.45 267.73 236.79C266.71 233.12 264.93 229.75 263.06 226.45C261.18 223.11 259.33 219.76 257.58 216.36C254.02 209.44 250.79 202.35 247.89 195.13C247.54 194.25 246.72 193.65 245.74 193.91C244.91 194.1 244.17 195.16 244.52 196.04Z" fill="#FF5408"/>
<path d="M264.6 193.06C256.14 207.68 248.01 222.48 240.22 237.47C239.18 239.47 242.2 241.24 243.24 239.24C251.03 224.25 259.16 209.45 267.62 194.83C268.76 192.88 265.73 191.11 264.6 193.06Z" fill="#FF5408"/>
</svg>
