<svg width="722" height="519" viewBox="0 0 722 519" fill="none" xmlns="http://www.w3.org/2000/svg">
<path d="M702.599 199.19H383.689C373.789 199.19 365.77 191.17 365.77 181.27V128.42C365.77 118.52 373.789 110.5 383.689 110.5H702.599C712.499 110.5 720.52 118.52 720.52 128.42V181.27C720.52 191.17 712.49 199.19 702.599 199.19Z" fill="#FF5408"/>
<path d="M632.99 180.11V18.73C632.99 8.82998 641.01 0.809998 650.91 0.809998H703.76C713.66 0.809998 721.68 8.82998 721.68 18.73V180.11C721.68 190.01 713.66 198.03 703.76 198.03H650.91C641.02 198.02 632.99 190 632.99 180.11Z" fill="#FF5408"/>
<path d="M365.77 289.8V128.42C365.77 118.52 373.789 110.5 383.689 110.5H436.54C446.44 110.5 454.459 118.52 454.459 128.42V289.8C454.459 299.7 446.44 307.72 436.54 307.72H383.689C373.789 307.72 365.77 299.69 365.77 289.8Z" fill="#FF5408"/>
<path d="M216.81 220.14H436.97C446.87 220.14 454.89 228.16 454.89 238.06V290.91C454.89 300.81 446.87 308.83 436.97 308.83H216.81C206.91 308.83 198.89 300.81 198.89 290.91V238.06C198.89 228.16 206.91 220.14 216.81 220.14Z" fill="#FF5408"/>
<path d="M287.3 238.4V501.02C287.3 510.92 279.28 518.94 269.38 518.94H216.53C206.63 518.94 198.61 510.92 198.61 501.02V238.4C198.61 228.5 206.63 220.48 216.53 220.48H269.38C279.27 220.48 287.3 228.5 287.3 238.4Z" fill="#FF5408"/>
<path d="M268.7 518.93H68.5997C58.6997 518.93 50.6797 510.91 50.6797 501.01V448.16C50.6797 438.26 58.6997 430.24 68.5997 430.24H268.7C278.6 430.24 286.62 438.26 286.62 448.16V501.01C286.62 510.91 278.6 518.93 268.7 518.93Z" fill="#FF5408"/>
<path d="M0.509766 500.84V236.95C0.509766 227.05 8.52975 219.03 18.4297 219.03H71.2798C81.1798 219.03 89.1998 227.05 89.1998 236.95V500.84C89.1998 510.74 81.1798 518.76 71.2798 518.76H18.4297C8.53975 518.76 0.509766 510.73 0.509766 500.84Z" fill="#FF5408"/>
<path d="M23.5198 234.67C33.0598 247.62 43.1597 260.16 53.7897 272.22C56.8197 275.65 59.8898 279.04 62.9998 282.4C64.5298 284.06 67.0097 281.58 65.4797 279.92C54.6997 268.29 44.4298 256.2 34.6998 243.67C31.9398 240.11 29.2197 236.52 26.5497 232.89C25.2197 231.11 22.1798 232.85 23.5198 234.67Z" fill="#7116A0"/>
<path d="M59.78 234.09C48.34 249.99 35.6299 264.96 21.7999 278.84C20.2099 280.44 22.68 282.91 24.28 281.32C35.21 270.34 45.4499 258.68 54.9299 246.42C57.6199 242.95 60.2399 239.43 62.8099 235.86C64.1199 234.03 61.08 232.28 59.78 234.09Z" fill="#7116A0"/>
<path d="M30.9498 344.67C29.6398 331.36 28.1997 316.53 35.9197 304.75C37.3997 302.5 39.3198 300.04 41.9398 299.09C44.7397 298.07 47.6497 299.42 49.5597 301.51C51.6397 303.77 52.5997 306.87 53.2897 309.8C54.0897 313.2 54.4798 316.66 54.6398 320.15C55.0198 328.31 54.4698 336.56 53.6998 344.69C53.4898 346.93 56.9898 346.92 57.1998 344.69C57.9598 336.72 58.4997 328.63 58.1697 320.63C58.0097 316.69 57.5697 312.73 56.6697 308.88C55.8997 305.58 54.7298 302.31 52.5698 299.66C50.5098 297.13 47.3998 295.32 44.0898 295.25C40.7698 295.18 37.8198 297.07 35.6398 299.44C30.9998 304.48 28.4198 311.34 27.2798 318C25.7598 326.85 26.5897 335.82 27.4697 344.69C27.6697 346.89 31.1698 346.92 30.9498 344.67Z" fill="#7116A0"/>
<path d="M28.6001 325.33C37.2901 325.43 45.9901 325.54 54.6801 325.64C56.9301 325.67 56.9301 322.17 54.6801 322.14C45.9901 322.04 37.2901 321.93 28.6001 321.83C26.3501 321.8 26.3501 325.3 28.6001 325.33Z" fill="#7116A0"/>
<path d="M24.3099 366.19C38.5699 376.46 51.0799 389.14 61.1599 403.53C62.4399 405.36 65.4799 403.61 64.1799 401.76C53.7299 386.85 40.8399 373.81 26.0699 363.17C24.2499 361.85 22.4999 364.89 24.3099 366.19Z" fill="#7116A0"/>
<path d="M59.45 361.81C48.02 376.49 36.12 390.8 23.77 404.71C22.28 406.39 24.75 408.87 26.25 407.19C38.6 393.28 50.5 378.97 61.93 364.29C62.51 363.54 62.65 362.55 61.93 361.81C61.33 361.2 60.03 361.07 59.45 361.81Z" fill="#7116A0"/>
<path d="M30.4799 474.75C29.9799 467.24 30.1399 459.69 31.0599 452.22C31.8399 445.86 33.3799 439.12 37.5999 434.1C41.2799 429.72 47.53 426.25 52.84 430.02C58.21 433.83 59.0499 441.37 59.7399 447.38C60.6899 455.64 60.7599 463.98 60.0099 472.26C59.7999 474.5 63.3099 474.49 63.5099 472.26C64.2499 464.14 64.1999 455.97 63.2999 447.87C62.5399 441 61.6199 433.05 56.1199 428.18C53.6999 426.04 50.61 424.68 47.34 424.86C43.74 425.06 40.4499 426.75 37.7299 429.02C32.2599 433.57 29.54 440.56 28.28 447.38C26.62 456.35 26.3599 465.66 26.9699 474.75C27.1299 476.99 30.6399 477 30.4799 474.75Z" fill="#7116A0"/>
<path d="M30.04 457.14C40.55 456.56 51.0601 455.97 61.5701 455.38C63.8101 455.26 63.8201 451.75 61.5701 451.88C51.0601 452.47 40.55 453.05 30.04 453.64C27.8 453.76 27.78 457.26 30.04 457.14Z" fill="#7116A0"/>
<path d="M79.0899 463.39C89.8999 476.02 100.28 489.01 110.2 502.35C110.77 503.11 111.71 503.48 112.59 502.98C113.34 502.55 113.78 501.34 113.22 500.59C103.12 487.01 92.5698 473.77 81.5698 460.92C80.0898 459.2 77.6299 461.69 79.0899 463.39Z" fill="#7116A0"/>
<path d="M106.46 458.7C101.3 467 96.02 475.21 90.62 483.35C87.94 487.38 85.23 491.4 82.49 495.39C81.12 497.39 79.74 499.38 78.36 501.37C76.98 503.34 75.28 505.29 74.14 507.41C73.64 508.34 73.5 509.46 74.14 510.35C74.8 511.28 76.05 511.57 76.98 510.85C78.83 509.42 77.23 506.12 74.97 507.44C73.03 508.58 74.79 511.61 76.74 510.46C76.78 510.44 76.82 510.41 76.86 510.39C76.27 510.39 75.68 510.39 75.09 510.39C75.11 510.4 75.14 510.42 75.16 510.43C74.89 510.08 74.62 509.73 74.36 509.38C74.37 509.11 74.39 508.85 74.4 508.58C74.75 508.31 75.1 508.04 75.45 507.78C75.67 507.78 75.89 507.77 76.11 507.77C76.46 508.04 76.81 508.31 77.16 508.57C77.05 509.25 77.11 509.35 77.34 508.87C77.53 508.61 77.71 508.34 77.9 508.08C78.27 507.55 78.64 507.02 79.02 506.5C79.76 505.44 80.5 504.39 81.24 503.33C82.63 501.34 84 499.35 85.37 497.36C88.11 493.37 90.82 489.35 93.5 485.32C98.95 477.12 104.28 468.83 109.48 460.47C110.68 458.55 107.65 456.79 106.46 458.7Z" fill="#7116A0"/>
<path d="M133.07 504.02C132 496.44 130.96 488.82 131 481.15C131.02 477.45 131.28 473.74 131.98 470.1C132.59 466.86 133.36 463.45 135.17 460.65C136.52 458.57 138.75 456.83 141.33 457.89C144.13 459.04 145.87 462.24 147.11 464.82C150.02 470.89 150.57 477.84 150.52 484.48C150.45 493.18 149.61 501.93 148.39 510.54C148.26 511.48 148.62 512.41 149.61 512.69C150.43 512.93 151.63 512.4 151.76 511.47C152.97 502.95 153.83 494.34 154 485.74C154.15 478.23 153.53 470.53 150.39 463.61C148.95 460.45 146.93 457.16 143.91 455.3C141 453.52 137.49 453.75 134.83 455.85C132.29 457.85 130.81 460.96 129.88 463.99C128.64 468.05 127.97 472.28 127.68 476.51C127.02 486.03 128.38 495.55 129.71 504.95C129.84 505.89 131.03 506.39 131.86 506.17C132.86 505.9 133.21 504.95 133.07 504.02Z" fill="#7116A0"/>
<path d="M129.68 486.92C136.94 487.03 144.18 487.49 151.39 488.29C152.33 488.39 153.14 487.41 153.14 486.54C153.14 485.51 152.33 484.89 151.39 484.79C144.18 483.99 136.93 483.53 129.68 483.42C127.43 483.39 127.43 486.89 129.68 486.92Z" fill="#7116A0"/>
<path d="M168.03 454.54C173.26 460.81 177.99 467.49 182.18 474.5C184.29 478.04 186.27 481.65 188.1 485.35C189.79 488.75 191.25 492.24 192.94 495.64C194.78 499.35 197.01 502.92 200.13 505.69C201.31 506.74 203.75 505.74 203.06 503.99C202.87 503.5 202.67 503.01 202.48 502.52C201.66 500.45 198.27 501.35 199.1 503.45C199.29 503.94 199.49 504.43 199.68 504.92C200.66 504.35 201.63 503.78 202.61 503.22C197.02 498.24 194.63 490.74 191.42 484.19C187.82 476.86 183.66 469.81 178.97 463.12C176.31 459.32 173.47 455.63 170.5 452.07C169.06 450.33 166.6 452.82 168.03 454.54Z" fill="#7116A0"/>
<path d="M191.94 453.57C188.72 461.64 185.5 469.72 182.27 477.79C180.67 481.79 179.08 485.79 177.48 489.78C176.68 491.78 175.88 493.78 175.09 495.78C174.69 496.78 174.29 497.78 173.89 498.78C173.71 499.24 173.52 499.7 173.34 500.16C173.22 500.47 173.09 500.77 172.97 501.08C172.73 501.52 172.84 501.49 173.31 500.99C173.76 501.05 174.21 501.11 174.66 501.17C174.61 501.14 174.56 501.11 174.52 501.08C174.79 501.43 175.06 501.78 175.32 502.13C175.21 502.55 175.1 502.96 174.98 503.38C174.27 503.47 173.57 503.56 172.86 503.65C172.9 503.67 172.94 503.69 172.99 503.71C175.02 504.64 176.8 501.63 174.76 500.69C174.72 500.67 174.68 500.65 174.63 500.63C173.91 500.3 173.1 500.32 172.51 500.9C170.81 502.56 172.78 505.29 174.9 504.15C175.86 503.64 176.17 502.48 176.54 501.55C177.03 500.32 177.52 499.09 178.01 497.86C179.91 493.09 181.81 488.33 183.72 483.56C187.59 473.87 191.45 464.19 195.32 454.5C195.67 453.62 194.93 452.59 194.1 452.35C193.1 452.06 192.29 452.7 191.94 453.57Z" fill="#7116A0"/>
<path d="M221.32 502.98C219.57 496.35 218.52 489.57 218.24 482.72C217.99 476.5 217.99 469.66 221.62 464.31C223.09 462.15 225.54 459.86 228.24 459.47C231 459.07 233.13 462.24 234.33 464.3C237.49 469.71 239.13 476.22 240.2 482.35C241.48 489.69 241.69 497.18 241.41 504.6C242.5 504.31 243.58 504.01 244.67 503.72C244.28 503.19 243.9 502.66 243.51 502.14C242.19 500.34 239.15 502.09 240.49 503.91C240.88 504.44 241.26 504.97 241.65 505.49C242.65 506.86 244.84 506.44 244.91 504.61C245.19 497.23 244.94 489.84 243.77 482.55C243.18 478.89 242.35 475.27 241.22 471.74C240.17 468.47 238.95 465.12 237.15 462.18C235.56 459.58 233.19 456.67 230.03 456.06C226.76 455.43 223.37 457.43 221.08 459.6C215.95 464.45 214.72 471.73 214.67 478.47C214.61 487.04 215.77 495.64 217.96 503.92C218.52 506.09 221.9 505.17 221.32 502.98Z" fill="#7116A0"/>
<path d="M218.09 488.73C226.08 488.82 234.08 488.48 242.03 487.7C244.25 487.48 244.27 483.98 242.03 484.2C234.07 484.98 226.08 485.32 218.09 485.23C215.83 485.2 215.83 488.7 218.09 488.73Z" fill="#7116A0"/>
<path d="M221.35 432.27C236.79 431.86 252.18 430.55 267.48 428.42C268.42 428.29 268.92 427.1 268.7 426.27C268.43 425.26 267.48 424.92 266.55 425.05C251.57 427.14 236.47 428.37 221.35 428.78C219.11 428.83 219.1 432.34 221.35 432.27Z" fill="#7116A0"/>
<path d="M224.35 408.15C232.8 422.48 241.24 436.8 249.69 451.13C250.83 453.07 253.86 451.31 252.71 449.36C244.26 435.03 235.82 420.71 227.37 406.38C226.23 404.45 223.2 406.21 224.35 408.15Z" fill="#7116A0"/>
<path d="M259.1 397.05C257.95 397.72 256.63 397.62 255.35 397.43C253.81 397.21 252.29 396.89 250.77 396.57C247.69 395.92 244.63 395.14 241.61 394.23C236.03 392.54 230.26 390.59 225.36 387.35C223.29 385.98 220.74 384.12 219.94 381.65C219.13 379.16 221.11 377.02 223.2 376C225.79 374.74 228.95 374.43 231.78 374.3C234.88 374.16 238 374.38 241.06 374.88C248.09 376.04 254.85 378.43 261.54 380.84C263.66 381.6 264.58 378.22 262.47 377.46C255.64 375 248.73 372.56 241.53 371.43C238 370.88 234.42 370.6 230.85 370.85C227.55 371.08 224.01 371.55 221.06 373.16C218.47 374.58 216.38 377.18 216.25 380.22C216.11 383.41 218.27 386.11 220.56 388.08C225.51 392.34 231.85 394.71 237.97 396.74C241.86 398.03 245.82 399.1 249.83 399.94C253.3 400.67 257.56 401.99 260.86 400.06C262.81 398.93 261.05 395.91 259.1 397.05Z" fill="#7116A0"/>
<path d="M242.1 392.9C242.78 386.81 243.83 380.77 245.23 374.81C245.74 372.62 242.37 371.68 241.85 373.88C240.38 380.15 239.3 386.5 238.59 392.9C238.49 393.84 239.47 394.65 240.34 394.65C241.38 394.65 241.99 393.84 242.1 392.9Z" fill="#7116A0"/>
<path d="M218.78 352.41C228.08 351.65 236.32 347.24 245.1 344.51C249.79 343.05 254.57 342.43 259.45 342.03C264.43 341.62 269.44 341.26 274.29 339.97C276.46 339.39 275.54 336.01 273.36 336.59C263.92 339.11 253.98 338.15 244.58 341C236 343.61 227.84 348.16 218.77 348.9C216.55 349.09 216.53 352.59 218.78 352.41Z" fill="#7116A0"/>
<path d="M225.39 324.02C236.65 338.1 247.91 352.18 259.18 366.26C259.78 367 261.03 366.87 261.66 366.26C262.4 365.54 262.25 364.52 261.66 363.78C250.4 349.7 239.14 335.62 227.87 321.54C227.27 320.8 226.02 320.93 225.39 321.54C224.65 322.27 224.8 323.29 225.39 324.02Z" fill="#7116A0"/>
<path d="M262.14 319.1C255.01 317.22 247.94 315.09 240.96 312.71C234.87 310.63 227.93 308.68 223.4 303.83C221.45 301.74 219.92 298.98 219.89 296.05C219.85 292.88 222.11 291.04 224.96 290.13C231.02 288.19 237.93 290.46 243.74 292.29C251.07 294.6 258.11 297.74 264.76 301.6C264.9 300.53 265.04 299.47 265.18 298.4C264.55 298.53 263.91 298.67 263.28 298.8C261.08 299.27 262.01 302.64 264.21 302.18C264.84 302.05 265.48 301.91 266.11 301.78C267.61 301.46 267.78 299.31 266.53 298.58C259.95 294.76 252.98 291.63 245.75 289.26C239.22 287.13 231.67 284.74 224.79 286.54C221.56 287.38 218.25 289.3 216.99 292.53C215.75 295.7 216.55 299.39 218.06 302.32C221.45 308.87 228.5 311.96 235.07 314.35C243.65 317.46 252.38 320.16 261.21 322.49C263.39 323.05 264.32 319.68 262.14 319.1Z" fill="#7116A0"/>
<path d="M239.75 311.36C239.7 304.76 241.8 298.37 245.68 293.04C246.24 292.27 245.81 291.09 245.05 290.65C244.17 290.13 243.21 290.51 242.66 291.28C238.45 297.08 236.21 304.21 236.26 311.37C236.26 313.61 239.76 313.62 239.75 311.36Z" fill="#7116A0"/>
<path d="M234.01 249.83C242.48 251.33 250.54 254.21 258.18 258.13C265.64 261.96 272.67 266.55 279.68 271.13C281.57 272.37 283.33 269.34 281.45 268.11C274.31 263.44 267.16 258.77 259.55 254.9C251.76 250.94 243.56 247.98 234.95 246.46C232.74 246.06 231.79 249.43 234.01 249.83Z" fill="#7116A0"/>
<path d="M251.22 237.08C253.23 245.44 255.23 253.81 257.24 262.17C259.21 270.38 261.27 278.62 261.59 287.09C261.68 289.34 265.18 289.35 265.09 287.09C264.76 278.47 262.73 270.07 260.73 261.72C258.69 253.2 256.64 244.67 254.6 236.15C254.07 233.96 250.7 234.89 251.22 237.08Z" fill="#7116A0"/>
<path d="M303.51 290.03C301.91 282.33 300.18 274.65 298.74 266.92C297.41 259.8 296.33 251.88 298.59 244.84C299.38 242.38 300.94 239.76 303.74 239.39C306.55 239.02 309.29 240.8 311.12 242.76C315.37 247.33 316.51 253.94 317.4 259.88C318.04 264.17 318.63 268.48 319.25 272.78C319.56 274.92 319.86 277.06 320.17 279.2C320.33 280.35 320.5 281.5 320.66 282.65C320.73 283.14 320.8 283.64 320.87 284.13C320.92 284.46 320.96 284.79 321.01 285.12C321.03 285.58 321.06 285.59 321.09 285.16C321.44 284.89 321.79 284.62 322.14 284.36C322.52 284.46 322.89 284.56 323.27 284.66C323.42 285.23 323.57 285.8 323.72 286.36C323.73 286.3 323.74 286.23 323.75 286.17C323.9 285.23 323.51 284.3 322.53 284.02C321.7 283.78 320.52 284.31 320.38 285.24C320.23 286.17 320.43 287.04 321.3 287.56C322.1 288.03 323.18 287.92 323.85 287.28C324.58 286.59 324.59 285.6 324.47 284.68C324.32 283.53 324.14 282.38 323.98 281.23C323.31 276.54 322.64 271.85 321.97 267.16C320.88 259.54 320.38 251.21 316.55 244.34C314.81 241.22 312.26 238.37 308.95 236.9C305.62 235.42 301.84 235.47 298.94 237.86C296.27 240.06 295.09 243.62 294.5 246.91C293.7 251.39 293.73 255.95 294.24 260.47C294.81 265.52 295.88 270.5 296.91 275.47C297.99 280.64 299.06 285.8 300.14 290.97C300.59 293.17 303.97 292.23 303.51 290.03Z" fill="#7116A0"/>
<path d="M298.45 267.12C301.82 267.04 305.17 267.57 308.5 268C311.93 268.44 315.36 268.88 318.79 269.33C319.73 269.45 320.54 268.44 320.54 267.58C320.54 266.53 319.73 265.95 318.79 265.83C315.36 265.39 311.93 264.95 308.5 264.5C305.17 264.07 301.82 263.54 298.45 263.62C296.2 263.68 296.2 267.18 298.45 267.12Z" fill="#7116A0"/>
<path d="M333.29 242.35C337.33 250.38 344.66 256.11 348.91 264.03C352.99 271.63 355.18 280.08 359.4 287.61C360.56 289.67 361.85 291.78 363.43 293.55C364.21 294.43 365.49 294.99 366.55 294.18C367.53 293.42 367.55 291.98 366.66 291.14C366.08 290.6 365.24 290.48 364.54 290.87C364.5 290.89 364.46 290.91 364.42 290.93C362.45 292.03 364.21 295.05 366.19 293.95C366.23 293.93 366.27 293.91 366.31 293.89C365.6 293.8 364.9 293.71 364.19 293.62C364.09 293.46 364 293.3 363.9 293.13C363.96 292.68 364.02 292.23 364.08 291.78C364.05 291.83 364.02 291.87 363.99 291.92C364.49 291.63 365 291.34 365.5 291.05C365.92 291.03 366.19 291.6 365.79 290.92C365.7 290.76 365.55 290.61 365.44 290.47C365.16 290.11 364.9 289.74 364.64 289.37C364.07 288.56 363.54 287.72 363.03 286.87C362.08 285.28 361.24 283.63 360.45 281.95C358.84 278.51 357.52 274.95 356.1 271.43C354.65 267.83 353.12 264.23 351.17 260.86C349.2 257.46 346.71 254.41 344.17 251.42C341.27 248 338.35 244.6 336.32 240.57C335.3 238.57 332.28 240.34 333.29 242.35Z" fill="#7116A0"/>
<path d="M356.13 244.93C351.74 261.77 345.07 277.94 336.32 292.98C335.18 294.93 338.21 296.7 339.34 294.75C348.24 279.46 355.04 262.98 359.51 245.86C360.07 243.68 356.7 242.75 356.13 244.93Z" fill="#7116A0"/>
<path d="M383.79 291.67C382.55 284.54 381.75 277.35 381.39 270.12C381.21 266.51 381.13 262.89 381.19 259.27C381.24 256.21 381.4 252.9 382.87 250.14C384.06 247.91 386.27 245.83 388.93 245.76C391.55 245.69 393.68 247.69 394.86 249.86C396.37 252.64 396.6 255.96 396.85 259.05C397.15 262.67 397.33 266.3 397.43 269.93C397.66 278.19 397.46 286.45 397.26 294.71C398.41 294.55 399.55 294.4 400.7 294.24C400.41 293.51 400.12 292.78 399.83 292.05C399.01 289.98 395.62 290.88 396.45 292.98C396.74 293.71 397.03 294.44 397.32 295.17C398.02 296.93 400.71 296.8 400.76 294.7C400.96 286.44 401.15 278.18 400.93 269.92C400.82 265.96 400.62 262 400.27 258.05C399.96 254.53 399.52 250.87 397.7 247.76C396.16 245.12 393.57 242.89 390.48 242.37C387.38 241.85 384.34 243.13 382.13 245.29C376.9 250.4 377.56 258.78 377.72 265.48C377.93 274.57 378.85 283.63 380.41 292.59C380.8 294.82 384.17 293.88 383.79 291.67Z" fill="#7116A0"/>
<path d="M381.27 278.81C383.52 277.35 386.3 277.6 388.86 277.57C392.16 277.54 395.46 277.11 398.67 276.32C400.37 275.91 400.3 273.39 398.67 272.94C398.51 272.9 398.35 272.85 398.19 272.81C396.01 272.21 395.09 275.59 397.26 276.19C397.42 276.23 397.58 276.28 397.74 276.32C397.74 275.19 397.74 274.07 397.74 272.94C394.53 273.72 391.3 274.06 388 274.06C385.08 274.06 382.04 274.13 379.51 275.77C377.62 277.02 379.37 280.05 381.27 278.81Z" fill="#7116A0"/>
<path d="M405.42 252.7C419.42 254.06 433.21 257.5 447.33 257.5C449.23 257.5 449.8 254.33 447.8 254.06C447.35 254 446.89 253.94 446.44 253.88C445.5 253.75 444.57 254.11 444.29 255.1C444.06 255.91 444.58 257.13 445.51 257.25C445.96 257.31 446.42 257.37 446.87 257.43C447.03 256.28 447.18 255.14 447.34 253.99C433.22 254 419.43 250.56 405.43 249.19C403.18 248.99 403.19 252.49 405.42 252.7Z" fill="#7116A0"/>
<path d="M408.63 232.16C414.91 246.22 421.2 260.28 427.48 274.34C428.4 276.39 431.42 274.61 430.5 272.57C424.22 258.51 417.93 244.45 411.65 230.39C410.74 228.34 407.72 230.12 408.63 232.16Z" fill="#7116A0"/>
<path d="M434.49 222.41C427.24 220.18 419.98 217.96 412.74 215.71C407.37 214.04 401.92 212.21 397.25 208.98C395.05 207.46 393.07 205.55 391.62 203.29C390.34 201.3 389.28 198.56 390.11 196.2C391.15 193.25 395.27 193.2 397.86 193.11C401.3 192.98 404.71 193.41 408.04 194.25C411.81 195.19 415.44 196.58 418.95 198.23C420.66 199.03 422.33 199.89 423.99 200.78C424.85 201.24 425.7 201.71 426.55 202.19C426.94 202.41 427.33 202.63 427.72 202.86C427.98 203.01 428.24 203.16 428.49 203.31C429.22 203.87 429.57 203.28 429.55 201.53C427.31 201.34 427.32 204.84 429.55 205.03C431.58 205.2 432.5 202.79 431.43 201.29C430.96 200.63 430.18 200.24 429.49 199.85C428.52 199.29 427.54 198.74 426.55 198.2C422.99 196.25 419.33 194.47 415.54 193C411.74 191.53 407.81 190.44 403.76 189.92C399.98 189.44 395.76 189.32 392.06 190.39C388.57 191.4 386.4 194.21 386.35 197.84C386.3 201.22 387.87 204.31 389.91 206.9C394.09 212.21 400.45 215.2 406.67 217.41C415.5 220.56 424.6 223.04 433.55 225.8C435.72 226.45 436.64 223.07 434.49 222.41Z" fill="#7116A0"/>
<path d="M409.75 213.38C409.29 211.85 409.58 210.37 410.04 208.87C410.56 207.18 411.21 205.53 411.81 203.87C413.02 200.52 414.23 197.17 415.44 193.82C415.76 192.93 415.08 191.9 414.22 191.67C413.25 191.4 412.39 192 412.07 192.89C410.77 196.49 409.47 200.1 408.17 203.7C406.95 207.07 405.29 210.68 406.39 214.31C407.03 216.47 410.41 215.55 409.75 213.38Z" fill="#7116A0"/>
<path d="M390.86 161.78C407.03 166.78 423.19 171.79 439.36 176.79C441.52 177.46 442.44 174.08 440.29 173.41C424.12 168.41 407.96 163.4 391.79 158.4C389.63 157.74 388.71 161.12 390.86 161.78Z" fill="#7116A0"/>
<path d="M400.26 142.52C408.07 159.05 416.84 175.12 426.5 190.64C427.69 192.55 430.72 190.79 429.52 188.87C419.85 173.35 411.09 157.28 403.28 140.75C402.32 138.71 399.31 140.49 400.26 142.52Z" fill="#7116A0"/>
<path d="M457.96 177.51C455.46 170.32 452.97 163.11 451.27 155.68C450.42 151.95 449.77 148.17 449.47 144.36C449.24 141.52 449.13 138.62 449.88 135.84C450.5 133.55 451.81 131.31 454.24 130.65C456.92 129.93 459.69 131.51 461.57 133.31C463.93 135.56 465.36 138.61 466.44 141.65C467.67 145.1 468.55 148.67 469.47 152.21C471.68 160.72 473.58 169.3 475.18 177.94C476.25 177.49 477.31 177.04 478.38 176.59C477.98 175.94 477.58 175.29 477.17 174.64C475.99 172.73 472.96 174.48 474.15 176.41C474.55 177.06 474.95 177.71 475.36 178.36C476.44 180.11 478.92 178.93 478.56 177.01C476.98 168.53 475.12 160.11 472.97 151.75C471.15 144.71 469.59 136.25 464.18 130.97C461.88 128.73 458.77 126.94 455.47 126.98C452.34 127.02 449.59 128.77 447.97 131.4C446.4 133.95 445.89 137.09 445.8 140.04C445.69 143.88 446.23 147.79 446.88 151.57C448.45 160.78 451.53 169.65 454.58 178.46C455.32 180.56 458.7 179.65 457.96 177.51Z" fill="#7116A0"/>
<path d="M450.68 159.16C457.85 159.91 465.06 159.58 472.15 158.27C473.08 158.1 473.61 156.97 473.37 156.12C473.1 155.14 472.15 154.73 471.22 154.9C464.45 156.15 457.53 156.38 450.68 155.66C449.74 155.56 448.93 156.53 448.93 157.41C448.93 158.44 449.73 159.06 450.68 159.16Z" fill="#7116A0"/>
<path d="M488.53 127.5C500.15 141.94 510.36 157.45 519.14 173.77C520.03 175.43 521.44 179.49 524.06 178.16C526.12 177.11 524.94 173.6 522.62 174.34C520.48 175.02 521.39 178.4 523.55 177.72C523.6 177.7 523.64 177.69 523.69 177.68C523.24 177.62 522.79 177.56 522.34 177.5C522.38 177.53 522.41 177.55 522.45 177.58C522.18 177.23 521.91 176.88 521.65 176.53C522.01 176.29 522.37 176.04 522.73 175.8C523.73 175.65 524.05 175.33 523.69 174.85C523.66 174.65 523.43 174.37 523.34 174.19C523.1 173.75 522.87 173.31 522.63 172.88C522.13 171.95 521.63 171.01 521.12 170.08C520.16 168.32 519.19 166.57 518.19 164.84C516.28 161.5 514.31 158.19 512.27 154.92C508.16 148.32 503.78 141.88 499.17 135.62C496.52 132.03 493.8 128.5 491 125.02C490.4 124.28 489.15 124.41 488.52 125.02C487.79 125.75 487.94 126.77 488.53 127.5Z" fill="#7116A0"/>
<path d="M517.26 127.27C509.61 145.54 501.97 163.81 494.32 182.08C493.95 182.96 494.72 184 495.54 184.23C496.55 184.52 497.33 183.88 497.69 183.01C505.34 164.74 512.98 146.47 520.63 128.2C521 127.32 520.23 126.28 519.41 126.05C518.4 125.76 517.62 126.41 517.26 127.27Z" fill="#7116A0"/>
<path d="M541.49 181.28C541.33 167.57 541.15 153.54 545.25 140.31C545.9 138.23 546.7 134.94 548.95 133.99C551.63 132.86 553.99 136.32 555.03 138.25C557.92 143.59 557.76 150.05 557.65 155.94C557.51 164.15 557 172.35 556.16 180.52C555.93 182.76 559.43 182.74 559.66 180.52C560.49 172.43 560.99 164.32 561.14 156.19C561.26 149.51 561.29 142.32 557.95 136.31C556.48 133.66 554.17 130.98 551.04 130.41C547.8 129.83 545.17 131.9 543.71 134.62C542.12 137.57 541.3 141.04 540.54 144.28C539.67 148.03 539.08 151.85 538.68 155.68C537.79 164.18 537.88 172.74 537.98 181.27C538.02 183.53 541.52 183.54 541.49 181.28Z" fill="#7116A0"/>
<path d="M539.94 159.76C545.62 162.56 551.66 164.36 557.94 165.19C558.88 165.31 559.69 164.3 559.69 163.44C559.69 162.39 558.88 161.81 557.94 161.69C552.32 160.95 546.8 159.24 541.71 156.74C540.86 156.32 539.82 156.51 539.32 157.37C538.86 158.14 539.09 159.34 539.94 159.76Z" fill="#7116A0"/>
<path d="M574.65 133.41C584.74 143.88 593.32 155.74 600.1 168.6C602.02 172.25 603.79 175.97 605.42 179.75C605.8 180.63 607.07 180.8 607.81 180.38C608.71 179.87 608.81 178.85 608.44 177.99C602.6 164.42 594.85 151.74 585.48 140.32C582.82 137.08 580.03 133.95 577.12 130.93C575.56 129.3 573.08 131.78 574.65 133.41Z" fill="#7116A0"/>
<path d="M598.95 132.27C592.05 150.32 584.27 168.03 575.65 185.32C574.65 187.33 577.67 189.11 578.67 187.09C587.42 169.52 595.32 151.53 602.32 133.2C603.13 131.09 599.75 130.18 598.95 132.27Z" fill="#7116A0"/>
<path d="M628.54 183.46C628.36 176.33 626.14 169.56 624.55 162.67C623.13 156.5 622.06 149.39 624.62 143.35C625.55 141.15 627.26 138.76 629.65 138.02C632.26 137.21 634.57 138.97 636.02 141C639.75 146.22 640.11 153.25 640.79 159.4C641.7 167.67 642.61 175.94 643.52 184.21C643.62 185.16 644.25 185.95 645.27 185.96C646.14 185.97 647.12 185.15 647.02 184.21C646.12 176.02 645.22 167.83 644.32 159.65C643.56 152.76 643.16 144.91 638.94 139.08C637.17 136.63 634.7 134.59 631.58 134.34C628.48 134.09 625.64 135.82 623.73 138.16C619.21 143.68 619.16 151.54 620.15 158.26C621.4 166.74 624.83 174.83 625.05 183.47C625.1 185.71 628.6 185.72 628.54 183.46Z" fill="#7116A0"/>
<path d="M623.07 168.21C626.91 168.84 630.78 169.29 634.66 169.52C636.51 169.63 638.43 169.79 640.28 169.68C642.06 169.58 643.75 168.39 643.29 166.42C642.77 164.23 639.4 165.16 639.91 167.35C639.9 167.31 639.88 167.28 639.87 167.24C639.95 166.95 640.03 166.65 640.11 166.36C640.36 165.86 640.48 166.25 640.15 166.2C639.95 166.17 639.55 166.18 639.28 166.18C638.57 166.17 637.86 166.15 637.15 166.13C635.67 166.08 634.19 166 632.71 165.89C629.79 165.67 626.89 165.32 624 164.84C623.07 164.69 622.12 165.08 621.85 166.06C621.62 166.9 622.14 168.06 623.07 168.21Z" fill="#7116A0"/>
<path d="M655.27 152.01C669.62 157.36 684.18 162.67 699.59 163.78C701.84 163.94 701.83 160.44 699.59 160.28C684.53 159.19 670.23 153.86 656.2 148.63C654.09 147.85 653.17 151.23 655.27 152.01Z" fill="#7116A0"/>
<path d="M660.77 132.78C667.22 150.46 674.64 167.78 682.98 184.66C683.52 185.76 684.92 185.67 685.73 185.01C687.18 183.83 687.01 181.88 685.95 180.53C685.36 179.78 684.09 179.92 683.47 180.53C682.73 181.26 682.89 182.27 683.47 183.01C683.56 182.54 683.48 182.38 683.25 182.53C684.17 182.65 685.08 182.77 686 182.88C677.79 166.28 670.5 149.24 664.15 131.84C663.38 129.75 660 130.66 660.77 132.78Z" fill="#7116A0"/>
<path d="M701.22 132.32C695.12 130.67 689.02 129.02 682.92 127.37C677.74 125.97 671.95 124.83 667.69 121.36C665.92 119.91 664.36 118.05 663.58 115.87C662.76 113.59 662.56 110.86 665.04 109.66C670.09 107.2 676.45 108.82 681.55 110.26C688.16 112.13 694.71 114.27 701.19 116.53C703.32 117.27 704.24 113.89 702.12 113.15C695.63 110.88 689.09 108.75 682.48 106.88C676.52 105.19 669.72 103.79 663.8 106.39C657.64 109.09 659.14 116.63 662.51 121.01C666.18 125.78 671.88 127.95 677.49 129.52C685.07 131.65 692.69 133.64 700.29 135.69C702.46 136.28 703.39 132.91 701.22 132.32Z" fill="#7116A0"/>
<path d="M683.83 128.13C685.15 122.27 685.93 116.29 686.16 110.29C686.25 108.04 682.75 108.04 682.66 110.29C682.44 115.99 681.71 121.64 680.46 127.2C679.96 129.39 683.34 130.33 683.83 128.13Z" fill="#7116A0"/>
<path d="M655.64 91.28C660.11 92.19 663.9 89.84 668.09 88.74C672.44 87.6 677.01 87.52 681.45 86.91C690.39 85.67 699.07 83.14 707.33 79.52C709.39 78.62 707.61 75.6 705.56 76.5C697.74 79.93 689.43 82.28 680.98 83.48C676.83 84.07 672.6 84.19 668.49 85.06C666.41 85.5 664.47 86.26 662.48 86.98C660.59 87.66 658.6 88.33 656.58 87.92C654.37 87.46 653.43 90.83 655.64 91.28Z" fill="#7116A0"/>
<path d="M661.21 70.37C675.27 80.5 688 92.43 700.98 103.87C702.66 105.35 705.15 102.89 703.46 101.39C690.25 89.75 677.29 77.6501 662.98 67.3401C661.15 66.0301 659.4 69.06 661.21 70.37Z" fill="#7116A0"/>
<path d="M702.62 61.54C690.57 59.8 677.99 58.02 667.25 51.9C664.86 50.54 661.76 48.92 660.28 46.5C659 44.4 659.86 41.84 661.42 40.14C665.73 35.42 673.38 37.48 678.81 38.55C686.69 40.1 694.48 42.07 702.16 44.42C704.32 45.08 705.24 41.7 703.09 41.04C695.49 38.71 687.78 36.76 679.98 35.21C673.53 33.93 665.54 32.02 659.97 36.69C657.74 38.56 656.09 41.45 656.15 44.42C656.22 47.74 658.43 50.11 660.96 51.99C666.31 55.96 672.58 58.61 678.94 60.48C686.37 62.67 694.05 63.8 701.7 64.91C702.64 65.05 703.57 64.68 703.85 63.69C704.08 62.88 703.55 61.68 702.62 61.54Z" fill="#7116A0"/>
<path d="M683.8 57.75C684.02 51.49 684.59 45.25 685.57 39.06C685.72 38.13 685.33 37.18 684.35 36.91C683.52 36.68 682.34 37.19 682.2 38.13C681.18 44.63 680.53 51.18 680.31 57.75C680.22 60 683.72 60 683.8 57.75Z" fill="#7116A0"/>
</svg>
