<svg width="166" height="87" viewBox="0 0 166 87" fill="none" xmlns="http://www.w3.org/2000/svg">
<path d="M0.700195 0.48999H165.49C164.84 7.29999 159.56 56.17 126.72 76.76C110.61 86.85 93.1302 86.85 83.1002 86.85C73.0702 86.85 55.5802 86.85 39.4802 76.76C6.63023 56.17 1.3502 7.29999 0.700195 0.48999Z" fill="#FF5408"/>
<path d="M17.4404 10.18C59.4504 10.47 101.45 10.77 143.46 11.06C143.46 12.23 143.46 13.41 143.46 14.58C143.46 14.59 143.46 16.34 143.46 16.34C143.46 18.3 142.77 29.82 141.7 34.85C140.2 41.88 133.4 57.46 117.85 66.99C105.46 74.58 93.5505 74.51 83.0905 74.51C73.1705 74.51 61.0104 74.45 48.3304 66.99C29.0104 55.63 21.8504 34.9 20.9604 28.68C20.8504 27.91 20.3204 23.77 19.2004 18.11C18.5404 14.74 17.8904 11.99 17.4404 10.18Z" fill="black" stroke="#FF5408" stroke-width="1.0406" stroke-miterlimit="10"/>
<path d="M39.9103 12.33H22.0103V27.37H39.9103V12.33Z" fill="white" stroke="black" stroke-width="0.2602" stroke-miterlimit="10"/>
<path d="M60.1803 12.33H42.2803V27.37H60.1803V12.33Z" fill="white" stroke="black" stroke-width="0.2602" stroke-miterlimit="10"/>
<path d="M80.4502 12.33H62.5503V27.37H80.4502V12.33Z" fill="white" stroke="black" stroke-width="0.2602" stroke-miterlimit="10"/>
<path d="M100.72 12.33H82.8203V27.37H100.72V12.33Z" fill="white" stroke="black" stroke-width="0.2602" stroke-miterlimit="10"/>
<path d="M120.99 12.33H103.09V27.37H120.99V12.33Z" fill="white" stroke="black" stroke-width="0.2602" stroke-miterlimit="10"/>
<path d="M141.26 12.33H123.36V27.37H141.26V12.33Z" fill="white" stroke="black" stroke-width="0.2602" stroke-miterlimit="10"/>
<path d="M150.51 11.06H142.58V29.57H150.51V11.06Z" stroke="#FF5408" stroke-width="1.0406" stroke-miterlimit="10"/>
<path d="M20.97 10.18H13.04V28.69H20.97V10.18Z" fill="#FF5408"/>
<path d="M13.04 19.44V5.78003H38.15" stroke="black" stroke-width="0.5203" stroke-miterlimit="10"/>
<path d="M71.6401 80.24H91.0302" stroke="black" stroke-width="0.5203" stroke-miterlimit="10"/>
</svg>
