<svg width="166" height="88" viewBox="0 0 166 88" fill="none" xmlns="http://www.w3.org/2000/svg">
<path d="M0.22998 0.859985H165.02C164.37 7.66999 159.09 56.54 126.25 77.13C110.14 87.22 92.66 87.22 82.63 87.22C72.6 87.22 55.11 87.22 39.01 77.13C6.16001 56.54 0.87998 7.65999 0.22998 0.859985Z" fill="#FF5408"/>
<path d="M16.98 10.55C58.99 10.84 100.99 11.1401 143 11.4301C143 12.6001 143 13.78 143 14.95C143 14.96 143 16.71 143 16.71C143 18.67 142.31 30.19 141.24 35.22C139.74 42.25 132.94 57.83 117.39 67.36C105 74.95 93.09 74.88 82.63 74.88C72.71 74.88 60.55 74.82 47.87 67.36C28.55 56 21.39 35.27 20.5 29.05C20.39 28.28 19.86 24.14 18.74 18.48C18.07 15.11 17.42 12.36 16.98 10.55Z" fill="black" stroke="#FF5408" stroke-width="1.0406" stroke-miterlimit="10"/>
<path d="M39.4497 12.7H21.5498V27.74H39.4497V12.7Z" fill="white" stroke="black" stroke-width="0.2602" stroke-miterlimit="10"/>
<path d="M59.7198 12.7H41.8198V27.74H59.7198V12.7Z" fill="white" stroke="black" stroke-width="0.2602" stroke-miterlimit="10"/>
<path d="M79.9801 12.7H62.0801V27.74H79.9801V12.7Z" fill="white" stroke="black" stroke-width="0.2602" stroke-miterlimit="10"/>
<path d="M100.25 12.7H82.3501V27.74H100.25V12.7Z" fill="white" stroke="black" stroke-width="0.2602" stroke-miterlimit="10"/>
<path d="M120.52 12.7H102.62V27.74H120.52V12.7Z" fill="white" stroke="black" stroke-width="0.2602" stroke-miterlimit="10"/>
<path d="M140.79 12.7H122.89V27.74H140.79V12.7Z" fill="white" stroke="black" stroke-width="0.2602" stroke-miterlimit="10"/>
<path d="M150.04 11.4301H142.11V29.9399H150.04V11.4301Z" stroke="#FF5408" stroke-width="1.0406" stroke-miterlimit="10"/>
<path d="M20.4999 10.55H12.5698V29.0601H20.4999V10.55Z" fill="#FF5408"/>
<path d="M12.5698 19.8V6.14001H37.6799" stroke="black" stroke-width="0.5203" stroke-miterlimit="10"/>
<path d="M71.1699 80.61H90.5599" stroke="black" stroke-width="0.5203" stroke-miterlimit="10"/>
</svg>
