<svg width="97" height="102" viewBox="0 0 97 102" fill="none" xmlns="http://www.w3.org/2000/svg">
<path d="M49.7099 5.74992C23.8199 5.15992 2.87984 27.0799 2.55984 52.2499C2.24984 76.7199 21.4999 98.55 46.2699 99.81C72.2199 101.13 94.2999 79.37 94.7399 53.58C95.1699 28.65 75.2899 6.32992 49.7099 5.74992Z" stroke="#FF5408" stroke-width="3.5008" stroke-miterlimit="10"/>
<path d="M49.7097 5.75C47.1897 7.69 25.4597 25.09 25.6997 54.7C25.9097 81.09 43.4097 97.2501 46.2697 99.8101" stroke="#FF5408" stroke-width="3.5008" stroke-miterlimit="10"/>
<path d="M48.6499 5.78003C51.1699 7.72003 72.8999 25.12 72.6599 54.73C72.4499 81.12 54.9499 97.2801 52.0899 99.8401" stroke="#FF5408" stroke-width="3.5008" stroke-miterlimit="10"/>
<path d="M49.7099 5.75L48.6499 99.8101" stroke="#FF5408" stroke-width="3.5008" stroke-miterlimit="10"/>
<path d="M8.20996 30.6001H89.13" stroke="#FF5408" stroke-width="3.5008" stroke-miterlimit="10"/>
<path d="M2.58008 53.74H94.7601" stroke="#FF5408" stroke-width="3.5008" stroke-miterlimit="10"/>
<path d="M9.22998 76.3501H88.12" stroke="#FF5408" stroke-width="3.5008" stroke-miterlimit="10"/>
<path d="M72.3199 50.8702C69.7999 46.8802 66.4199 41.31 62.7199 34.47C55.7799 21.62 55.5799 18.8502 55.8899 16.5902C56.8599 9.71016 63.5299 1.48004 72.3099 1.71004C80.4399 1.92004 86.6499 9.28004 87.7199 15.71C88.3299 19.38 85.2499 25.52 79.0599 37.65C77.6399 40.45 73.9599 47.6402 72.3199 50.8702Z" fill="#FF5408" stroke="#FF5408" stroke-width="2.3339" stroke-miterlimit="10" stroke-linecap="round" stroke-linejoin="round"/>
<path d="M71.9899 9.96995C67.4999 9.86995 63.8699 13.67 63.8199 18.03C63.7699 22.27 67.0999 26.06 71.3999 26.27C75.8999 26.5 79.7199 22.73 79.7999 18.26C79.8699 13.94 76.4199 10.0799 71.9899 9.96995Z" stroke="#FF5408" stroke-width="2.3339" stroke-miterlimit="10"/>
</svg>
