<svg width="724" height="388" viewBox="0 0 724 388" fill="none" xmlns="http://www.w3.org/2000/svg">
<path d="M276.97 72.97H15.61C7.26999 72.97 0.5 66.2101 0.5 57.8601V16.9299C0.5 8.58993 7.25998 1.82007 15.61 1.82007H276.97C285.31 1.82007 292.08 8.57993 292.08 16.9299V57.8601C292.08 66.2101 285.31 72.97 276.97 72.97Z" fill="#7116A0"/>
<path d="M498.56 281.73H237.2C228.86 281.73 222.09 274.97 222.09 266.62V225.69C222.09 217.35 228.85 210.58 237.2 210.58H498.56C506.9 210.58 513.67 217.34 513.67 225.69V266.62C513.67 274.97 506.9 281.73 498.56 281.73Z" fill="#7116A0"/>
<path d="M672.34 387.86H493.78C485.44 387.86 478.67 381.1 478.67 372.75V331.82C478.67 323.48 485.43 316.71 493.78 316.71H672.33C680.67 316.71 687.44 323.47 687.44 331.82V372.75C687.44 381.1 680.68 387.86 672.34 387.86Z" fill="#7116A0"/>
<path d="M222.1 266.63V15.77C222.1 7.43002 228.86 0.659912 237.21 0.659912H278.14C286.48 0.659912 293.25 7.42002 293.25 15.77V266.63C293.25 274.97 286.49 281.74 278.14 281.74H237.2C228.86 281.73 222.1 274.97 222.1 266.63Z" fill="#7116A0"/>
<path d="M478.68 372.76V225.7C478.68 217.36 485.44 210.59 493.79 210.59H534.72C543.06 210.59 549.83 217.35 549.83 225.7V372.76C549.83 381.1 543.07 387.87 534.72 387.87H493.79C485.44 387.86 478.68 381.1 478.68 372.76Z" fill="#7116A0"/>
<path d="M652.45 372.76V161.55C652.45 153.21 659.21 146.44 667.56 146.44H708.49C716.83 146.44 723.6 153.2 723.6 161.55V372.76C723.6 381.1 716.84 387.87 708.49 387.87H667.56C659.22 387.86 652.45 381.1 652.45 372.76Z" fill="#7116A0"/>
<path d="M13.7197 22.3999C20.1597 34.5299 27.8997 45.9299 36.7597 56.4199C38.2097 58.1399 40.6797 55.6599 39.2297 53.9499C30.5597 43.6899 23.0397 32.4999 16.7397 20.6399C15.6897 18.6399 12.6597 20.4099 13.7197 22.3999Z" fill="#FF5408"/>
<path d="M33.1599 19.3202C32.7799 22.8002 31.0099 25.94 29.3099 28.93C27.4299 32.24 25.4899 35.5201 23.5299 38.7801C19.5599 45.3701 15.4599 51.89 11.3499 58.4C10.1499 60.31 13.1699 62.07 14.3699 60.17C18.6499 53.38 22.9199 46.6001 27.0499 39.7201C29.0699 36.3601 31.0699 32.9802 32.9699 29.5602C34.7599 26.3402 36.2399 23.0302 36.6499 19.3302C36.7499 18.3802 35.7699 17.5902 34.8999 17.5802C33.8799 17.5602 33.2699 18.3902 33.1599 19.3202Z" fill="#FF5408"/>
<path d="M55.1298 58.3601C54.7698 51.7501 54.7498 45.12 55.0998 38.51C55.3798 33.01 55.5098 27.0499 57.6798 21.8999C58.6098 19.6799 60.0998 17.2999 62.3098 16.1599C63.1798 15.7099 64.2299 15.4499 65.1399 15.9499C66.2499 16.5599 66.9498 17.98 67.5498 19.04C70.3498 23.97 71.4398 29.7001 71.4998 35.3201C71.5798 42.5601 70.0298 49.67 68.4998 56.7C68.0198 58.9 71.3998 59.8299 71.8698 57.6299C74.7098 44.5599 77.5598 30.0399 70.7698 17.6399C69.3498 15.0399 67.4499 12.2299 64.1699 12.1699C61.3199 12.1199 58.7798 13.9999 57.0798 16.1299C53.2698 20.9099 52.4498 27.1701 51.9698 33.0701C51.2798 41.4801 51.1899 49.9401 51.6399 58.3701C51.7599 60.6001 55.2598 60.6101 55.1298 58.3601Z" fill="#FF5408"/>
<path d="M54.8701 41.3799C60.6601 42.0299 66.4601 42.6701 72.2501 43.3201C73.1901 43.4201 74.0001 42.4401 74.0001 41.5701C74.0001 40.5401 73.1901 39.9301 72.2501 39.8201C66.4601 39.1701 60.6601 38.5299 54.8701 37.8799C53.9301 37.7799 53.1201 38.7599 53.1201 39.6299C53.1201 40.6599 53.9201 41.2699 54.8701 41.3799Z" fill="#FF5408"/>
<path d="M88.5098 21.3702C93.0698 27.5402 97.1298 34.08 100.6 40.92C102.29 44.25 103.84 47.6502 105.26 51.1102C106.64 54.5002 108.03 57.81 110.39 60.65C111.32 61.78 112.87 60.96 113.31 59.88C113.77 58.75 113.4 57.45 112.51 56.65C110.85 55.14 108.37 57.6002 110.04 59.1202C110.08 58.8502 110.05 58.8 109.94 58.95C110.91 58.69 111.89 58.44 112.86 58.18C110.64 55.5 109.46 52.1601 108.14 48.9901C106.7 45.5201 105.13 42.1001 103.41 38.7501C99.9798 32.0501 95.9898 25.6502 91.5198 19.6002C90.9498 18.8302 90.0098 18.47 89.1298 18.97C88.3798 19.41 87.9498 20.6202 88.5098 21.3702Z" fill="#FF5408"/>
<path d="M108.21 18.8702C107.02 25.7602 103.15 31.6201 99.5298 37.4501C95.5298 43.8801 91.8798 50.5202 88.5798 57.3402C87.5998 59.3602 90.6198 61.1302 91.5998 59.1102C94.9598 52.1602 98.6998 45.4102 102.78 38.8602C106.48 32.9202 110.37 26.8302 111.59 19.8102C111.97 17.6002 108.59 16.6602 108.21 18.8702Z" fill="#FF5408"/>
<path d="M131.51 58.43C129.01 47.94 128.57 36.2001 135.01 26.9801C136.28 25.1701 137.93 23.2201 139.81 22.0201C141.62 20.8601 143.6 23.55 144.39 24.95C146.76 29.13 146.95 34.6802 147.29 39.3402C147.53 42.7302 147.61 46.1301 147.53 49.5301C147.49 51.1501 147.41 52.77 147.29 54.38C147.23 55.19 147.16 55.9901 147.09 56.8001C147.05 57.2001 147.01 57.6101 146.97 58.0101C146.94 58.2501 146.92 58.4901 146.89 58.7301C146.71 59.3901 147.01 59.3101 147.81 58.5001C148.22 58.6701 148.63 58.8401 149.05 59.0101C149.13 59.3701 149.21 59.7302 149.28 60.1002C148.87 60.5102 148.47 60.9102 148.06 61.3202C148.11 61.3002 148.16 61.2901 148.22 61.2701C150.37 60.6201 149.45 57.24 147.29 57.9C145.75 58.37 145.32 60.2102 146.43 61.3702C147.66 62.6602 149.58 61.8202 150.12 60.3202C150.66 58.8402 150.6 56.9002 150.73 55.3502C150.89 53.4102 150.99 51.4701 151.04 49.5301C151.14 45.6501 151.02 41.76 150.69 37.89C150.41 34.62 150.09 31.2902 149.3 28.0902C148.62 25.3302 147.46 22.5201 145.39 20.5001C144.41 19.5501 143.2 18.6802 141.87 18.3202C140.22 17.8802 138.76 18.44 137.46 19.43C132.47 23.21 129.17 28.96 127.56 34.94C125.4 42.94 126.26 51.3902 128.15 59.3502C128.66 61.5502 132.03 60.62 131.51 58.43Z" fill="#FF5408"/>
<path d="M128.64 45.0901C134.79 45.5601 140.94 46.03 147.1 46.49C148.04 46.56 148.85 45.63 148.85 44.74C148.85 43.73 148.05 43.06 147.1 42.99C140.95 42.52 134.8 42.0501 128.64 41.5901C127.7 41.5201 126.89 42.4501 126.89 43.3401C126.89 44.3401 127.7 45.0101 128.64 45.0901Z" fill="#FF5408"/>
<path d="M163.23 24.87C171.11 36.34 177.89 48.5399 183.48 61.2899C184.24 63.0299 186.62 61.9398 186.74 60.4098C186.83 59.3498 186.43 58.4798 185.75 57.6898C184.28 55.9798 181.82 58.4598 183.28 60.1598C183.27 59.9698 183.26 60.0498 183.25 60.3998C184.34 60.1098 185.42 59.8099 186.51 59.5199C180.93 46.7699 174.15 34.57 166.26 23.1C164.99 21.26 161.95 23.01 163.23 24.87Z" fill="#FF5408"/>
<path d="M179.78 24.35C174.73 36.75 169.67 49.16 164.62 61.56C164.26 62.44 165.01 63.4699 165.84 63.7099C166.84 63.9999 167.64 63.3599 167.99 62.4899C173.04 50.0899 178.1 37.68 183.15 25.28C183.51 24.4 182.76 23.3698 181.93 23.1298C180.93 22.8398 180.13 23.48 179.78 24.35Z" fill="#FF5408"/>
<path d="M202.08 58.8999C201.71 49.4799 201.26 39.2401 205.57 30.5601C206.45 28.7801 207.61 26.3199 209.49 25.3999C211.34 24.4999 213.46 25.69 214.6 27.19C215.97 29.01 216.32 31.4699 216.53 33.6699C216.79 36.4599 216.94 39.2601 217.01 42.0601C217.19 48.4901 216.91 54.9301 216.21 61.3301C216.11 62.2801 217.09 63.0701 217.96 63.0801C218.99 63.0901 219.61 62.2701 219.71 61.3301C220.42 54.8501 220.69 48.3301 220.5 41.8201C220.41 38.7601 220.28 35.6799 219.91 32.6499C219.59 30.0099 219.03 27.3199 217.4 25.1399C215.89 23.1299 213.57 21.6801 211.02 21.5801C208.28 21.4701 206.12 23.2301 204.6 25.3301C201.5 29.5901 199.88 34.9501 199.11 40.1001C198.18 46.3301 198.33 52.6199 198.58 58.8999C198.67 61.1499 202.17 61.1599 202.08 58.8999Z" fill="#FF5408"/>
<path d="M202.96 43.7501C205.65 44.1801 208.34 44.6101 211.03 45.0401C213.32 45.4101 215.92 45.5302 218.02 46.6102C220.02 47.6402 221.79 44.6202 219.79 43.5902C217.45 42.3902 214.83 42.1301 212.27 41.7201C209.48 41.2701 206.69 40.83 203.9 40.38C202.97 40.23 202.02 40.6202 201.75 41.6002C201.51 42.4302 202.02 43.5901 202.96 43.7501Z" fill="#FF5408"/>
<path d="M246.24 23.1102C246.45 38.0002 244.5 52.83 240.45 67.15C239.84 69.32 243.21 70.2502 243.82 68.0802C247.95 53.4702 249.95 38.2902 249.74 23.1102C249.71 20.8602 246.21 20.8502 246.24 23.1102Z" fill="#FF5408"/>
<path d="M230.09 52.15C243.64 50.86 257.33 51.2201 270.78 53.3101C271.72 53.4601 272.65 53.0702 272.93 52.0902C273.17 51.2602 272.64 50.08 271.71 49.94C257.94 47.8 243.97 47.34 230.09 48.65C227.87 48.86 227.85 52.36 230.09 52.15Z" fill="#FF5408"/>
<path d="M236.42 95.7501C243.42 92.1201 253.5 87.82 260.47 93.99C263.55 96.72 264.41 100.97 263.01 104.8C261.58 108.69 257.83 111.33 253.87 112.16C251.07 112.75 248.1 112.46 245.31 111.95C243.93 111.7 242.56 111.38 241.2 111.04C240.52 110.87 239.84 110.69 239.16 110.51C238.58 110.35 237.74 110.27 237.25 109.93C237.52 110.28 237.79 110.63 238.05 110.98C238.02 110.9 237.98 110.82 237.95 110.74C237.89 111.19 237.83 111.64 237.77 112.09C237.79 112.05 237.81 112 237.83 111.96C237.48 112.23 237.13 112.5 236.78 112.76C236.46 112.71 236.14 112.66 235.82 112.61C235.55 111.95 235.28 111.29 235.02 110.63C235.01 110.67 235 110.71 235 110.75C234.56 112.95 237.93 113.89 238.37 111.68C238.38 111.64 238.39 111.6 238.39 111.56C238.56 110.74 238.26 110.06 237.59 109.58C236.65 108.92 235.26 109.32 234.75 110.31C233.89 111.99 235.46 113.11 236.87 113.52C240.02 114.42 243.23 115.22 246.48 115.67C252.47 116.49 258.68 115.52 263.06 111.04C267.02 107 268.36 100.76 265.96 95.5601C263.76 90.8101 258.72 88.1901 253.71 87.5801C246.96 86.7501 240.5 89.7301 234.66 92.7501C232.66 93.7701 234.42 96.7901 236.42 95.7501Z" fill="#FF5408"/>
<path d="M252.26 89.8201C251.39 98.1401 250.52 106.46 249.65 114.78C249.42 117.02 252.92 117 253.15 114.78C254.02 106.46 254.89 98.1401 255.76 89.8201C255.99 87.5901 252.49 87.6001 252.26 89.8201Z" fill="#FF5408"/>
<path d="M238.3 131.98C243.96 136.35 249.16 141.35 253.8 146.79C256.12 149.51 258.29 152.36 260.31 155.31C261.12 156.5 261.9 158.42 263.43 158.81C265.2 159.26 266.68 157.22 265.71 155.68C264.51 153.78 261.48 155.53 262.69 157.45C262.72 157.5 262.76 157.55 262.79 157.61C262.73 157.16 262.67 156.71 262.61 156.26C264.51 156.49 265.19 156.24 264.64 155.51C264.52 155.33 264.41 155.15 264.29 154.97C264.09 154.67 263.89 154.37 263.69 154.08C263.25 153.43 262.8 152.78 262.35 152.13C261.48 150.9 260.58 149.69 259.66 148.49C257.78 146.05 255.8 143.68 253.71 141.41C249.54 136.86 244.95 132.72 240.07 128.95C239.32 128.37 238.12 128.84 237.68 129.58C237.14 130.48 237.56 131.4 238.3 131.98Z" fill="#FF5408"/>
<path d="M267.85 131.39C263.42 135.77 258.01 138.88 252.44 141.58C246.3 144.56 240.01 147.26 233.78 150.06C231.73 150.98 233.51 154 235.55 153.08C241.91 150.22 248.33 147.48 254.59 144.41C260.29 141.63 265.79 138.34 270.32 133.86C271.93 132.28 269.46 129.8 267.85 131.39Z" fill="#FF5408"/>
<path d="M236.22 178.24C241.83 176.81 247.6 176.26 253.38 176.6C256.19 176.77 258.97 177.15 261.71 177.76C264.26 178.32 266.86 178.99 269.13 180.35C271.1 181.53 272.85 183.39 273.3 185.72C273.74 188 272.6 190.19 271.22 191.94C269.73 193.81 267.89 195.55 265.85 196.81C263.54 198.23 260.95 198.77 258.27 198.86C255.08 198.97 251.87 198.7 248.7 198.48C245.29 198.24 241.89 197.94 238.5 197.59C236.26 197.36 236.28 200.86 238.5 201.09C241.9 201.45 245.3 201.75 248.7 201.98C251.95 202.21 255.24 202.5 258.5 202.36C261.57 202.23 264.6 201.6 267.28 200.04C269.73 198.62 271.93 196.61 273.71 194.42C275.45 192.28 276.83 189.79 276.91 186.97C276.99 184.26 275.72 181.68 273.91 179.72C269.81 175.29 262.82 174.17 257.13 173.46C249.84 172.55 242.42 173.07 235.31 174.88C233.11 175.42 234.03 178.8 236.22 178.24Z" fill="#FF5408"/>
<path d="M249.17 176.3C249.65 184.05 250.13 191.79 250.61 199.54C250.75 201.78 254.25 201.79 254.11 199.54C253.63 191.79 253.15 184.05 252.67 176.3C252.53 174.06 249.03 174.04 249.17 176.3Z" fill="#FF5408"/>
<path d="M252.62 224.19C256.72 237.6 259.87 251.29 262.06 265.15C262.21 266.09 263.37 266.59 264.21 266.37C265.21 266.11 265.58 265.15 265.43 264.22C263.25 250.37 260.09 236.68 255.99 223.26C255.34 221.11 251.96 222.03 252.62 224.19Z" fill="#FF5408"/>
<path d="M269.27 229.56C260.72 241.15 251.5 252.24 241.68 262.79C240.15 264.44 242.62 266.92 244.15 265.26C254.17 254.49 263.55 243.16 272.28 231.32C273.63 229.51 270.59 227.77 269.27 229.56Z" fill="#FF5408"/>
<path d="M292.16 264.8C291.3 259.05 290.41 253.27 290.25 247.44C290.12 242.69 290.53 237.63 293.1 233.5C294.34 231.51 296.21 229.59 298.59 229.08C300.84 228.6 302.98 229.82 304.38 231.52C306.09 233.59 306.86 236.33 307.5 238.88C308.21 241.68 308.66 244.54 308.91 247.41C309.49 253.99 309.16 260.61 308.83 267.19C309.98 267.03 311.12 266.88 312.27 266.72C312.05 266.19 311.83 265.66 311.62 265.14C311.26 264.26 310.46 263.66 309.47 263.92C308.64 264.14 307.89 265.2 308.25 266.07C308.47 266.6 308.69 267.13 308.9 267.65C309.63 269.42 312.23 269.27 312.34 267.18C312.67 260.59 313 253.98 312.42 247.4C312.13 244.14 311.64 240.88 310.82 237.71C310.06 234.74 309.05 231.74 307.1 229.33C305.37 227.18 302.84 225.61 300.03 225.46C297.22 225.31 294.54 226.72 292.55 228.62C288.42 232.57 287.02 238.52 286.77 244.03C286.44 251.27 287.71 258.58 288.78 265.71C288.92 266.65 290.1 267.15 290.93 266.93C291.95 266.69 292.3 265.73 292.16 264.8Z" fill="#FF5408"/>
<path d="M290.34 252.93C296.91 253.2 303.48 253.46 310.05 253.73C310.91 253.76 311.67 253.04 311.77 252.21C311.88 251.29 311.35 250.62 310.52 250.29C310.26 250.19 310 250.09 309.74 249.98C308.86 249.64 307.82 250.36 307.59 251.2C307.32 252.19 307.93 253.01 308.81 253.35C309.07 253.45 309.33 253.55 309.59 253.66C309.75 252.51 309.9 251.37 310.06 250.22C303.49 249.95 296.92 249.69 290.35 249.42C288.09 249.34 288.1 252.84 290.34 252.93Z" fill="#FF5408"/>
<path d="M326.24 227.54C328.88 234.85 334.14 240.63 337.85 247.36C341.35 253.71 342.97 261.11 348.19 266.42C349.39 267.64 351.65 266.4 351.11 264.72C350.98 264.32 350.86 263.92 350.73 263.52C350.05 261.38 346.67 262.3 347.36 264.45C347.49 264.85 347.61 265.25 347.74 265.65C348.71 265.08 349.69 264.52 350.66 263.95C345.71 258.91 344.21 251.64 340.87 245.6C337.32 239.17 332.13 233.6 329.61 226.62C328.86 224.51 325.48 225.41 326.24 227.54Z" fill="#FF5408"/>
<path d="M345.71 226.3C345.07 229.84 342.66 232.71 340.68 235.61C338.48 238.84 336.35 242.11 334.28 245.42C330.15 252.05 326.29 258.84 322.69 265.77C321.65 267.77 324.67 269.54 325.71 267.54C329.38 260.47 333.32 253.55 337.55 246.79C339.62 243.48 341.76 240.21 343.96 236.99C346.03 233.95 348.41 230.94 349.08 227.23C349.48 225.03 346.11 224.08 345.71 226.3Z" fill="#FF5408"/>
<path d="M368.65 265.27C368.01 259.26 367.65 253.22 367.66 247.17C367.67 241.82 368 235.99 370.75 231.24C371.94 229.18 373.8 227.31 376.3 227.11C378.6 226.93 380.11 228.54 381.12 230.41C383.7 235.2 384.63 241.25 384.64 246.63C384.65 253.47 383.28 260.33 382.33 267.08C382.2 268.02 382.56 268.95 383.55 269.23C384.37 269.46 385.57 268.94 385.7 268.01C387.51 255.11 390.5 241.23 384.3 228.97C383.13 226.66 381.26 224.55 378.67 223.86C375.74 223.08 372.65 224.15 370.43 226.09C365.94 229.99 364.69 236.83 364.3 242.46C363.77 250.02 364.34 257.75 365.14 265.27C365.24 266.22 365.87 267.01 366.89 267.02C367.77 267.03 368.75 266.21 368.65 265.27Z" fill="#FF5408"/>
<path d="M367.03 252.57C372.88 253.31 378.77 253.59 384.66 253.42C384.08 252.84 383.49 252.25 382.91 251.67C383.13 251.42 383.35 251.17 383.57 250.93C382.68 251.25 382.08 252.12 382.35 253.08C382.59 253.94 383.61 254.62 384.5 254.3C385.64 253.89 386.48 252.94 386.4 251.67C386.34 250.75 385.64 249.89 384.65 249.92C378.76 250.1 372.87 249.81 367.02 249.07C366.08 248.95 365.27 249.96 365.27 250.82C365.28 251.87 366.09 252.45 367.03 252.57Z" fill="#FF5408"/>
<path d="M396.52 229.42C405.14 241.79 407.08 257.3 414.57 270.26C415.7 272.21 418.72 270.45 417.59 268.49C410.11 255.53 408.17 240.03 399.54 227.65C398.26 225.82 395.23 227.57 396.52 229.42Z" fill="#FF5408"/>
<path d="M399.67 267.05C409.1 255.71 417.75 243.74 425.55 231.22C426.74 229.3 423.72 227.54 422.53 229.45C414.89 241.72 406.43 253.46 397.2 264.57C395.77 266.29 398.23 268.78 399.67 267.05Z" fill="#FF5408"/>
<path d="M432.76 267.26C431.92 257.55 431.01 247.4 434.14 237.98C434.7 236.29 435.43 233.76 437.43 233.29C439.06 232.91 440.83 233.84 441.86 235.07C443.27 236.76 443.75 239.1 444.04 241.22C444.39 243.75 444.53 246.31 444.62 248.86C444.85 254.9 444.75 260.96 444.77 267.01C445.94 267.01 447.1 267.01 448.27 267.01C448.24 266.65 448.21 266.29 448.18 265.94C447.99 263.71 444.49 263.69 444.68 265.94C444.71 266.3 444.74 266.65 444.77 267.01C444.95 269.22 448.27 269.3 448.27 267.01C448.26 260.88 448.36 254.74 448.11 248.61C447.91 243.48 447.97 237.13 444.6 232.91C441.6 229.15 435.71 228.43 432.76 232.62C431.34 234.64 430.62 237.27 430.01 239.64C429.3 242.41 428.89 245.26 428.67 248.1C428.17 254.48 428.71 260.89 429.26 267.24C429.46 269.49 432.96 269.51 432.76 267.26Z" fill="#FF5408"/>
<path d="M430.82 255.03C435.8 255.18 440.78 255.34 445.76 255.49C448.01 255.56 448.01 252.06 445.76 251.99C440.78 251.84 435.8 251.68 430.82 251.53C428.57 251.47 428.57 254.97 430.82 255.03Z" fill="#FF5408"/>
<path d="M458.96 232.49C464.16 237.62 467.77 244.04 470.57 250.73C471.99 254.14 473.22 257.63 474.4 261.13C475 262.91 475.59 264.7 476.18 266.48C476.54 267.57 476.9 268.65 477.26 269.74C477.58 270.72 477.76 271.63 478.64 272.27C479.14 272.63 479.9 272.56 480.41 272.27C480.79 272.05 481.06 271.79 481.27 271.4C481.54 270.9 481.65 270.13 481.27 269.63C481.24 269.59 481.21 269.55 481.18 269.51C480.6 268.75 479.68 268.37 478.79 268.88C478.05 269.3 477.59 270.52 478.16 271.27C478.19 271.31 478.22 271.35 478.25 271.39C478.25 270.8 478.25 270.21 478.25 269.62C478.38 269.49 478.51 269.36 478.64 269.23C479.23 269.23 479.82 269.23 480.41 269.23C480.37 269.2 480.33 269.17 480.29 269.14C480.56 269.49 480.83 269.84 481.09 270.19C476.44 256.12 472.3 240.72 461.43 230C459.83 228.44 457.35 230.91 458.96 232.49Z" fill="#FF5408"/>
<path d="M476.44 233.18C470.82 244.88 464.59 256.29 457.77 267.34C456.58 269.26 459.61 271.02 460.79 269.11C467.61 258.06 473.84 246.65 479.46 234.95C480.44 232.92 477.42 231.15 476.44 233.18Z" fill="#FF5408"/>
<path d="M494.94 268.41C496.65 263 498.71 257.71 501.18 252.6C503.15 248.52 505.34 242.88 509.96 241.19C511.09 240.78 512.28 240.57 513.47 240.5C514.12 240.46 514.77 240.46 515.42 240.47C516.02 240.49 517.03 240.39 517.59 240.7C518.38 241.14 518.47 242.42 518.6 243.21C518.83 244.53 518.9 245.88 518.88 247.22C518.8 252.33 517.05 257.3 514.23 261.53C511.18 266.1 506.9 269.71 502.18 272.45C503.04 272.8 503.89 273.15 504.75 273.5C504.66 273.16 504.58 272.81 504.49 272.47C503.95 270.29 500.57 271.21 501.12 273.4C501.21 273.74 501.29 274.09 501.38 274.43C501.65 275.53 502.99 276.03 503.95 275.48C514.01 269.64 521.99 259.67 522.38 247.65C522.47 245.02 522.41 241.54 520.98 239.23C519.38 236.64 515.71 236.82 513.06 237.04C509.99 237.29 507.15 238.26 504.83 240.34C502.77 242.19 501.35 244.67 500.07 247.1C496.63 253.62 493.8 260.46 491.59 267.49C490.89 269.63 494.26 270.55 494.94 268.41Z" fill="#FF5408"/>
<path d="M500.43 251.46C504.67 255.82 508.59 260.47 512.14 265.4C512.69 266.17 513.66 266.54 514.53 266.03C515.29 265.59 515.71 264.41 515.16 263.64C511.43 258.47 507.35 253.56 502.9 248.99C501.34 247.36 498.86 249.84 500.43 251.46Z" fill="#FF5408"/>
<path d="M522.17 276.82C516.98 281.64 513.83 288.04 509.32 293.41C504.35 299.33 497.61 303.69 491.5 308.33C490.74 308.91 490.37 309.83 490.87 310.72C491.29 311.47 492.51 311.92 493.26 311.35C496.53 308.87 499.81 306.41 503.05 303.91C506.08 301.57 509.03 299.12 511.52 296.2C516.16 290.77 519.36 284.19 524.64 279.29C526.3 277.76 523.82 275.29 522.17 276.82Z" fill="#FF5408"/>
<path d="M489.94 291.71C492.86 291.59 495.41 292.88 497.77 294.49C500.43 296.31 502.89 298.45 505.4 300.47C510.82 304.82 516.24 309.17 521.66 313.51C521.66 312.69 521.66 311.86 521.66 311.04C521.3 311.44 520.95 311.83 520.59 312.23C519.09 313.9 521.55 316.38 523.06 314.7C523.42 314.3 523.77 313.91 524.13 313.51C524.71 312.87 524.9 311.65 524.13 311.04C518.32 306.38 512.51 301.72 506.71 297.07C501.88 293.2 496.6 287.95 489.93 288.21C487.7 288.3 487.69 291.8 489.94 291.71Z" fill="#FF5408"/>
<path d="M488.75 333.83C493.36 333.15 497.98 332.51 502.64 332.43C504.95 332.39 507.27 332.48 509.56 332.81C511.46 333.09 513.51 333.43 515.22 334.35C518.33 336.01 518.6 339.5 516.88 342.33C514.98 345.48 511.01 346.54 507.57 346.79C505.17 346.96 502.77 346.79 500.37 346.67C498.98 346.6 497.6 346.54 496.21 346.56C495.56 346.57 494.91 346.6 494.26 346.65C494.02 346.67 493.77 346.69 493.53 346.72C493.29 346.75 493.05 346.78 492.81 346.81C492.43 346.8 492.48 346.91 492.96 347.14C493.13 347.55 493.3 347.96 493.47 348.38C493.47 348.33 493.47 348.28 493.48 348.23C493.31 348.64 493.14 349.05 492.97 349.47C492.53 349.59 492.1 349.7 491.66 349.82C491.23 349.26 490.8 348.7 490.38 348.13C490.38 348.17 490.38 348.21 490.38 348.25C490.41 350.5 493.9 350.51 493.88 348.25C493.88 348.21 493.88 348.17 493.88 348.13C493.87 347.34 493.34 346.67 492.6 346.44C491.58 346.12 490.36 346.71 490.05 347.76C489.64 349.18 490.9 350.34 492.24 350.38C493.62 350.42 495.06 350.07 496.46 350.06C498.09 350.04 499.73 350.14 501.36 350.23C506.5 350.5 512.22 350.61 516.64 347.53C520.24 345.03 522.58 340.15 521 335.82C519.13 330.72 513.12 329.66 508.38 329.16C501.52 328.44 494.61 329.45 487.83 330.45C486.89 330.59 486.39 331.77 486.61 332.6C486.86 333.61 487.82 333.96 488.75 333.83Z" fill="#FF5408"/>
<path d="M503.44 333.59C503.65 333.41 503.87 333.22 504.08 333.04C503.08 332.63 502.09 332.22 501.09 331.8C501.15 337.46 501.15 343.12 501.08 348.79C501.05 351.04 504.55 351.04 504.58 348.79C504.65 343.13 504.66 337.47 504.59 331.8C504.57 330.21 502.73 329.59 501.6 330.56C501.39 330.74 501.17 330.93 500.96 331.11C500.25 331.73 500.33 332.95 500.96 333.58C501.68 334.3 502.73 334.21 503.44 333.59Z" fill="#FF5408"/>
<path d="M521.26 352.48C523.75 361.16 526.25 369.83 528.74 378.51C529.36 380.67 532.69 379.76 532.11 377.58C532.01 377.19 531.9 376.8 531.8 376.41C531.22 374.24 527.85 375.16 528.43 377.34C528.53 377.73 528.64 378.12 528.74 378.51C529.86 378.2 530.99 377.89 532.11 377.58C529.62 368.9 527.12 360.23 524.63 351.55C524.01 349.39 520.63 350.31 521.26 352.48Z" fill="#FF5408"/>
<path d="M536.78 348.34C532.4 353.36 527.39 357.75 522.43 362.18C517.17 366.88 511.91 371.58 506.65 376.28C504.97 377.78 507.45 380.25 509.12 378.75C514.38 374.05 519.64 369.35 524.9 364.65C529.86 360.22 534.87 355.83 539.25 350.81C540.73 349.13 538.26 346.64 536.78 348.34Z" fill="#FF5408"/>
<path d="M555.77 377.87C555.66 369.25 552.49 359.27 557.25 351.32C558.19 349.75 559.72 347.71 561.66 347.39C563.57 347.08 564.76 349.13 565.51 350.56C567.54 354.44 568.09 358.92 568.38 363.23C568.56 365.92 568.67 368.62 568.76 371.32C568.81 372.8 568.85 374.28 568.88 375.77C568.89 376.43 568.91 377.09 568.92 377.75C568.93 378.08 568.93 378.41 568.93 378.74C568.93 378.9 568.93 379.07 568.94 379.23C568.81 379.94 569.05 379.95 569.68 379.26C570.25 379.41 570.81 379.56 571.38 379.71C571.34 379.66 571.3 379.62 571.26 379.57C569.75 377.89 567.28 380.37 568.79 382.04C568.83 382.09 568.87 382.13 568.91 382.18C569.33 382.65 570.03 382.77 570.61 382.63C571.74 382.35 572.36 381.32 572.45 380.21C572.59 378.6 572.41 376.89 572.37 375.27C572.3 372.22 572.19 369.18 572.04 366.13C571.78 360.78 571.41 355.32 569.26 350.34C568.33 348.19 567.07 345.89 564.98 344.66C562.61 343.27 559.86 343.89 557.76 345.48C553.78 348.49 552.02 353.59 551.43 358.36C550.63 364.87 552.18 371.36 552.26 377.87C552.29 380.12 555.79 380.12 555.77 377.87Z" fill="#FF5408"/>
<path d="M553.69 367.65C558.67 367.37 563.64 367.81 568.49 368.99C570.68 369.52 571.61 366.15 569.42 365.62C564.28 364.37 558.97 363.86 553.69 364.15C552.75 364.2 551.94 364.92 551.94 365.9C551.94 366.81 552.74 367.7 553.69 367.65Z" fill="#FF5408"/>
<path d="M582.33 347.24C591.42 357.72 599.86 368.73 607.64 380.21C608.6 381.64 610.84 381.12 610.9 379.33C610.95 377.83 610.03 376.7 608.64 376.25C606.49 375.55 605.57 378.93 607.71 379.62C607.61 379.52 607.51 379.43 607.41 379.33C608.5 379.04 609.58 378.74 610.67 378.45C602.73 366.72 594.1 355.47 584.82 344.77C583.32 343.06 580.86 345.55 582.33 347.24Z" fill="#FF5408"/>
<path d="M596.4 345.66C597.03 351.57 594.31 357.45 592.25 362.85C590.06 368.6 587.76 374.31 585.5 380.03C584.67 382.12 588.05 383.03 588.87 380.96C591.19 375.08 593.56 369.22 595.8 363.32C597.91 357.75 600.55 351.74 599.9 345.66C599.8 344.71 599.17 343.92 598.15 343.91C597.28 343.9 596.3 344.72 596.4 345.66Z" fill="#FF5408"/>
<path d="M624.75 377.35C623.88 372.22 622.85 367.08 622.23 361.9C621.93 359.39 621.77 356.85 621.95 354.32C622.08 352.41 622.25 349.82 623.85 348.49C626.5 346.28 630.44 347.93 632.37 350.24C635.1 353.52 635.91 358.35 636.44 362.44C637.19 368.23 637.07 374.1 636.96 379.92C638.05 379.63 639.13 379.33 640.22 379.04C639.78 378.02 639.34 377 638.9 375.98C638.52 375.11 637.26 374.93 636.51 375.35C635.61 375.86 635.51 376.88 635.88 377.74C636.32 378.76 636.76 379.78 637.2 380.8C637.93 382.48 640.43 381.51 640.46 379.92C640.57 373.93 640.67 367.92 639.88 361.97C639.23 357.02 638.17 351.67 634.84 347.76C632.04 344.46 627.22 342.95 623.18 344.82C618.34 347.06 618.21 353.52 618.4 358.1C618.69 364.86 620.24 371.61 621.37 378.27C621.75 380.5 625.12 379.56 624.75 377.35Z" fill="#FF5408"/>
<path d="M621.44 367.71C625.98 367.56 630.52 367.42 635.05 367.27C635.99 367.24 636.8 366.49 636.8 365.52C636.8 364.6 636 363.74 635.05 363.77C630.51 363.92 625.97 364.06 621.44 364.21C620.5 364.24 619.69 364.99 619.69 365.96C619.69 366.88 620.49 367.74 621.44 367.71Z" fill="#FF5408"/>
<path d="M647.92 348.38C657.11 358.96 667.04 368.87 677.63 378.03C678.63 378.89 680.84 378.44 680.62 376.79C680.53 376.15 680.45 375.51 680.36 374.87C680.23 373.93 679.65 373.13 678.61 373.12C677.76 373.11 676.74 373.93 676.86 374.87C676.95 375.51 677.03 376.15 677.12 376.79C678.12 376.38 679.11 375.97 680.11 375.55C669.52 366.38 659.59 356.47 650.4 345.9C648.92 344.2 646.45 346.68 647.92 348.38Z" fill="#FF5408"/>
<path d="M662.68 342.3C663.1 354.76 659.15 366.73 655.26 378.4C654.55 380.54 657.92 381.46 658.63 379.33C662.62 367.36 666.61 355.07 666.18 342.3C666.1 340.06 662.6 340.05 662.68 342.3Z" fill="#FF5408"/>
<path d="M699.99 364.86C696.41 361.15 692.83 357.44 689.24 353.73C686.18 350.56 682.71 347.46 680.68 343.49C679.25 340.7 678.35 335.67 681.78 333.86C685.52 331.88 690.28 336 693.04 338.09C695.22 339.74 697.34 341.47 699.4 343.27C700.37 344.12 701.33 344.99 702.27 345.87C702.77 346.34 703.27 346.81 703.76 347.28C704.19 347.69 704.88 348.2 705.12 348.73C705.06 348.28 705 347.83 704.94 347.38C704.93 347.47 704.91 347.57 704.9 347.66C705.17 347.31 705.44 346.96 705.7 346.61C705.66 346.64 705.62 346.66 705.57 346.69C706.02 346.63 706.47 346.57 706.92 346.51C707.22 346.83 707.53 347.15 707.83 347.47C707.56 348.13 707.29 348.79 707.03 349.45C707.06 349.43 707.09 349.4 707.13 349.38C707.89 348.8 708.27 347.88 707.76 346.99C707.34 346.25 706.12 345.79 705.37 346.36C705.34 346.38 705.31 346.41 705.27 346.43C704.67 346.89 704.2 347.61 704.47 348.41C704.86 349.6 706.16 350.35 707.35 349.72C708.68 349.01 708.55 347.37 707.75 346.33C706.87 345.19 705.64 344.22 704.59 343.24C703.48 342.21 702.35 341.19 701.2 340.2C698.84 338.17 696.41 336.23 693.91 334.39C691.66 332.73 689.31 331.11 686.58 330.32C684.03 329.59 681.26 329.79 679.11 331.45C677.16 332.96 676.22 335.29 675.97 337.68C675.4 343.16 679.02 347.99 682.53 351.78C687.42 357.06 692.52 362.16 697.52 367.33C699.09 368.96 701.56 366.48 699.99 364.86Z" fill="#FF5408"/>
<path d="M690.51 355.06C693.3 350.41 695.51 345.41 697.09 340.21C697.75 338.05 694.37 337.13 693.72 339.28C692.23 344.2 690.14 348.88 687.49 353.29C686.33 355.23 689.36 356.99 690.51 355.06Z" fill="#FF5408"/>
<path d="M674.24 313.87C680.49 314.26 686.8 312.63 692.91 311.52C699.25 310.37 705.59 309.22 711.93 308.07C714.14 307.67 713.2 304.3 711 304.7C704.82 305.82 698.64 306.94 692.46 308.06C686.49 309.14 680.34 310.75 674.23 310.37C672 310.23 672 313.73 674.24 313.87Z" fill="#FF5408"/>
<path d="M676.31 289.79C681.32 294.81 685 300.88 688.59 306.95C692.5 313.55 696.56 320.02 700.98 326.3C702.27 328.13 705.3 326.38 704 324.53C699.5 318.14 695.37 311.53 691.39 304.81C687.72 298.62 683.9 292.44 678.78 287.32C677.19 285.72 674.71 288.19 676.31 289.79Z" fill="#FF5408"/>
<path d="M706.23 282.6C701.31 281 696.44 279.22 691.69 277.18C687.71 275.47 683.67 273.54 680.34 270.72C677.75 268.53 673 263.85 675.53 260.15C678.22 256.22 684.08 257.7 687.87 258.66C693.53 260.09 698.99 262.19 704.32 264.54C704.46 263.47 704.6 262.41 704.74 261.34C704.38 261.43 704.03 261.52 703.67 261.6C701.49 262.14 702.41 265.51 704.6 264.97C704.96 264.88 705.31 264.79 705.67 264.71C707.03 264.38 707.5 262.13 706.09 261.51C700.62 259.1 695.05 256.9 689.26 255.39C684.27 254.09 678.36 252.89 674.06 256.59C672.2 258.19 671.17 260.56 671.39 263.01C671.64 265.7 673.09 268.03 674.77 270.07C677.98 273.98 682.44 276.7 686.96 278.85C692.88 281.66 699.08 283.94 705.3 285.96C707.45 286.67 708.37 283.29 706.23 282.6Z" fill="#FF5408"/>
<path d="M691.33 276.74C692.52 271.1 693.4 265.39 693.97 259.65C694.06 258.71 693.1 257.9 692.22 257.9C691.2 257.9 690.56 258.71 690.47 259.65C689.93 265.08 689.08 270.47 687.96 275.81C687.76 276.73 688.23 277.7 689.18 277.96C690.04 278.2 691.13 277.66 691.33 276.74Z" fill="#FF5408"/>
<path d="M673.05 240.07C686.5 237.93 699.96 235.78 713.41 233.64C714.27 233.5 714.77 232.5 714.66 231.72C714.54 230.81 713.82 230.29 712.94 230.2C712.44 230.15 711.93 230.1 711.43 230.05C709.19 229.82 709.21 233.32 711.43 233.55C711.93 233.6 712.44 233.65 712.94 233.7C712.78 232.55 712.63 231.41 712.47 230.26C699.02 232.4 685.56 234.55 672.11 236.69C671.17 236.84 670.67 238 670.89 238.84C671.16 239.84 672.12 240.22 673.05 240.07Z" fill="#FF5408"/>
<path d="M675.92 223.44C681.16 227.71 685.49 232.92 689.87 238.03C694.44 243.36 699.25 248.38 704.65 252.88C706.37 254.31 708.86 251.85 707.12 250.41C701.72 245.91 696.91 240.89 692.34 235.56C687.96 230.45 683.63 225.24 678.39 220.97C676.67 219.56 674.18 222.02 675.92 223.44Z" fill="#FF5408"/>
<path d="M706.16 213.07C700.66 212.56 695.22 211.56 689.9 210.07C684.97 208.69 679.53 207.14 675.27 204.19C671.81 201.8 669.09 196.72 672.64 193.19C676.29 189.56 681.92 190.69 686.32 191.98C689.42 192.89 692.48 193.9 695.53 194.95C696.99 195.45 698.44 195.97 699.89 196.49C700.65 196.77 701.41 197.05 702.17 197.33C702.55 197.47 702.93 197.62 703.31 197.76C703.46 197.82 703.61 197.88 703.76 197.93C704.3 198.26 704.38 198.15 704 197.6C704.06 197.15 704.12 196.7 704.18 196.25C704.15 196.3 704.12 196.35 704.09 196.4C704.44 196.13 704.79 195.86 705.14 195.6C705.34 195.59 705.54 195.58 705.73 195.57C706.16 196.13 706.59 196.69 707.01 197.26C707.01 197.21 707.01 197.17 707.01 197.12C707.03 194.87 703.53 194.87 703.51 197.12C703.51 197.17 703.51 197.21 703.51 197.26C703.5 198.1 704.07 198.66 704.79 198.95C706.24 199.53 707.69 198.13 707.37 196.68C707.02 195.08 705.08 194.71 703.78 194.22C700.44 192.96 697.07 191.76 693.68 190.64C687.73 188.67 680.62 185.7 674.37 188.08C671.87 189.03 669.56 190.74 668.36 193.19C667.06 195.86 667.27 198.86 668.47 201.52C671.09 207.35 677.79 209.74 683.39 211.7C690.74 214.27 698.39 215.86 706.14 216.58C708.41 216.77 708.39 213.27 706.16 213.07Z" fill="#FF5408"/>
<path d="M671.57 173.25C684.49 174.4 697.48 173.96 710.3 172.02C711.24 171.88 711.74 170.7 711.52 169.87C711.26 168.87 710.3 168.51 709.37 168.65C696.87 170.54 684.16 170.88 671.57 169.75C669.33 169.55 669.34 173.05 671.57 173.25Z" fill="#FF5408"/>
<path d="M675.43 156.18C684.74 166.65 694.5 176.73 704.66 186.38C706.29 187.93 708.77 185.46 707.13 183.91C696.97 174.26 687.21 164.18 677.9 153.71C676.41 152.02 673.94 154.5 675.43 156.18Z" fill="#FF5408"/>
<path d="M689.14 210.6C688.94 204.94 689.31 199.27 690.3 193.69C690.44 192.89 690.08 192.07 689.25 191.84C688.52 191.64 687.55 192.09 687.4 192.89C686.36 198.73 685.92 204.66 686.13 210.6C686.21 212.53 689.21 212.54 689.14 210.6Z" fill="#FF5408"/>
</svg>
