<svg width="231" height="637" viewBox="0 0 231 637" fill="none" xmlns="http://www.w3.org/2000/svg">
<path d="M115.97 180.34C165.67 180.34 205.96 140.05 205.96 90.35C205.96 40.6499 165.67 0.359985 115.97 0.359985C66.2699 0.359985 25.98 40.6499 25.98 90.35C25.98 140.05 66.2699 180.34 115.97 180.34Z" fill="#7116A0"/>
<path d="M221.16 108.24H9.70001C4.62001 108.24 0.5 104.12 0.5 99.04V86C0.5 80.92 4.62001 76.8 9.70001 76.8H221.16C226.24 76.8 230.36 80.92 230.36 86V99.04C230.36 104.12 226.24 108.24 221.16 108.24Z" fill="#FF5408"/>
<path d="M25.2803 185.46L206.43 183.75L115.86 458.9L25.2803 185.46Z" fill="#FF5408"/>
<path d="M198.74 188.03L34.6802 189.74L44.9302 217.08H121.84" stroke="black" stroke-width="1.1669" stroke-miterlimit="10"/>
<path d="M183.36 222.21L120.13 422.15" stroke="black" stroke-width="1.1669" stroke-miterlimit="10"/>
<path d="M44.9302 194.86L50.0602 210.24" stroke="black" stroke-width="1.1669" stroke-miterlimit="10"/>
<path d="M106.46 8.58997C99.2201 9.74997 78.0601 14.1 60.3201 32.52C46.4701 46.89 41.6001 62.67 39.8101 70.12" stroke="black" stroke-width="1.1669" stroke-miterlimit="10"/>
<path d="M15.8799 82.07H203.87" stroke="black" stroke-width="1.1669" stroke-miterlimit="10"/>
<path d="M193.61 117.96C190.21 125.4 183.6 137.4 171.39 148.72C158.43 160.75 145.09 166.5 137.21 169.23" stroke="black" stroke-width="1.1669" stroke-miterlimit="10"/>
<path d="M115.36 473.42C140.5 482.44 165.81 494.26 164.94 506.1C163.55 525.02 96.2903 529.95 96.2003 545.54C96.1103 562.42 174.84 572.4 173.95 584.98C173.13 596.69 104.28 596.65 102.96 609.77C102.22 617.12 122.99 625.48 144.65 632.31" stroke="#7116A0" stroke-width="9.3355" stroke-miterlimit="10" stroke-linecap="round" stroke-linejoin="round"/>
</svg>
