<svg width="173" height="67" viewBox="0 0 173 67" fill="none" xmlns="http://www.w3.org/2000/svg">
<path d="M158.29 66.1H14.98C7.00003 66.1 0.540039 59.63 0.540039 51.66V14.81C0.540039 6.83 7.01003 0.369995 14.98 0.369995H158.29C166.27 0.369995 172.73 6.84 172.73 14.81V51.66C172.74 59.64 166.27 66.1 158.29 66.1Z" fill="#FF5408"/>
<path d="M104.31 53.61H57.3702C49.3902 53.61 42.9302 47.14 42.9302 39.17V26.68C42.9302 18.7 49.4002 12.24 57.3702 12.24H104.31C112.29 12.24 118.75 18.71 118.75 26.68V39.17C118.75 47.15 112.29 53.61 104.31 53.61Z" fill="#7116A0"/>
<path d="M162.22 6.64001V25.57" stroke="black" stroke-width="1.1669" stroke-miterlimit="10"/>
<path d="M162.57 38.19V57.12" stroke="black" stroke-width="1.1669" stroke-miterlimit="10"/>
<path d="M136.63 6.64001V25.57" stroke="black" stroke-width="1.1669" stroke-miterlimit="10"/>
<path d="M136.63 38.19V57.12" stroke="black" stroke-width="1.1669" stroke-miterlimit="10"/>
<path d="M33.9199 6.64001V25.57" stroke="black" stroke-width="1.1669" stroke-miterlimit="10"/>
<path d="M34.27 38.19V57.12" stroke="black" stroke-width="1.1669" stroke-miterlimit="10"/>
<path d="M8.33008 6.64001V25.57" stroke="black" stroke-width="1.1669" stroke-miterlimit="10"/>
<path d="M8.33008 38.19V57.12" stroke="black" stroke-width="1.1669" stroke-miterlimit="10"/>
</svg>
