<svg width="287" height="110" viewBox="0 0 287 110" fill="none" xmlns="http://www.w3.org/2000/svg">
<path d="M272.08 109.78H14.5098C6.52983 109.78 0.0698242 103.31 0.0698242 95.3401V14.8799C0.0698242 6.89988 6.53983 0.439941 14.5098 0.439941H272.08C280.06 0.439941 286.52 6.90988 286.52 14.8799V95.3401C286.52 103.32 280.06 109.78 272.08 109.78Z" fill="#7116A0"/>
<path d="M182.28 89.01H85.0298C77.0498 89.01 70.5898 82.5401 70.5898 74.5701V34.6299C70.5898 26.6499 77.0598 20.1899 85.0298 20.1899H182.28C190.26 20.1899 196.72 26.6599 196.72 34.6299V74.5701C196.72 82.5401 190.26 89.01 182.28 89.01Z" fill="#FF5408"/>
<path d="M269.03 10.8701V42.3601" stroke="black" stroke-width="1.1663" stroke-miterlimit="10"/>
<path d="M269.61 63.3501V94.8401" stroke="black" stroke-width="1.1663" stroke-miterlimit="10"/>
<path d="M226.46 10.8701V42.3601" stroke="black" stroke-width="1.1663" stroke-miterlimit="10"/>
<path d="M226.46 63.3501V94.8401" stroke="black" stroke-width="1.1663" stroke-miterlimit="10"/>
<path d="M55.5996 10.8701V42.3601" stroke="black" stroke-width="1.1663" stroke-miterlimit="10"/>
<path d="M56.1899 63.3501V94.8401" stroke="black" stroke-width="1.1663" stroke-miterlimit="10"/>
<path d="M13.0298 10.8701V42.3601" stroke="black" stroke-width="1.1663" stroke-miterlimit="10"/>
<path d="M13.0298 63.3501V94.8401" stroke="black" stroke-width="1.1663" stroke-miterlimit="10"/>
</svg>
