<svg width="371" height="194" viewBox="0 0 371 194" fill="none" xmlns="http://www.w3.org/2000/svg">
<path d="M0.52002 0.0700073H370.11C368.66 15.34 356.81 124.96 283.15 171.12C247.03 193.76 207.82 193.76 185.32 193.76C162.82 193.76 123.61 193.76 87.49 171.12C13.82 124.96 1.97002 15.34 0.52002 0.0700073Z" fill="#FF5408"/>
<path d="M38.0698 21.81C132.28 22.47 226.49 23.13 320.7 23.79C320.7 26.43 320.7 29.06 320.7 31.7C320.7 31.71 320.7 35.65 320.7 35.65C320.7 40.04 319.15 65.89 316.75 77.16C313.39 92.92 298.14 127.87 263.27 149.24C235.49 166.26 208.77 166.1 185.32 166.1C163.07 166.1 135.81 165.96 107.37 149.24C64.0298 123.76 47.9798 77.27 45.9798 63.33C45.7298 61.61 44.5398 52.32 42.0298 39.61C40.5298 32.04 39.0698 25.87 38.0698 21.81Z" fill="black" stroke="#FF5408" stroke-width="2.3339" stroke-miterlimit="10"/>
<path d="M88.4698 26.62H48.3198V60.35H88.4698V26.62Z" fill="white" stroke="black" stroke-width="0.5835" stroke-miterlimit="10"/>
<path d="M133.93 26.62H93.7798V60.35H133.93V26.62Z" fill="white" stroke="black" stroke-width="0.5835" stroke-miterlimit="10"/>
<path d="M179.39 26.62H139.24V60.35H179.39V26.62Z" fill="white" stroke="black" stroke-width="0.5835" stroke-miterlimit="10"/>
<path d="M224.85 26.62H184.7V60.35H224.85V26.62Z" fill="white" stroke="black" stroke-width="0.5835" stroke-miterlimit="10"/>
<path d="M270.31 26.62H230.16V60.35H270.31V26.62Z" fill="white" stroke="black" stroke-width="0.5835" stroke-miterlimit="10"/>
<path d="M315.76 26.62H275.61V60.35H315.76V26.62Z" fill="white" stroke="black" stroke-width="0.5835" stroke-miterlimit="10"/>
<path d="M336.52 23.79H318.73V65.3H336.52V23.79Z" stroke="#FF5408" stroke-width="2.3339" stroke-miterlimit="10"/>
<path d="M45.9799 21.81H28.1899V63.32H45.9799V21.81Z" fill="#FF5408"/>
<path d="M28.1899 42.57V11.93H84.5199" stroke="black" stroke-width="1.1669" stroke-miterlimit="10"/>
<path d="M159.62 178.94H203.1" stroke="black" stroke-width="1.1669" stroke-miterlimit="10"/>
</svg>
