<svg width="360" height="189" viewBox="0 0 360 189" fill="none" xmlns="http://www.w3.org/2000/svg">
<path d="M0.669922 0.47998H359.97C358.56 15.32 347.04 121.89 275.43 166.77C240.32 188.78 202.2 188.78 180.32 188.78C158.44 188.78 120.33 188.78 85.2099 166.77C13.6099 121.88 2.08992 15.32 0.669922 0.47998Z" fill="#7116A0"/>
<path d="M37.1797 21.61C128.77 22.25 220.35 22.89 311.94 23.53C311.94 26.09 311.94 28.65 311.94 31.22C311.94 31.23 311.94 35.06 311.94 35.06C311.94 39.33 310.43 64.45 308.1 75.41C304.83 90.73 290.01 124.71 256.11 145.48C229.1 162.02 203.13 161.87 180.33 161.87C158.7 161.87 132.2 161.73 104.55 145.48C62.4197 120.71 46.8197 75.52 44.8697 61.96C44.6297 60.28 43.4697 51.26 41.0297 38.9C39.5697 31.55 38.1597 25.56 37.1797 21.61Z" fill="black" stroke="#7116A0" stroke-width="2.3339" stroke-miterlimit="10"/>
<path d="M86.1799 26.29H47.1499V59.08H86.1799V26.29Z" fill="white" stroke="black" stroke-width="0.5835" stroke-miterlimit="10"/>
<path d="M130.37 26.29H91.3398V59.08H130.37V26.29Z" fill="white" stroke="black" stroke-width="0.5835" stroke-miterlimit="10"/>
<path d="M174.56 26.29H135.53V59.08H174.56V26.29Z" fill="white" stroke="black" stroke-width="0.5835" stroke-miterlimit="10"/>
<path d="M218.75 26.29H179.72V59.08H218.75V26.29Z" fill="white" stroke="black" stroke-width="0.5835" stroke-miterlimit="10"/>
<path d="M262.94 26.29H223.91V59.08H262.94V26.29Z" fill="white" stroke="black" stroke-width="0.5835" stroke-miterlimit="10"/>
<path d="M307.14 26.29H268.11V59.08H307.14V26.29Z" fill="white" stroke="black" stroke-width="0.5835" stroke-miterlimit="10"/>
<path d="M327.31 23.54H310.02V63.89H327.31V23.54Z" fill="#7116A0"/>
<path d="M44.8598 21.61H27.5698V61.96H44.8598V21.61Z" fill="#7116A0"/>
<path d="M27.5698 41.79V12.01H82.3298" stroke="black" stroke-width="1.1669" stroke-miterlimit="10"/>
<path d="M155.35 174.36H197.62" stroke="black" stroke-width="1.1669" stroke-miterlimit="10"/>
</svg>
