<svg width="189" height="360" viewBox="0 0 189 360" fill="none" xmlns="http://www.w3.org/2000/svg">
<path d="M188.55 0.630005V359.93C173.71 358.52 67.14 347 22.26 275.39C0.25001 240.28 0.25 202.16 0.25 180.28C0.25 158.4 0.25001 120.29 22.26 85.17C67.15 13.56 173.71 2.04 188.55 0.630005Z" fill="#7116A0"/>
<path d="M167.42 37.14C166.78 128.73 166.14 220.31 165.5 311.9C162.94 311.9 160.38 311.9 157.81 311.9C157.8 311.9 153.97 311.9 153.97 311.9C149.7 311.9 124.58 310.39 113.62 308.06C98.3002 304.79 64.3202 289.97 43.5502 256.07C27.0102 229.06 27.1602 203.09 27.1602 180.29C27.1602 158.66 27.3002 132.16 43.5502 104.51C68.3202 62.38 113.51 46.78 127.07 44.83C128.75 44.59 137.77 43.43 150.13 40.99C157.48 39.52 163.47 38.11 167.42 37.14Z" fill="black" stroke="#7116A0" stroke-width="2.3339" stroke-miterlimit="10"/>
<path d="M162.743 86.1318V47.1018L129.953 47.1018V86.1318H162.743Z" fill="white" stroke="black" stroke-width="0.5835" stroke-miterlimit="10"/>
<path d="M162.745 130.323V91.2935H129.955V130.323H162.745Z" fill="white" stroke="black" stroke-width="0.5835" stroke-miterlimit="10"/>
<path d="M162.736 174.515V135.485H129.946V174.515H162.736Z" fill="white" stroke="black" stroke-width="0.5835" stroke-miterlimit="10"/>
<path d="M162.738 218.707V179.677H129.948V218.707H162.738Z" fill="white" stroke="black" stroke-width="0.5835" stroke-miterlimit="10"/>
<path d="M162.74 262.898V223.868H129.95V262.898H162.74Z" fill="white" stroke="black" stroke-width="0.5835" stroke-miterlimit="10"/>
<path d="M162.741 307.09V268.06H129.951V307.09H162.741Z" fill="white" stroke="black" stroke-width="0.5835" stroke-miterlimit="10"/>
<path d="M165.5 327.266V309.976H125.15V327.266H165.5Z" fill="#7116A0"/>
<path d="M167.419 44.8224V27.5323L127.069 27.5323V44.8224L167.419 44.8224Z" fill="#7116A0"/>
<path d="M147.24 27.53H177.03V82.29" stroke="black" stroke-width="1.1669" stroke-miterlimit="10"/>
<path d="M14.6699 155.3V197.57" stroke="black" stroke-width="1.1669" stroke-miterlimit="10"/>
</svg>
