<svg width="51" height="276" viewBox="0 0 51 276" fill="none" xmlns="http://www.w3.org/2000/svg">
<path d="M47.0803 275.29H6.36029C4.96029 275.29 3.82031 274.15 3.82031 272.75V267.34C3.82031 265.94 4.96029 264.8 6.36029 264.8H47.0803C48.4803 264.8 49.6203 265.94 49.6203 267.34V272.75C49.6203 274.15 48.4803 275.29 47.0803 275.29Z" fill="#FF5408"/>
<path d="M31.4902 219.95H20.9902V264.8H31.4902V219.95Z" fill="#7116A0"/>
<path d="M5.37018 64.4099H46.1502C48.5902 64.4099 50.5702 66.3901 50.5702 68.8301V215.53C50.5702 217.97 48.5902 219.95 46.1502 219.95H5.37018C2.93018 219.95 0.950195 217.97 0.950195 215.53V68.8301C0.950195 66.3901 2.93018 64.4099 5.37018 64.4099Z" fill="#FF5408"/>
<path d="M31.48 56.78H19.0801V64.4099H31.48V56.78Z" fill="#7116A0"/>
<path d="M27.67 94.95H24.8101V206.59H27.67V94.95Z" fill="#7116A0"/>
<path d="M38.1714 188.55V185.6H14.3113V188.55H38.1714Z" fill="#7116A0"/>
<path d="M38.1719 170.42V167.47H14.3118V170.42H38.1719Z" fill="#7116A0"/>
<path d="M38.1714 206.68V203.73H14.3115V206.68H38.1714Z" fill="#7116A0"/>
<path d="M6.68018 80.6299V213.27H28.6302" stroke="black" stroke-width="1.1663" stroke-miterlimit="10"/>
<path d="M28.1504 221.38V239.99" stroke="black" stroke-width="1.1663" stroke-miterlimit="10"/>
<path d="M38.6504 267.18H47.2303V273.86" stroke="black" stroke-width="1.1663" stroke-miterlimit="10"/>
<path d="M29.1001 58.21V63.46" stroke="black" stroke-width="1.1663" stroke-miterlimit="10"/>
<path d="M37.6904 67.75H46.2805V81.1101" stroke="black" stroke-width="1.1663" stroke-miterlimit="10"/>
<path d="M26.7203 0.47998H23.8604V56.78H26.7203V0.47998Z" fill="#7116A0"/>
</svg>
