<svg width="83" height="455" viewBox="0 0 83 455" fill="none" xmlns="http://www.w3.org/2000/svg">
<path d="M78.3903 454.96H7.74023C6.34023 454.96 5.2002 453.82 5.2002 452.42V440.15C5.2002 438.75 6.34023 437.61 7.74023 437.61H78.3903C79.7903 437.61 80.9303 438.75 80.9303 440.15V452.42C80.9303 453.82 79.8003 454.96 78.3903 454.96Z" fill="#FF5408"/>
<path d="M50.9601 363.45H33.6001V437.61H50.9601V363.45Z" fill="#7116A0"/>
<path d="M4.88 106.26H78.09C80.53 106.26 82.51 108.24 82.51 110.68V359.03C82.51 361.47 80.53 363.45 78.09 363.45H4.88C2.44 363.45 0.459961 361.47 0.459961 359.03V110.68C0.459961 108.24 2.44 106.26 4.88 106.26Z" fill="#FF5408"/>
<path d="M50.95 93.6399H30.4399V106.26H50.95V93.6399Z" fill="#7116A0"/>
<path d="M44.6401 156.75H39.9102V341.36H44.6401V156.75Z" fill="#7116A0"/>
<path d="M62 311.526V306.646H22.55V311.526H62Z" fill="#7116A0"/>
<path d="M62.001 281.547V276.667H22.5508V281.547H62.001Z" fill="#7116A0"/>
<path d="M61.999 341.505V336.625H22.5491V341.505H61.999Z" fill="#7116A0"/>
<path d="M9.93018 133.08V352.4H46.2201" stroke="black" stroke-width="1.1663" stroke-miterlimit="10"/>
<path d="M45.4302 365.81V396.58" stroke="black" stroke-width="1.1663" stroke-miterlimit="10"/>
<path d="M62.79 441.55H76.99V452.59" stroke="black" stroke-width="1.1663" stroke-miterlimit="10"/>
<path d="M47.0098 96V104.68" stroke="black" stroke-width="1.1663" stroke-miterlimit="10"/>
<path d="M61.21 111.78H75.41V133.87" stroke="black" stroke-width="1.1663" stroke-miterlimit="10"/>
<path d="M43.0602 0.540039H38.3301V93.6299H43.0602V0.540039Z" fill="#7116A0"/>
</svg>
