<svg width="83" height="455" viewBox="0 0 83 455" fill="none" xmlns="http://www.w3.org/2000/svg">
<path d="M78.3103 454.97H7.61031C6.21031 454.97 5.07031 453.83 5.07031 452.43V440.15C5.07031 438.75 6.21031 437.61 7.61031 437.61H78.3103C79.7103 437.61 80.8503 438.75 80.8503 440.15V452.43C80.8503 453.83 79.7103 454.97 78.3103 454.97Z" fill="#FF5408"/>
<path d="M50.8602 363.41H33.4902V437.61H50.8602V363.41Z" fill="#7116A0"/>
<path d="M4.75008 106.07H78.0101C80.4501 106.07 82.4301 108.05 82.4301 110.49V358.99C82.4301 361.43 80.4501 363.41 78.0101 363.41H4.75008C2.31008 363.41 0.330078 361.43 0.330078 358.99V110.49C0.340078 108.05 2.31008 106.07 4.75008 106.07Z" fill="#FF5408"/>
<path d="M50.8501 93.4399H30.3301V106.07H50.8501V93.4399Z" fill="#7116A0"/>
<path d="M44.5403 156.59H39.8003V341.3H44.5403V156.59Z" fill="#7116A0"/>
<path d="M61.9038 311.448V306.568H22.4338V311.448H61.9038Z" fill="#7116A0"/>
<path d="M61.9077 281.452V276.572H22.4377V281.452H61.9077Z" fill="#7116A0"/>
<path d="M61.9097 341.444V336.564H22.4397V341.444H61.9097Z" fill="#7116A0"/>
<path d="M9.81006 132.91V352.35H46.1201" stroke="black" stroke-width="1.1669" stroke-miterlimit="10"/>
<path d="M45.3301 365.77V396.56" stroke="black" stroke-width="1.1669" stroke-miterlimit="10"/>
<path d="M62.7002 441.55H76.9002V452.6" stroke="black" stroke-width="1.1669" stroke-miterlimit="10"/>
<path d="M46.9102 95.8101V104.49" stroke="black" stroke-width="1.1669" stroke-miterlimit="10"/>
<path d="M61.1201 111.6H75.3301V133.7" stroke="black" stroke-width="1.1669" stroke-miterlimit="10"/>
<path d="M42.97 0.300049H38.23V93.45H42.97V0.300049Z" fill="#7116A0"/>
</svg>
