<svg width="73" height="558" viewBox="0 0 73 558" fill="none" xmlns="http://www.w3.org/2000/svg">
<path d="M39.3699 134.62H34.84C29.65 134.62 25.4399 130.41 25.4399 125.22V9.82996C25.4399 4.63996 29.65 0.430054 34.84 0.430054H39.3699C44.5599 0.430054 48.77 4.63996 48.77 9.82996V125.22C48.77 130.4 44.5599 134.62 39.3699 134.62Z" fill="#7116A0"/>
<path d="M56.3099 557.05H16.7199C7.99991 557.05 0.919922 549.98 0.919922 541.25V78.0601C0.919922 69.3401 7.98991 62.26 16.7199 62.26H56.3099C65.0299 62.26 72.1099 69.3301 72.1099 78.0601V541.25C72.1099 549.97 65.0399 557.05 56.3099 557.05Z" fill="#FF5408"/>
<path d="M37.0997 540.71C48.0571 540.71 56.9398 531.827 56.9398 520.87C56.9398 509.913 48.0571 501.03 37.0997 501.03C26.1424 501.03 17.2598 509.913 17.2598 520.87C17.2598 531.827 26.1424 540.71 37.0997 540.71Z" fill="#7116A0"/>
<path d="M11.4297 472.44H60.4397" stroke="black" stroke-width="3.5008" stroke-miterlimit="10"/>
<path d="M11.4297 418.76H60.4397" stroke="black" stroke-width="3.5008" stroke-miterlimit="10"/>
<path d="M12.5898 361.58H61.6098" stroke="black" stroke-width="3.5008" stroke-miterlimit="10"/>
<path d="M12.5898 310.24H61.6098" stroke="black" stroke-width="3.5008" stroke-miterlimit="10"/>
<path d="M35.3501 10.34H43.5201V51.24" stroke="black" stroke-width="1.1669" stroke-miterlimit="10"/>
<path d="M38.8498 71.02H10.8398V123.53" stroke="black" stroke-width="1.1669" stroke-miterlimit="10"/>
<path d="M58.6899 102.52L59.8599 260.06" stroke="black" stroke-width="1.1669" stroke-miterlimit="10"/>
</svg>
