<svg width="348" height="45" viewBox="0 0 348 45" fill="none" xmlns="http://www.w3.org/2000/svg">
<path d="M263.71 25.02V20.3999C263.71 17.6599 265.93 15.45 268.66 15.45H342.27C345.01 15.45 347.22 17.6699 347.22 20.3999V25.02C347.22 27.76 345 29.97 342.27 29.97H268.66C265.93 29.97 263.71 27.75 263.71 25.02Z" fill="#7116A0"/>
<path d="M0.799805 29.3899V15.3C0.799805 6.96005 7.55979 0.189941 15.9098 0.189941H293.63C301.97 0.189941 308.74 6.95005 308.74 15.3V29.3899C308.74 37.7299 301.98 44.49 293.63 44.49H15.9098C7.56979 44.5 0.799805 37.7299 0.799805 29.3899Z" fill="#FF5408"/>
<path d="M23.3198 35.0601C30.1405 35.0601 35.6697 29.5307 35.6697 22.71C35.6697 15.8892 30.1405 10.3601 23.3198 10.3601C16.499 10.3601 10.9697 15.8892 10.9697 22.71C10.9697 29.5307 16.499 35.0601 23.3198 35.0601Z" fill="#7116A0"/>
<path d="M22.5898 25.3101V20.97C22.5898 18.4 24.6798 16.3101 27.2498 16.3101H281.57C284.14 16.3101 286.23 18.4 286.23 20.97V25.3101C286.23 27.8801 284.14 29.97 281.57 29.97H27.2498C24.6798 29.97 22.5898 27.8901 22.5898 25.3101Z" fill="#7116A0"/>
<path d="M53.46 6.72998V37.23" stroke="black" stroke-width="3.4988" stroke-miterlimit="10"/>
<path d="M86.8696 6.72998V37.23" stroke="black" stroke-width="3.4988" stroke-miterlimit="10"/>
<path d="M122.45 7.45996V37.96" stroke="black" stroke-width="3.4988" stroke-miterlimit="10"/>
<path d="M154.41 7.45996V37.96" stroke="black" stroke-width="3.4988" stroke-miterlimit="10"/>
<path d="M341.06 21.6201V26.7H315.6" stroke="black" stroke-width="1.1663" stroke-miterlimit="10"/>
<path d="M303.29 23.8V6.37012H270.61" stroke="black" stroke-width="1.1663" stroke-miterlimit="10"/>
<path d="M283.68 36.1499L185.64 36.8701" stroke="black" stroke-width="1.1663" stroke-miterlimit="10"/>
</svg>
